<?xml version="1.0" encoding="UTF-8" standalone="no"?>
<!DOCTYPE svg PUBLIC "-//W3C//DTD SVG 1.1//EN" "http://www.w3.org/Graphics/SVG/1.1/DTD/svg11.dtd">
<svg width="100%" height="100%" viewBox="0 0 101 89" version="1.1" xmlns="http://www.w3.org/2000/svg" xmlns:xlink="http://www.w3.org/1999/xlink" xml:space="preserve" xmlns:serif="http://www.serif.com/" style="fill-rule:evenodd;clip-rule:evenodd;stroke-linejoin:round;stroke-miterlimit:1.41421;">
    <g transform="matrix(1.20994,0,0,1.20994,-1812.83,-327.571)">
        <path d="M1539.49,314.029C1533.8,314.079 1533.05,317.315 1533.87,323.564C1534.7,329.863 1537.77,338.694 1531,343.238C1523.14,348.517 1515.62,327.065 1514.1,323.794C1512.04,319.368 1509.19,314.848 1505.91,308.961C1490.88,281.998 1500.89,273.9 1511.86,271.148C1521.2,268.803 1530.58,277.203 1539.62,277.203L1539.73,277.203C1548.74,277.138 1558.09,268.812 1567.39,271.148C1578.36,273.9 1588.37,281.998 1573.34,308.961C1570.05,314.848 1567.21,319.368 1565.15,323.794C1563.63,327.065 1556.11,348.517 1548.25,343.238C1541.48,338.694 1544.55,329.863 1545.38,323.564C1546.21,317.266 1545.44,314.028 1539.62,314.028L1539.49,314.029ZM1552.59,300.833L1526.66,300.833C1532.78,311.224 1546.7,311.921 1552.59,300.833ZM1532.6,286.394C1533.91,286.394 1534.96,288.985 1534.96,290.287C1534.96,291.59 1533.91,294.014 1532.6,294.014C1531.3,294.014 1530.24,291.59 1530.24,290.287C1530.24,288.985 1531.3,286.394 1532.6,286.394ZM1546.64,286.394C1547.95,286.394 1549.01,288.985 1549.01,290.287C1549.01,291.59 1547.95,294.014 1546.64,294.014C1545.34,294.014 1544.28,291.59 1544.28,290.287C1544.28,288.985 1545.34,286.394 1546.64,286.394Z" style="fill:white;"/>
    </g>
</svg>
