<?xml version="1.0" encoding="UTF-8" standalone="no"?>
<!DOCTYPE svg PUBLIC "-//W3C//DTD SVG 1.1//EN" "http://www.w3.org/Graphics/SVG/1.1/DTD/svg11.dtd">
<svg width="100%" height="100%" viewBox="0 0 100 100" version="1.1" xmlns="http://www.w3.org/2000/svg" xmlns:xlink="http://www.w3.org/1999/xlink" xml:space="preserve" xmlns:serif="http://www.serif.com/" style="fill-rule:evenodd;clip-rule:evenodd;stroke-linejoin:round;stroke-miterlimit:1.41421;">
    <rect id="Artboard1" x="0" y="0" width="100" height="100" style="fill:none;"/>
    <clipPath id="_clip1">
        <rect id="Artboard11" serif:id="Artboard1" x="0" y="0" width="100" height="100"/>
    </clipPath>
    <g clip-path="url(#_clip1)">
        <g transform="matrix(0.306786,0,0,0.306786,-803.06,-1223.59)">
            <path d="M2865.74,4097.14L2866.45,4097.38L2867.1,4097.74L2867.68,4098.21L2868.17,4098.77L2868.56,4099.4L2868.83,4100.1L2868.98,4100.83L2869,4101.57L2868.9,4102.31L2868.67,4103.02L2868.32,4103.68L2867.86,4104.27L2867.41,4104.75L2866.98,4105.23L2866.55,4105.7L2866.13,4106.18L2865.72,4106.66L2865.31,4107.14L2864.9,4107.62L2864.5,4108.11L2864.11,4108.59L2863.72,4109.07L2863.33,4109.56L2863.1,4109.86L2862.95,4110.04L2862.58,4110.53L2862.21,4111.02L2861.85,4111.5L2861.49,4111.99L2861.13,4112.48L2860.78,4112.97L2860.44,4113.46L2860.1,4113.95L2859.76,4114.44L2859.43,4114.94L2859.1,4115.43L2858.78,4115.92L2858.46,4116.41L2858.14,4116.91L2857.83,4117.4L2857.53,4117.89L2857.22,4118.39L2856.93,4118.88L2856.63,4119.37L2856.34,4119.87L2856.06,4120.36L2855.78,4120.85L2855.5,4121.35L2855.22,4121.84L2854.95,4122.33L2854.69,4122.82L2854.42,4123.32L2854.16,4123.81L2853.91,4124.3L2853.66,4124.8L2853.41,4125.29L2853.16,4125.78L2852.92,4126.27L2852.68,4126.76L2852.44,4127.25L2852.21,4127.74L2851.98,4128.23L2851.76,4128.71L2851.53,4129.2L2851.32,4129.69L2851.1,4130.17L2850.89,4130.66L2850.68,4131.14L2850.47,4131.62L2850.06,4132.59L2849.67,4133.55L2849.53,4133.9L2849.28,4134.51L2848.91,4135.46L2848.54,4136.41L2848.19,4137.35L2847.85,4138.29L2847.51,4139.22L2847.18,4140.14L2846.86,4141.06L2846.55,4141.98L2846.25,4142.88L2845.95,4143.78L2845.66,4144.68L2845.38,4145.56L2845.1,4146.44L2844.83,4147.31L2844.56,4148.16L2844.04,4149.86L2843.54,4151.52L2843.05,4153.14L2842.56,4154.72L2842.09,4156.26L2841.85,4157.02L2841.62,4157.76L2841.38,4158.49L2841.14,4159.21L2840.9,4159.92L2840.66,4160.62L2840.42,4161.3L2840.25,4161.76L2840.17,4161.99L2840.01,4162.39L2839.84,4162.8L2839.66,4163.21L2839.48,4163.61L2839.28,4164.02L2839.08,4164.42L2838.87,4164.82L2838.65,4165.22L2838.42,4165.62L2838.19,4166.02L2837.94,4166.41L2837.69,4166.8L2837.44,4167.19L2837.17,4167.59L2836.9,4167.97L2836.62,4168.36L2836.34,4168.75L2836.05,4169.14L2835.75,4169.52L2835.44,4169.9L2835.13,4170.29L2834.82,4170.67L2834.49,4171.05L2834.16,4171.43L2833.82,4171.81L2833.48,4172.18L2833.13,4172.56L2832.78,4172.93L2832.42,4173.31L2832.05,4173.68L2831.68,4174.05L2831.31,4174.42L2830.92,4174.79L2830.54,4175.16L2830.14,4175.52L2829.74,4175.89L2829.34,4176.25L2828.93,4176.61L2828.52,4176.98L2828.1,4177.34L2827.68,4177.69L2827.25,4178.05L2826.81,4178.4L2826.38,4178.76L2825.93,4179.11L2825.49,4179.46L2825.34,4179.57L2825.03,4179.8L2824.57,4180.14L2824.1,4180.47L2823.63,4180.81L2823.16,4181.14L2822.68,4181.47L2822.2,4181.8L2821.71,4182.12L2821.22,4182.45L2820.73,4182.77L2820.23,4183.09L2819.73,4183.4L2819.23,4183.72L2818.72,4184.02L2818.21,4184.33L2817.7,4184.64L2817.18,4184.94L2816.66,4185.24L2816.14,4185.54L2815.61,4185.83L2815.08,4186.12L2814.55,4186.41L2814.02,4186.69L2813.48,4186.98L2812.94,4187.25L2812.4,4187.53L2811.85,4187.8L2811.31,4188.07L2810.76,4188.33L2810.21,4188.59L2809.68,4188.84L2809.65,4188.85L2809.1,4189.1L2808.54,4189.35L2807.98,4189.59L2807.42,4189.83L2806.86,4190.07L2806.29,4190.3L2805.72,4190.52L2805.16,4190.75L2804.59,4190.97L2804.02,4191.18L2803.45,4191.39L2802.87,4191.6L2802.3,4191.8L2801.72,4191.99L2801.15,4192.19L2800.57,4192.37L2799.99,4192.56L2799.42,4192.73L2798.84,4192.9L2798.26,4193.07L2797.68,4193.23L2797.1,4193.39L2796.52,4193.55L2795.94,4193.69L2795.36,4193.83L2794.78,4193.97L2794.2,4194.1L2793.62,4194.22L2793.03,4194.34L2792.45,4194.46L2791.87,4194.56L2791.3,4194.67L2790.72,4194.76L2790.14,4194.85L2789.56,4194.94L2788.98,4195.01L2788.4,4195.08L2787.83,4195.15L2787.25,4195.2L2786.68,4195.26L2786.11,4195.3L2785.53,4195.34L2784.96,4195.37L2784.77,4195.38L2784.39,4195.4L2783.82,4195.41L2783.26,4195.42L2782.69,4195.43L2782.12,4195.42L2781.56,4195.41L2781,4195.39L2780.45,4195.36L2779.79,4195.33L2779.14,4195.28L2778.49,4195.23L2777.85,4195.18L2777.2,4195.13L2776.56,4195.07L2775.92,4195L2775.29,4194.93L2774.65,4194.86L2774.02,4194.78L2773.39,4194.7L2772.77,4194.61L2772.14,4194.52L2771.52,4194.43L2770.91,4194.34L2770.29,4194.24L2769.68,4194.13L2769.07,4194.03L2768.46,4193.92L2767.86,4193.8L2767.25,4193.69L2766.66,4193.57L2766.06,4193.44L2765.47,4193.32L2764.88,4193.19L2764.29,4193.06L2763.7,4192.92L2763.12,4192.79L2762.54,4192.65L2761.97,4192.5L2761.4,4192.36L2760.83,4192.21L2760.26,4192.06L2759.84,4191.95L2759.7,4191.91L2759.14,4191.76L2758.58,4191.61L2758.03,4191.45L2757.48,4191.3L2756.93,4191.14L2756.39,4190.97L2755.84,4190.81L2755.31,4190.65L2754.77,4190.48L2754.24,4190.31L2753.19,4189.97L2752.16,4189.62L2751.13,4189.27L2750.32,4188.98L2750.12,4188.92L2749.13,4188.57L2748.14,4188.21L2747.18,4187.86L2746.22,4187.5L2745.29,4187.13L2744.37,4186.77L2743.68,4186.49L2743.46,4186.41L2742.56,4186.07L2741.68,4185.74L2740.81,4185.4L2739.96,4185.06L2739.13,4184.72L2738.31,4184.39L2737.51,4184.05L2736.74,4183.72L2735.97,4183.4L2735.23,4183.07L2734.51,4182.75L2733.81,4182.44L2733.12,4182.13L2732.46,4181.83L2731.81,4181.53L2730.59,4180.96L2729.45,4180.43L2727.43,4179.47L2727.02,4179.28L2726.57,4179.07L2725.8,4178.72L2725.47,4178.57L2725.16,4178.44L2724.88,4178.32L2724.62,4178.21L2724.06,4177.9L2723.56,4177.51L2723.14,4177.04L2722.79,4176.5L2722.53,4175.92L2722.37,4175.31L2722.32,4174.67L2722.36,4174.04L2722.51,4173.42L2722.75,4172.83L2723.09,4172.29L2723.51,4171.81L2724,4171.41L2724.38,4171.13L2724.76,4170.85L2725.14,4170.57L2725.53,4170.29L2725.91,4170.02L2726.3,4169.74L2726.69,4169.48L2727.07,4169.22L2727.46,4168.96L2727.85,4168.7L2728.24,4168.45L2728.63,4168.2L2729.02,4167.95L2729.41,4167.71L2729.8,4167.48L2730.2,4167.24L2730.59,4167.01L2730.99,4166.78L2731.38,4166.56L2731.78,4166.34L2732.18,4166.12L2732.58,4165.9L2732.98,4165.69L2733.38,4165.48L2733.78,4165.28L2734.18,4165.08L2734.59,4164.88L2734.99,4164.69L2735.4,4164.49L2735.8,4164.31L2736.21,4164.12L2736.62,4163.94L2737.03,4163.76L2737.44,4163.59L2737.86,4163.41L2738.27,4163.24L2738.68,4163.08L2739.1,4162.91L2739.52,4162.75L2739.94,4162.6L2740.36,4162.44L2740.78,4162.29L2741.2,4162.14L2741.63,4161.99L2742.05,4161.85L2742.48,4161.71L2742.91,4161.58L2743.34,4161.44L2743.77,4161.31L2744.2,4161.18L2744.63,4161.06L2745.07,4160.93L2745.51,4160.81L2745.95,4160.69L2746.34,4160.59L2746.38,4160.58L2746.83,4160.47L2747.27,4160.36L2747.71,4160.25L2748.16,4160.14L2748.61,4160.04L2749.05,4159.94L2749.51,4159.84L2749.96,4159.74L2750.41,4159.65L2750.87,4159.56L2751.33,4159.47L2752.25,4159.3L2753.17,4159.14L2754.11,4158.98L2755.05,4158.84L2756,4158.7L2756.96,4158.57L2757.93,4158.45L2758.9,4158.33L2759.89,4158.23L2760.88,4158.13L2761.88,4158.03L2762.89,4157.94L2763.91,4157.86L2764.94,4157.79L2765.98,4157.72L2767.03,4157.65L2768.1,4157.59L2769.17,4157.54L2770.25,4157.49L2771.35,4157.44L2772.45,4157.4L2772.49,4157.4L2773.57,4157.37L2774.7,4157.35L2775.85,4157.32L2777,4157.31L2778.17,4157.29L2779.35,4157.28L2780.55,4157.27L2781.76,4157.27L2784.18,4157.26L2784.5,4157.25L2784.78,4157.24L2785.07,4157.22L2785.37,4157.19L2785.66,4157.16L2785.97,4157.12L2786.27,4157.08L2786.58,4157.02L2786.88,4156.97L2786.9,4156.97L2787.22,4156.94L2787.55,4156.91L2787.89,4156.87L2788.23,4156.82L2788.58,4156.77L2788.93,4156.71L2789.28,4156.65L2789.64,4156.57L2790.01,4156.49L2790.38,4156.41L2790.75,4156.31L2791.12,4156.21L2791.5,4156.11L2791.88,4156L2792.27,4155.88L2792.66,4155.75L2793.05,4155.62L2793.44,4155.49L2793.84,4155.34L2794.24,4155.19L2794.64,4155.04L2795.04,4154.88L2795.44,4154.71L2795.85,4154.54L2796.26,4154.36L2796.66,4154.18L2797.08,4153.99L2797.49,4153.8L2797.9,4153.6L2798.31,4153.4L2798.72,4153.19L2799.14,4152.98L2799.55,4152.77L2799.78,4152.64L2799.97,4152.55L2800.39,4152.33L2800.81,4152.1L2801.23,4151.88L2801.65,4151.64L2802.07,4151.41L2802.48,4151.17L2802.9,4150.93L2803.32,4150.68L2803.74,4150.43L2804.15,4150.18L2804.57,4149.92L2804.98,4149.66L2805.39,4149.4L2805.8,4149.13L2806.21,4148.86L2806.62,4148.59L2807.03,4148.32L2807.43,4148.04L2807.83,4147.76L2808.24,4147.48L2808.63,4147.2L2809.03,4146.92L2809.42,4146.63L2809.82,4146.34L2810.21,4146.05L2810.59,4145.76L2810.98,4145.47L2811.21,4145.3L2811.37,4145.19L2811.76,4144.91L2812.16,4144.64L2812.55,4144.36L2812.93,4144.08L2813.32,4143.81L2813.7,4143.53L2814.08,4143.25L2814.45,4142.97L2814.82,4142.69L2815.18,4142.41L2815.55,4142.13L2816.26,4141.57L2816.96,4141.01L2817.64,4140.45L2818.3,4139.9L2818.94,4139.35L2819.56,4138.8L2820.16,4138.27L2820.74,4137.73L2821.3,4137.21L2821.57,4136.95L2821.84,4136.7L2822.09,4136.44L2822.35,4136.19L2822.59,4135.95L2822.83,4135.7L2823.07,4135.46L2823.29,4135.22L2823.51,4134.99L2823.72,4134.76L2823.93,4134.53L2824.13,4134.3L2824.32,4134.08L2824.51,4133.87L2824.69,4133.66L2824.86,4133.45L2825.02,4133.25L2825.18,4133.05L2825.32,4132.86L2825.46,4132.67L2825.6,4132.49L2825.72,4132.32L2825.84,4132.15L2825.94,4131.99L2826.04,4131.83L2826.13,4131.68L2826.22,4131.54L2826.3,4131.39L2828.34,4130.43L2829.27,4132.49L2829.22,4132.7L2829.15,4132.93L2829.08,4133.16L2829,4133.4L2828.92,4133.64L2828.83,4133.89L2828.73,4134.14L2828.63,4134.4L2828.52,4134.66L2828.41,4134.93L2828.29,4135.2L2828.16,4135.47L2828.03,4135.76L2827.89,4136.04L2827.75,4136.33L2827.6,4136.63L2827.44,4136.93L2827.28,4137.23L2827.12,4137.54L2826.94,4137.86L2826.77,4138.17L2826.58,4138.49L2826.39,4138.82L2826.2,4139.15L2826,4139.48L2825.8,4139.82L2825.59,4140.16L2825.37,4140.51L2824.92,4141.21L2824.46,4141.92L2823.97,4142.64L2823.47,4143.38L2822.94,4144.13L2822.4,4144.88L2821.84,4145.64L2821.26,4146.41L2820.66,4147.19L2820.36,4147.58L2820.05,4147.97L2819.73,4148.37L2819.41,4148.76L2819.09,4149.15L2818.77,4149.55L2818.44,4149.94L2818.1,4150.34L2817.77,4150.74L2817.42,4151.14L2817.08,4151.53L2816.94,4151.69L2816.72,4151.92L2816.35,4152.3L2815.97,4152.67L2815.6,4153.05L2815.22,4153.42L2814.83,4153.8L2814.44,4154.17L2814.05,4154.54L2813.66,4154.91L2813.26,4155.28L2812.86,4155.65L2812.46,4156.02L2812.05,4156.39L2811.64,4156.75L2811.23,4157.11L2810.81,4157.47L2810.39,4157.83L2809.97,4158.18L2809.54,4158.54L2809.12,4158.89L2808.69,4159.23L2808.25,4159.58L2807.82,4159.92L2807.38,4160.26L2806.94,4160.6L2806.49,4160.93L2806.05,4161.26L2805.6,4161.58L2805.4,4161.73L2805.14,4161.9L2804.69,4162.22L2804.23,4162.52L2803.76,4162.83L2803.3,4163.13L2802.83,4163.42L2802.36,4163.72L2801.89,4164L2801.41,4164.28L2800.94,4164.56L2800.46,4164.83L2799.98,4165.1L2799.49,4165.36L2799.01,4165.62L2798.52,4165.87L2798.03,4166.12L2797.53,4166.36L2797.04,4166.59L2796.54,4166.82L2796.04,4167.04L2795.54,4167.25L2795.03,4167.46L2794.53,4167.66L2794.01,4167.86L2793.5,4168.05L2792.99,4168.22L2792.47,4168.4L2791.95,4168.56L2791.43,4168.72L2790.9,4168.86L2790.37,4169L2789.84,4169.13L2789.31,4169.25L2788.77,4169.36L2788.73,4169.37L2788.23,4169.43L2787.68,4169.48L2787.14,4169.53L2786.59,4169.56L2786.04,4169.58L2785.49,4169.6L2784.95,4169.6L2784.39,4169.58L2783.88,4169.56L2781.43,4169.41L2780.25,4169.35L2779.09,4169.28L2777.94,4169.22L2776.8,4169.17L2775.69,4169.11L2774.59,4169.07L2773.5,4169.02L2772.45,4168.98L2772.42,4168.98L2771.37,4168.94L2770.32,4168.9L2769.29,4168.87L2768.28,4168.84L2767.27,4168.82L2766.28,4168.81L2765.3,4168.8L2764.34,4168.79L2763.39,4168.79L2762.45,4168.8L2761.52,4168.82L2760.61,4168.84L2759.7,4168.87L2758.81,4168.9L2757.93,4168.94L2757.06,4168.99L2756.19,4169.05L2755.34,4169.11L2754.5,4169.19L2753.67,4169.27L2752.84,4169.35L2752.44,4169.4L2752.03,4169.45L2751.63,4169.5L2751.23,4169.55L2750.83,4169.61L2750.43,4169.66L2750.03,4169.72L2749.64,4169.78L2749.25,4169.85L2748.86,4169.91L2748.47,4169.98L2748.43,4169.99L2748.08,4170.05L2747.7,4170.12L2747.31,4170.2L2746.93,4170.28L2746.55,4170.36L2746.17,4170.44L2745.79,4170.52L2745.42,4170.61L2745.04,4170.7L2744.67,4170.79L2744.3,4170.88L2743.93,4170.98L2743.56,4171.08L2743.19,4171.18L2742.82,4171.28L2742.46,4171.39L2742.09,4171.5L2741.73,4171.61L2741.37,4171.73L2741,4171.84L2740.64,4171.96L2740.28,4172.09L2739.92,4172.21L2739.56,4172.34L2739.2,4172.47L2738.84,4172.6L2738.49,4172.74L2738.13,4172.88L2737.77,4173.02L2737.41,4173.17L2737.06,4173.32L2736.7,4173.47L2736.35,4173.62L2735.99,4173.78L2735.64,4173.94L2735.28,4174.1L2734.93,4174.27L2734.57,4174.44L2734.35,4174.55L2735.08,4174.94L2735.68,4175.26L2736.31,4175.59L2736.95,4175.93L2737.61,4176.27L2738.28,4176.61L2738.98,4176.96L2739.69,4177.31L2740.41,4177.67L2741.16,4178.03L2741.91,4178.4L2742.69,4178.76L2743.48,4179.13L2744.29,4179.5L2745.11,4179.87L2745.95,4180.24L2746.16,4180.33L2746.81,4180.59L2747.69,4180.93L2748.58,4181.27L2749.49,4181.61L2750.41,4181.94L2751.35,4182.27L2752.29,4182.6L2752.48,4182.66L2753.26,4182.92L2754.23,4183.22L2755.22,4183.52L2756.23,4183.82L2756.73,4183.97L2757.24,4184.11L2757.75,4184.25L2758.26,4184.39L2758.78,4184.53L2759.3,4184.66L2759.82,4184.8L2760.34,4184.93L2760.87,4185.06L2761.4,4185.19L2761.54,4185.22L2761.93,4185.31L2762.47,4185.43L2763.01,4185.55L2763.55,4185.66L2764.09,4185.78L2764.64,4185.89L2765.18,4185.99L2765.73,4186.1L2766.28,4186.2L2766.84,4186.3L2767.4,4186.39L2767.96,4186.49L2768.52,4186.58L2769.08,4186.66L2769.64,4186.75L2770.21,4186.83L2770.78,4186.9L2771.35,4186.98L2771.93,4187.05L2772.5,4187.12L2773.08,4187.18L2773.66,4187.24L2774.24,4187.3L2774.82,4187.35L2775.4,4187.4L2775.99,4187.44L2776.58,4187.48L2777.17,4187.52L2777.76,4187.56L2778.35,4187.58L2778.94,4187.61L2779.54,4187.63L2780.13,4187.65L2780.72,4187.66L2781.18,4187.66L2781.64,4187.66L2782.1,4187.65L2782.56,4187.64L2783.02,4187.62L2783.49,4187.59L2783.96,4187.56L2784.28,4187.53L2784.43,4187.52L2784.91,4187.47L2785.39,4187.42L2785.87,4187.36L2786.35,4187.3L2786.83,4187.23L2787.32,4187.16L2787.81,4187.07L2788.3,4186.99L2788.79,4186.9L2789.28,4186.8L2789.78,4186.7L2790.28,4186.59L2790.77,4186.47L2791.27,4186.36L2791.77,4186.23L2792.27,4186.1L2792.78,4185.97L2793.28,4185.82L2793.78,4185.68L2794.29,4185.53L2794.79,4185.38L2795.3,4185.22L2795.8,4185.05L2796.31,4184.88L2796.82,4184.71L2797.32,4184.53L2797.83,4184.35L2798.33,4184.16L2798.84,4183.97L2799.34,4183.77L2799.85,4183.57L2800.35,4183.36L2800.85,4183.15L2801.36,4182.94L2801.86,4182.73L2802.36,4182.51L2802.86,4182.28L2803.36,4182.05L2803.85,4181.82L2804.35,4181.58L2804.84,4181.34L2805.33,4181.1L2805.83,4180.86L2805.85,4180.84L2806.32,4180.61L2806.8,4180.36L2807.29,4180.1L2807.77,4179.85L2808.26,4179.59L2808.74,4179.32L2809.21,4179.06L2809.69,4178.79L2810.16,4178.52L2810.63,4178.25L2811.1,4177.97L2811.57,4177.69L2812.03,4177.41L2812.49,4177.12L2812.94,4176.84L2813.39,4176.55L2813.84,4176.26L2814.29,4175.97L2814.73,4175.67L2815.17,4175.38L2815.6,4175.08L2816.04,4174.78L2816.46,4174.48L2816.89,4174.17L2817.31,4173.87L2817.72,4173.56L2818.13,4173.25L2818.54,4172.94L2818.94,4172.64L2819.34,4172.32L2819.6,4172.12L2819.73,4172.02L2820.13,4171.71L2820.51,4171.4L2820.9,4171.1L2821.28,4170.79L2821.65,4170.48L2822.02,4170.17L2822.39,4169.86L2822.74,4169.55L2823.1,4169.24L2823.44,4168.93L2823.78,4168.62L2824.12,4168.31L2824.45,4168L2824.77,4167.69L2825.09,4167.38L2825.4,4167.07L2825.71,4166.76L2826.01,4166.45L2826.3,4166.14L2826.59,4165.84L2826.87,4165.53L2827.14,4165.23L2827.4,4164.93L2827.66,4164.62L2827.91,4164.32L2828.16,4164.03L2828.4,4163.73L2828.63,4163.44L2828.85,4163.14L2829.06,4162.85L2829.27,4162.57L2829.47,4162.28L2829.66,4162L2829.85,4161.72L2830.02,4161.44L2830.19,4161.17L2830.35,4160.9L2830.51,4160.64L2830.65,4160.38L2830.79,4160.12L2830.92,4159.87L2831.04,4159.62L2831.15,4159.38L2831.26,4159.14L2831.35,4158.91L2831.45,4158.67L2831.52,4158.48L2831.66,4158.1L2831.89,4157.49L2832.11,4156.86L2832.34,4156.22L2832.56,4155.56L2832.79,4154.87L2833.02,4154.17L2833.26,4153.45L2833.74,4151.96L2834.23,4150.41L2834.74,4148.8L2835.26,4147.13L2835.81,4145.41L2836.1,4144.53L2836.39,4143.64L2836.69,4142.73L2836.99,4141.82L2837.3,4140.9L2837.62,4139.96L2837.95,4139.02L2838.29,4138.06L2838.64,4137.1L2839,4136.12L2839.36,4135.14L2839.74,4134.15L2840.13,4133.15L2840.53,4132.15L2840.94,4131.14L2841.21,4130.49L2841.36,4130.12L2841.8,4129.09L2842.24,4128.07L2842.47,4127.55L2842.7,4127.03L2842.94,4126.51L2843.18,4125.99L2843.42,4125.46L2843.67,4124.94L2843.92,4124.42L2844.17,4123.89L2844.43,4123.36L2844.69,4122.84L2844.95,4122.31L2845.22,4121.78L2845.49,4121.25L2845.77,4120.72L2846.05,4120.19L2846.33,4119.65L2846.62,4119.12L2846.91,4118.59L2847.21,4118.06L2847.51,4117.52L2847.81,4116.99L2848.12,4116.45L2848.43,4115.92L2848.75,4115.38L2849.08,4114.85L2849.4,4114.31L2849.73,4113.77L2850.07,4113.24L2850.41,4112.7L2850.76,4112.16L2851.02,4111.76L2850.97,4111.77L2850.45,4111.9L2849.91,4112.03L2849.39,4112.15L2848.85,4112.27L2848.32,4112.38L2847.79,4112.49L2847.25,4112.59L2846.72,4112.7L2846.18,4112.79L2845.64,4112.89L2845.1,4112.98L2844.81,4113.03L2844.57,4113.07L2844.03,4113.16L2843.49,4113.25L2842.95,4113.33L2842.41,4113.41L2841.88,4113.49L2841.34,4113.57L2840.8,4113.64L2840.26,4113.71L2839.72,4113.77L2838.65,4113.9L2837.58,4114.02L2836.51,4114.12L2835.44,4114.22L2834.38,4114.31L2833.33,4114.4L2832.28,4114.47L2831.24,4114.54L2830.2,4114.61L2829.18,4114.67L2828.53,4114.7L2828.16,4114.72L2827.15,4114.77L2826.16,4114.82L2824.21,4114.9L2822.31,4114.97L2820.47,4115.05L2818.7,4115.12L2817.85,4115.16L2817.01,4115.2L2816.2,4115.24L2815.41,4115.29L2814.64,4115.34L2813.9,4115.39L2813.19,4115.44L2812.51,4115.51L2811.85,4115.57L2811.22,4115.64L2810.93,4115.68L2810.64,4115.72L2810.35,4115.76L2810.08,4115.8L2809.82,4115.84L2809.57,4115.88L2809.32,4115.93L2809.09,4115.97L2808.87,4116.02L2808.66,4116.06L2808.46,4116.11L2808.28,4116.15L2808.1,4116.2L2807.93,4116.25L2807.76,4116.3L2807.6,4116.36L2807.43,4116.41L2807.27,4116.47L2807.11,4116.53L2806.96,4116.59L2806.8,4116.65L2806.65,4116.72L2806.5,4116.79L2806.35,4116.86L2806.21,4116.93L2806.13,4116.97L2806.06,4117L2805.91,4117.06L2805.76,4117.13L2805.61,4117.2L2805.46,4117.27L2805.32,4117.35L2805.17,4117.42L2805.02,4117.5L2804.88,4117.58L2804.73,4117.67L2804.58,4117.75L2804.43,4117.84L2804.29,4117.93L2804.14,4118.03L2803.99,4118.12L2803.85,4118.23L2803.7,4118.33L2803.55,4118.43L2803.4,4118.54L2803.26,4118.65L2803.11,4118.76L2802.96,4118.88L2802.82,4118.99L2802.5,4119.25L2802.2,4119.5L2801.89,4119.77L2801.59,4120.05L2801.27,4120.34L2800.96,4120.64L2800.64,4120.95L2800.32,4121.27L2800,4121.6L2799.67,4121.94L2799.34,4122.29L2799.01,4122.64L2798.33,4123.38L2797.63,4124.14L2797.52,4124.26L2796.9,4124.93L2796.16,4125.73L2795.77,4126.14L2795.38,4126.56L2794.98,4126.97L2794.58,4127.39L2794.16,4127.81L2793.74,4128.24L2793.31,4128.66L2792.87,4129.09L2792.41,4129.51L2791.95,4129.93L2791.48,4130.36L2790.99,4130.78L2790.49,4131.19L2789.99,4131.6L2789.72,4131.81L2789.46,4132.02L2789.19,4132.22L2788.92,4132.42L2788.65,4132.62L2788.37,4132.82L2788.09,4133.01L2787.81,4133.21L2787.52,4133.4L2787.23,4133.59L2786.94,4133.78L2786.64,4133.97L2786.34,4134.15L2786.03,4134.33L2785.72,4134.51L2785.41,4134.69L2785.09,4134.86L2784.77,4135.03L2784.44,4135.2L2784.11,4135.36L2783.78,4135.52L2783.45,4135.68L2783.1,4135.83L2782.75,4135.99L2782.48,4136.1L2782.21,4136.21L2781.93,4136.32L2781.65,4136.41L2781.37,4136.51L2781.1,4136.6L2780.82,4136.68L2780.54,4136.76L2780.26,4136.84L2779.98,4136.91L2779.71,4136.97L2779.43,4137.03L2779.16,4137.09L2778.88,4137.14L2778.61,4137.19L2778.33,4137.23L2778.06,4137.27L2777.77,4137.31L2777.25,4137.37L2776.71,4137.41L2776.18,4137.45L2775.65,4137.47L2775.12,4137.48L2774.6,4137.48L2774.08,4137.48L2773.63,4137.47L2773.56,4137.46L2773.05,4137.44L2772.54,4137.41L2772.03,4137.37L2771.53,4137.33L2771.03,4137.28L2770.53,4137.23L2770.03,4137.17L2769.53,4137.11L2769.03,4137.04L2768.06,4136.91L2767.07,4136.77L2766.09,4136.62L2765.11,4136.47L2764.13,4136.32L2763.15,4136.18L2762.16,4136.04L2761.68,4135.98L2761.18,4135.92L2760.69,4135.86L2760.2,4135.8L2759.71,4135.75L2759.21,4135.7L2758.72,4135.66L2758.22,4135.62L2757.72,4135.58L2757.22,4135.55L2756.72,4135.53L2756.22,4135.51L2755.72,4135.49L2755.22,4135.49L2754.72,4135.48L2754.21,4135.49L2753.7,4135.5L2753.2,4135.52L2752.68,4135.55L2752.25,4135.57L2752.17,4135.58L2751.66,4135.62L2751.13,4135.67L2750.88,4135.69L2750.62,4135.72L2750.36,4135.75L2750.12,4135.78L2750.03,4135.79L2750.14,4135.77L2750.1,4135.78L2750.03,4135.79L2749.97,4135.8L2749.89,4135.82L2749.81,4135.84L2749.71,4135.87L2749.6,4135.91L2749.47,4135.95L2749.33,4136.01L2749.18,4136.08L2749.02,4136.15L2748.85,4136.24L2748.67,4136.34L2748.47,4136.44L2748.28,4136.56L2748.07,4136.68L2747.85,4136.82L2747.63,4136.96L2747.39,4137.12L2747.16,4137.28L2746.91,4137.45L2746.66,4137.64L2746.4,4137.82L2746.14,4138.02L2745.87,4138.23L2745.6,4138.44L2745.32,4138.66L2745.03,4138.89L2744.93,4138.98L2744.74,4139.12L2744.43,4139.34L2743.79,4139.82L2743.14,4140.32L2742.47,4140.84L2741.79,4141.38L2741.09,4141.94L2739.62,4143.11L2738.11,4144.34L2737.33,4144.97L2736.53,4145.6L2735.72,4146.25L2734.9,4146.9L2734.06,4147.55L2733.21,4148.2L2732.35,4148.85L2731.9,4149.18L2731.46,4149.51L2731.02,4149.83L2730.57,4150.16L2730.11,4150.48L2729.66,4150.8L2729.2,4151.12L2728.74,4151.44L2728.27,4151.75L2727.8,4152.07L2727.33,4152.38L2726.85,4152.69L2726.37,4152.99L2725.89,4153.29L2725.4,4153.59L2724.91,4153.89L2724.41,4154.18L2723.91,4154.47L2723.41,4154.75L2722.91,4155.03L2722.59,4155.2L2722.4,4155.31L2721.89,4155.57L2721.37,4155.83L2720.85,4156.09L2720.32,4156.34L2719.8,4156.59L2719.26,4156.82L2718.73,4157.06L2718.19,4157.28L2717.65,4157.51L2717.11,4157.72L2716.56,4157.93L2716.01,4158.12L2715.46,4158.32L2714.9,4158.5L2714.34,4158.68L2713.78,4158.84L2713.21,4159L2712.64,4159.16L2712.07,4159.3L2711.49,4159.43L2710.91,4159.56L2710.33,4159.67L2709.75,4159.78L2709.16,4159.87L2708.57,4159.96L2707.99,4160.03L2707.68,4160.07L2707.38,4160.1L2707.09,4160.13L2706.79,4160.15L2706.49,4160.18L2706.19,4160.2L2705.89,4160.21L2705.59,4160.23L2705.28,4160.24L2704.98,4160.25L2704.68,4160.26L2704.37,4160.26L2704.07,4160.26L2703.76,4160.26L2703.46,4160.26L2703.15,4160.25L2702.85,4160.24L2702.54,4160.22L2702.23,4160.2L2701.93,4160.19L2701.62,4160.16L2701.31,4160.14L2701,4160.11L2700.69,4160.07L2700.38,4160.04L2700.07,4160L2699.76,4159.96L2699.45,4159.91L2699.14,4159.86L2698.82,4159.81L2698.51,4159.76L2698.2,4159.7L2697.89,4159.64L2697.57,4159.58L2697.26,4159.51L2696.94,4159.44L2696.76,4159.39L2696.63,4159.36L2696.32,4159.28L2695.02,4157.46L2696.84,4156.16L2697.14,4156.19L2697.26,4156.19L2697.43,4156.2L2697.72,4156.22L2698.01,4156.24L2698.3,4156.25L2698.58,4156.26L2698.87,4156.26L2699.15,4156.27L2699.43,4156.27L2699.71,4156.26L2699.99,4156.26L2700.27,4156.25L2700.54,4156.24L2700.82,4156.23L2701.09,4156.21L2701.36,4156.19L2701.63,4156.17L2701.9,4156.15L2702.17,4156.12L2702.44,4156.09L2702.7,4156.06L2702.97,4156.03L2703.23,4155.99L2703.49,4155.95L2703.75,4155.91L2704.01,4155.87L2704.27,4155.82L2704.53,4155.77L2704.78,4155.72L2705.03,4155.67L2705.29,4155.62L2705.54,4155.56L2705.79,4155.5L2706.04,4155.44L2706.29,4155.38L2706.54,4155.31L2706.78,4155.24L2707.03,4155.18L2707.52,4155.03L2708,4154.88L2708.48,4154.71L2708.96,4154.55L2709.43,4154.37L2709.9,4154.18L2710.36,4153.99L2710.82,4153.79L2711.28,4153.59L2711.73,4153.38L2712.18,4153.16L2712.63,4152.93L2713.07,4152.7L2713.51,4152.46L2713.95,4152.22L2714.38,4151.97L2714.81,4151.71L2715.24,4151.45L2715.67,4151.18L2716.09,4150.91L2716.51,4150.63L2716.92,4150.35L2717.33,4150.06L2717.74,4149.77L2718.15,4149.47L2718.56,4149.17L2718.71,4149.05L2718.96,4148.86L2719.36,4148.56L2719.76,4148.24L2720.16,4147.93L2720.55,4147.61L2720.94,4147.29L2721.33,4146.96L2721.72,4146.63L2722.1,4146.3L2722.48,4145.97L2722.86,4145.63L2723.24,4145.29L2723.61,4144.94L2723.98,4144.6L2724.35,4144.25L2724.72,4143.9L2725.09,4143.55L2725.45,4143.19L2725.81,4142.84L2726.17,4142.48L2726.52,4142.13L2727.24,4141.4L2727.93,4140.68L2728.63,4139.96L2729.31,4139.23L2729.99,4138.51L2730.66,4137.79L2731.32,4137.07L2732.64,4135.64L2733.93,4134.25L2734.57,4133.56L2735.21,4132.89L2735.85,4132.22L2736.48,4131.57L2737.11,4130.93L2737.43,4130.61L2737.63,4130.42L2737.76,4130.31L2738.09,4130.02L2738.42,4129.73L2738.76,4129.45L2739.09,4129.17L2739.43,4128.9L2739.76,4128.63L2740.1,4128.36L2740.45,4128.1L2740.79,4127.84L2741.13,4127.59L2741.48,4127.35L2741.83,4127.11L2742.19,4126.87L2742.55,4126.64L2742.91,4126.42L2743.28,4126.2L2743.66,4125.99L2744.04,4125.79L2744.43,4125.59L2744.82,4125.41L2745.23,4125.23L2745.64,4125.06L2746.06,4124.9L2746.49,4124.76L2746.94,4124.62L2747.39,4124.5L2747.83,4124.41L2748.09,4124.36L2748.31,4124.32L2748.68,4124.25L2749.03,4124.2L2749.38,4124.15L2749.74,4124.09L2750.43,4124L2751.12,4123.92L2751.22,4123.91L2751.8,4123.86L2752.48,4123.8L2753.16,4123.76L2753.83,4123.73L2754.49,4123.7L2755.14,4123.68L2755.79,4123.67L2756.43,4123.67L2757.07,4123.68L2757.7,4123.69L2758.32,4123.71L2758.93,4123.74L2759.54,4123.77L2760.14,4123.81L2760.73,4123.85L2761.32,4123.89L2761.89,4123.94L2762.47,4123.99L2763.03,4124.05L2763.59,4124.11L2764.67,4124.22L2765.72,4124.35L2766.74,4124.47L2767.73,4124.59L2768.68,4124.71L2769.6,4124.81L2770.49,4124.91L2770.9,4124.95L2771.32,4124.99L2771.72,4125.02L2772.11,4125.05L2772.49,4125.08L2772.87,4125.1L2773.22,4125.12L2773.57,4125.13L2773.91,4125.13L2773.95,4125.13L2774.23,4125.14L2774.54,4125.13L2774.84,4125.12L2775.13,4125.11L2775.4,4125.09L2775.66,4125.07L2775.91,4125.04L2776.16,4125L2776.26,4124.99L2776.37,4124.97L2776.47,4124.95L2776.58,4124.93L2776.68,4124.91L2776.77,4124.89L2776.87,4124.86L2776.96,4124.84L2777.05,4124.81L2777.13,4124.79L2777.22,4124.76L2777.3,4124.73L2777.37,4124.7L2777.45,4124.68L2777.52,4124.65L2777.6,4124.62L2777.66,4124.59L2777.74,4124.55L2777.93,4124.46L2778.12,4124.37L2778.31,4124.28L2778.5,4124.18L2778.68,4124.08L2778.87,4123.98L2779.05,4123.88L2779.24,4123.77L2779.42,4123.66L2779.6,4123.55L2779.78,4123.44L2779.95,4123.33L2780.13,4123.21L2780.3,4123.09L2780.48,4122.97L2780.65,4122.85L2780.83,4122.73L2781,4122.6L2781.17,4122.47L2781.34,4122.34L2781.51,4122.21L2781.68,4122.07L2781.85,4121.93L2782.01,4121.8L2782.35,4121.51L2782.69,4121.21L2783.02,4120.91L2783.35,4120.6L2783.68,4120.28L2784.02,4119.96L2784.35,4119.62L2784.68,4119.28L2785.01,4118.93L2785.35,4118.58L2785.68,4118.21L2786.02,4117.85L2786.35,4117.47L2786.69,4117.09L2787.38,4116.31L2787.98,4115.63L2788.09,4115.52L2788.81,4114.71L2789.54,4113.9L2789.93,4113.49L2790.31,4113.07L2790.7,4112.66L2791.11,4112.24L2791.51,4111.82L2791.93,4111.41L2792.36,4110.99L2792.79,4110.58L2793.24,4110.17L2793.7,4109.76L2794.17,4109.35L2794.64,4108.96L2794.89,4108.75L2795.14,4108.55L2795.39,4108.36L2795.65,4108.16L2795.91,4107.97L2796.17,4107.78L2796.44,4107.59L2796.71,4107.4L2796.98,4107.22L2797.26,4107.03L2797.54,4106.85L2797.83,4106.67L2798.12,4106.5L2798.41,4106.33L2798.71,4106.16L2799.01,4105.99L2799.31,4105.83L2799.62,4105.67L2799.93,4105.51L2800.25,4105.36L2800.57,4105.21L2800.89,4105.07L2801.06,4105L2801.23,4104.93L2801.56,4104.81L2801.9,4104.69L2802.25,4104.57L2802.6,4104.46L2802.95,4104.35L2803.3,4104.25L2803.66,4104.16L2804.02,4104.07L2804.38,4103.98L2804.75,4103.9L2805.12,4103.82L2805.49,4103.76L2805.86,4103.69L2806.23,4103.64L2806.59,4103.59L2806.96,4103.54L2807.33,4103.5L2807.7,4103.46L2808.07,4103.43L2808.44,4103.4L2808.82,4103.37L2809.2,4103.35L2809.58,4103.33L2809.96,4103.31L2810.36,4103.3L2811.13,4103.28L2811.92,4103.27L2812.73,4103.27L2813.54,4103.27L2814.37,4103.28L2815.21,4103.3L2816.07,4103.32L2816.93,4103.35L2817.81,4103.38L2818.7,4103.42L2820.5,4103.5L2822.34,4103.58L2824.22,4103.67L2826.14,4103.75L2827.1,4103.79L2828.07,4103.82L2828.43,4103.84L2829.05,4103.86L2830.03,4103.89L2831.02,4103.92L2832.01,4103.94L2833,4103.96L2833.99,4103.98L2834.98,4103.98L2835.98,4103.98L2836.97,4103.97L2837.97,4103.96L2838.96,4103.93L2839.45,4103.91L2839.95,4103.9L2840.44,4103.88L2840.93,4103.85L2841.43,4103.83L2841.92,4103.8L2842.41,4103.77L2842.89,4103.74L2843.38,4103.7L2843.6,4103.68L2843.87,4103.66L2844.35,4103.61L2844.83,4103.56L2845.31,4103.51L2845.79,4103.45L2846.27,4103.39L2846.74,4103.33L2847.21,4103.26L2847.68,4103.19L2848.15,4103.12L2848.62,4103.05L2849.08,4102.97L2849.54,4102.88L2850,4102.8L2850.45,4102.71L2850.9,4102.61L2851.35,4102.52L2851.8,4102.42L2852.24,4102.31L2852.68,4102.2L2853.11,4102.09L2853.12,4102.09L2853.54,4101.96L2853.97,4101.82L2854.39,4101.69L2854.8,4101.55L2855.22,4101.4L2855.62,4101.25L2856.03,4101.1L2856.43,4100.94L2856.82,4100.77L2857.21,4100.61L2857.6,4100.44L2857.98,4100.26L2858.36,4100.09L2858.73,4099.9L2859.09,4099.72L2859.46,4099.53L2859.51,4099.5L2859.81,4099.33L2860.16,4099.13L2860.51,4098.92L2860.85,4098.71L2861.18,4098.49L2861.51,4098.28L2861.84,4098.05L2862.19,4097.8L2862.83,4097.43L2863.53,4097.17L2864.26,4097.03L2865.01,4097.02L2865.74,4097.14Z" style="fill:white;"/>
        </g>
    </g>
</svg>
