<?xml version="1.0" encoding="UTF-8" standalone="no"?>
<!DOCTYPE svg PUBLIC "-//W3C//DTD SVG 1.1//EN" "http://www.w3.org/Graphics/SVG/1.1/DTD/svg11.dtd">
<svg width="100%" height="100%" viewBox="0 0 177 102" version="1.1" xmlns="http://www.w3.org/2000/svg" xmlns:xlink="http://www.w3.org/1999/xlink" xml:space="preserve" xmlns:serif="http://www.serif.com/" style="fill-rule:evenodd;clip-rule:evenodd;stroke-linejoin:round;stroke-miterlimit:1.41421;">
    <g transform="matrix(0.960016,0,0,0.960016,-2581.26,-3929.84)">
        <path d="M2826.2,4131.37L2826.2,4131.36L2827.16,4130.44L2828.35,4130.34L2828.36,4130.34L2828.36,4130.34L2828.37,4130.35L2829.23,4131.19L2829.37,4132.51L2829.37,4132.52L2829.35,4132.62L2829.32,4132.73L2829.28,4132.85L2829.25,4132.97L2829.22,4133.09L2829.18,4133.2L2829.14,4133.32L2829.1,4133.44L2829.06,4133.57L2829.02,4133.69L2828.98,4133.82L2828.93,4133.94L2828.89,4134.07L2828.84,4134.19L2828.79,4134.32L2828.74,4134.45L2828.68,4134.59L2828.63,4134.72L2828.57,4134.85L2828.51,4134.99L2828.46,4135.12L2828.4,4135.26L2828.33,4135.4L2828.27,4135.54L2828.21,4135.68L2828.14,4135.83L2828,4136.11L2827.86,4136.41L2827.71,4136.7L2827.56,4137.01L2827.4,4137.31L2827.23,4137.62L2827.06,4137.94L2826.89,4138.26L2826.7,4138.59L2826.52,4138.91L2826.33,4139.25L2826.13,4139.58L2825.93,4139.92L2825.72,4140.27L2825.5,4140.61L2825.28,4140.97L2825.06,4141.32L2824.83,4141.68L2824.6,4142.04L2824.36,4142.4L2824.12,4142.77L2823.87,4143.14L2823.61,4143.51L2823.36,4143.89L2823.09,4144.26L2822.83,4144.64L2822.55,4145.02L2822.28,4145.41L2822,4145.8L2821.71,4146.18L2821.42,4146.57L2821.12,4146.96L2820.83,4147.36L2820.52,4147.75L2820.22,4148.15L2819.9,4148.54L2819.59,4148.94L2819.27,4149.34L2818.95,4149.74L2818.62,4150.14L2818.28,4150.54L2817.95,4150.94L2817.61,4151.34L2817.26,4151.74L2817.13,4151.9L2816.91,4152.13L2816.54,4152.51L2816.16,4152.89L2815.79,4153.27L2815.41,4153.65L2815.02,4154.02L2814.63,4154.4L2814.24,4154.77L2813.85,4155.15L2813.45,4155.52L2813.05,4155.89L2812.65,4156.26L2812.24,4156.63L2812.03,4156.81L2811.83,4157L2811.62,4157.18L2811.42,4157.36L2811.21,4157.54L2811,4157.73L2810.79,4157.9L2810.58,4158.09L2810.37,4158.27L2810.16,4158.44L2809.95,4158.62L2809.73,4158.8L2809.52,4158.98L2809.31,4159.15L2809.09,4159.33L2808.88,4159.5L2808.66,4159.68L2808.44,4159.85L2808.22,4160.03L2808.01,4160.2L2807.79,4160.37L2807.57,4160.54L2807.35,4160.71L2807.12,4160.88L2806.9,4161.05L2806.68,4161.22L2806.46,4161.38L2806.23,4161.55L2806.01,4161.71L2805.78,4161.88L2805.58,4162.02L2805.56,4162.04L2805.33,4162.2L2805.1,4162.36L2804.87,4162.52L2804.64,4162.67L2804.41,4162.83L2804.17,4162.98L2803.94,4163.14L2803.71,4163.29L2803.47,4163.44L2803.24,4163.59L2803.01,4163.74L2802.77,4163.89L2802.53,4164.03L2802.3,4164.18L2802.06,4164.32L2801.82,4164.47L2801.58,4164.61L2801.34,4164.75L2801.1,4164.89L2800.86,4165.03L2800.62,4165.16L2800.38,4165.3L2800.14,4165.44L2799.89,4165.57L2799.65,4165.7L2799.41,4165.83L2799.16,4165.96L2798.92,4166.09L2798.67,4166.22L2798.42,4166.34L2798.18,4166.46L2797.93,4166.59L2797.68,4166.71L2797.43,4166.83L2797.18,4166.94L2796.93,4167.06L2796.68,4167.18L2796.43,4167.29L2796.18,4167.4L2795.92,4167.51L2795.67,4167.62L2795.41,4167.72L2795.16,4167.83L2794.91,4167.93L2794.65,4168.03L2794.39,4168.13L2794.13,4168.23L2793.88,4168.33L2793.62,4168.42L2793.36,4168.51L2793.1,4168.6L2792.84,4168.69L2792.57,4168.78L2792.31,4168.86L2792.05,4168.95L2791.78,4169.03L2791.52,4169.11L2791.26,4169.18L2790.99,4169.26L2790.72,4169.33L2790.45,4169.4L2790.19,4169.47L2789.92,4169.53L2789.65,4169.59L2789.38,4169.65L2789.11,4169.71L2788.84,4169.77L2788.8,4169.78L2788.56,4169.81L2788.28,4169.84L2788.01,4169.86L2787.73,4169.89L2787.45,4169.91L2787.18,4169.93L2786.9,4169.95L2786.62,4169.97L2786.35,4169.98L2786.07,4169.99L2785.79,4169.99L2785.51,4170L2785.23,4170L2784.95,4170L2784.67,4169.99L2784.39,4169.98L2784.11,4169.98L2783.85,4169.96L2782.62,4169.88L2781.42,4169.81L2780.24,4169.74L2779.08,4169.67L2777.93,4169.61L2777.36,4169.58L2776.8,4169.55L2776.24,4169.52L2775.68,4169.5L2775.13,4169.47L2774.58,4169.45L2774.04,4169.43L2773.49,4169.4L2772.96,4169.38L2772.45,4169.36L2772.42,4169.36L2771.89,4169.34L2771.37,4169.32L2770.84,4169.29L2770.32,4169.27L2769.81,4169.26L2769.3,4169.24L2768.79,4169.22L2768.28,4169.21L2767.78,4169.2L2767.28,4169.19L2766.78,4169.18L2766.29,4169.17L2765.8,4169.16L2765.32,4169.15L2764.83,4169.15L2764.36,4169.15L2763.88,4169.15L2763.41,4169.15L2762.94,4169.15L2762.47,4169.15L2762.01,4169.16L2761.54,4169.17L2761.09,4169.17L2760.63,4169.19L2760.18,4169.2L2759.73,4169.21L2759.28,4169.23L2758.84,4169.24L2758.4,4169.26L2757.96,4169.28L2757.52,4169.31L2757.09,4169.33L2756.66,4169.36L2756.23,4169.38L2755.81,4169.41L2755.38,4169.44L2754.96,4169.48L2754.54,4169.51L2754.13,4169.55L2753.72,4169.59L2753.3,4169.63L2752.9,4169.68L2752.49,4169.72L2752.08,4169.77L2751.68,4169.82L2751.28,4169.87L2750.88,4169.92L2750.49,4169.98L2750.09,4170.04L2749.7,4170.1L2749.31,4170.16L2748.92,4170.22L2748.53,4170.29L2748.5,4170.3L2748.15,4170.36L2747.77,4170.43L2747.39,4170.5L2747.01,4170.58L2746.63,4170.66L2746.25,4170.74L2745.87,4170.82L2745.5,4170.9L2745.13,4170.99L2744.76,4171.08L2744.39,4171.17L2744.02,4171.27L2743.65,4171.37L2743.28,4171.47L2742.92,4171.57L2742.55,4171.67L2742.19,4171.78L2741.83,4171.89L2741.47,4172L2741.11,4172.12L2740.74,4172.24L2740.39,4172.36L2740.03,4172.48L2739.67,4172.61L2739.31,4172.74L2738.96,4172.87L2738.6,4173L2738.42,4173.07L2738.24,4173.14L2738.07,4173.21L2737.89,4173.28L2737.71,4173.35L2737.53,4173.42L2737.36,4173.5L2737.18,4173.57L2737,4173.65L2736.83,4173.72L2736.65,4173.8L2736.47,4173.87L2736.29,4173.95L2736.12,4174.03L2735.94,4174.11L2735.76,4174.19L2735.59,4174.27L2735.41,4174.35L2735.23,4174.43L2735.06,4174.51L2734.91,4174.58L2735.18,4174.73L2735.79,4175.05L2736.41,4175.38L2737.05,4175.71L2737.38,4175.88L2737.71,4176.05L2738.04,4176.23L2738.38,4176.4L2738.73,4176.57L2739.07,4176.75L2739.43,4176.93L2739.78,4177.11L2740.14,4177.28L2740.51,4177.46L2740.88,4177.65L2741.25,4177.83L2741.62,4178.01L2742.01,4178.19L2742.39,4178.38L2742.78,4178.56L2743.17,4178.74L2743.57,4178.93L2743.97,4179.11L2744.38,4179.3L2744.78,4179.48L2745.2,4179.67L2745.61,4179.86L2746.03,4180.04L2746.24,4180.13L2746.46,4180.22L2746.89,4180.39L2747.33,4180.56L2747.77,4180.73L2748.21,4180.9L2748.66,4181.07L2749.11,4181.24L2749.57,4181.41L2750.02,4181.57L2750.49,4181.74L2750.95,4181.9L2751.42,4182.07L2751.89,4182.23L2752.36,4182.4L2752.55,4182.46L2752.84,4182.55L2753.33,4182.71L2753.81,4182.86L2754.3,4183.02L2754.79,4183.16L2755.29,4183.32L2755.79,4183.46L2756.29,4183.61L2756.79,4183.75L2757.3,4183.9L2757.81,4184.04L2758.32,4184.18L2758.84,4184.31L2759.36,4184.45L2759.88,4184.58L2760.4,4184.71L2760.93,4184.84L2761.45,4184.97L2761.59,4185L2761.99,4185.09L2762.52,4185.21L2763.06,4185.33L2763.6,4185.44L2764.14,4185.55L2764.41,4185.61L2764.68,4185.66L2764.96,4185.71L2765.23,4185.77L2765.51,4185.82L2765.78,4185.87L2766.05,4185.92L2766.33,4185.97L2766.61,4186.02L2766.89,4186.07L2767.16,4186.12L2767.44,4186.16L2767.72,4186.21L2768,4186.26L2768.28,4186.3L2768.56,4186.34L2768.84,4186.39L2769.12,4186.43L2769.4,4186.47L2769.68,4186.51L2769.97,4186.55L2770.25,4186.59L2770.53,4186.63L2770.82,4186.67L2771.1,4186.71L2771.39,4186.74L2771.67,4186.78L2771.96,4186.81L2772.25,4186.85L2772.53,4186.88L2772.82,4186.91L2773.11,4186.94L2773.4,4186.97L2773.69,4187L2773.97,4187.03L2774.26,4187.06L2774.55,4187.08L2774.85,4187.11L2775.14,4187.13L2775.43,4187.15L2775.72,4187.18L2776.01,4187.2L2776.3,4187.22L2776.6,4187.24L2776.89,4187.26L2777.18,4187.27L2777.48,4187.29L2777.77,4187.31L2778.07,4187.32L2778.37,4187.34L2778.66,4187.35L2778.96,4187.36L2779.25,4187.37L2779.55,4187.38L2779.85,4187.39L2780.14,4187.4L2780.44,4187.4L2780.74,4187.41L2780.96,4187.41L2781.19,4187.41L2781.41,4187.41L2781.64,4187.41L2781.87,4187.4L2782.1,4187.4L2782.33,4187.39L2782.55,4187.38L2782.78,4187.38L2783.01,4187.36L2783.25,4187.35L2783.48,4187.34L2783.71,4187.32L2783.95,4187.3L2784.18,4187.28L2784.26,4187.28L2784.42,4187.26L2784.65,4187.24L2784.89,4187.22L2785.12,4187.19L2785.36,4187.16L2785.6,4187.14L2785.84,4187.11L2786.08,4187.07L2786.32,4187.04L2786.56,4187.01L2786.8,4186.97L2787.04,4186.94L2787.28,4186.9L2787.53,4186.86L2787.77,4186.82L2788.01,4186.77L2788.26,4186.73L2788.5,4186.68L2788.75,4186.64L2788.99,4186.59L2789.24,4186.54L2789.48,4186.49L2789.73,4186.44L2789.98,4186.38L2790.22,4186.33L2790.47,4186.27L2790.72,4186.21L2790.97,4186.15L2791.22,4186.09L2791.46,4186.03L2791.71,4185.97L2791.96,4185.9L2792.21,4185.84L2792.46,4185.77L2792.71,4185.7L2792.96,4185.64L2793.21,4185.56L2793.46,4185.49L2793.71,4185.42L2793.96,4185.35L2794.22,4185.27L2794.47,4185.19L2794.72,4185.11L2794.97,4185.03L2795.22,4184.95L2795.47,4184.87L2795.72,4184.79L2795.97,4184.7L2796.23,4184.62L2796.48,4184.53L2796.73,4184.45L2796.98,4184.36L2797.23,4184.27L2797.49,4184.18L2797.74,4184.08L2797.99,4183.99L2798.24,4183.9L2798.49,4183.8L2798.74,4183.7L2798.99,4183.61L2799.25,4183.51L2799.5,4183.41L2799.75,4183.31L2800,4183.2L2800.25,4183.1L2800.5,4183L2800.75,4182.89L2801,4182.79L2801.25,4182.68L2801.5,4182.57L2801.75,4182.46L2802,4182.35L2802.25,4182.24L2802.5,4182.13L2802.74,4182.02L2802.99,4181.9L2803.24,4181.79L2803.49,4181.68L2803.74,4181.56L2803.98,4181.44L2804.23,4181.32L2804.47,4181.2L2804.72,4181.08L2804.97,4180.96L2805.21,4180.84L2805.46,4180.72L2805.7,4180.59L2805.72,4180.58L2805.94,4180.47L2806.19,4180.35L2806.43,4180.22L2806.67,4180.1L2806.92,4179.97L2807.16,4179.84L2807.4,4179.72L2807.64,4179.59L2807.88,4179.46L2808.12,4179.33L2808.36,4179.2L2808.6,4179.07L2808.84,4178.93L2809.08,4178.8L2809.31,4178.67L2809.55,4178.53L2809.78,4178.4L2810.02,4178.26L2810.25,4178.13L2810.49,4177.99L2810.72,4177.85L2810.95,4177.71L2811.18,4177.57L2811.42,4177.43L2811.65,4177.29L2811.88,4177.15L2812.1,4177.01L2812.33,4176.87L2812.56,4176.73L2812.79,4176.58L2813.01,4176.44L2813.24,4176.3L2813.46,4176.15L2813.68,4176.01L2813.91,4175.86L2814.13,4175.72L2814.35,4175.57L2814.57,4175.42L2814.79,4175.27L2815,4175.12L2815.22,4174.98L2815.44,4174.83L2815.65,4174.68L2815.87,4174.53L2816.08,4174.38L2816.29,4174.23L2816.5,4174.08L2816.71,4173.92L2816.92,4173.77L2817.13,4173.62L2817.34,4173.47L2817.54,4173.32L2817.75,4173.16L2817.95,4173.01L2818.16,4172.85L2818.36,4172.7L2818.56,4172.55L2818.76,4172.39L2818.95,4172.24L2819.15,4172.08L2819.35,4171.93L2819.41,4171.87L2819.55,4171.77L2819.74,4171.62L2819.94,4171.47L2820.13,4171.32L2820.32,4171.16L2820.52,4171.01L2820.71,4170.86L2820.9,4170.7L2821.08,4170.55L2821.27,4170.4L2821.46,4170.24L2821.64,4170.09L2821.82,4169.94L2822.01,4169.78L2822.18,4169.63L2822.36,4169.47L2822.54,4169.32L2822.72,4169.17L2822.89,4169.01L2823.07,4168.86L2823.24,4168.7L2823.41,4168.55L2823.58,4168.39L2823.74,4168.24L2823.91,4168.09L2824.08,4167.93L2824.24,4167.78L2824.4,4167.62L2824.56,4167.47L2824.72,4167.31L2824.88,4167.16L2825.03,4167.01L2825.19,4166.85L2825.34,4166.7L2825.49,4166.55L2825.64,4166.39L2825.79,4166.24L2825.93,4166.09L2826.08,4165.94L2826.22,4165.78L2826.36,4165.63L2826.5,4165.48L2826.64,4165.33L2826.78,4165.18L2826.91,4165.03L2827.04,4164.88L2827.17,4164.73L2827.3,4164.58L2827.43,4164.43L2827.55,4164.28L2827.68,4164.13L2827.8,4163.98L2827.92,4163.83L2828.04,4163.69L2828.16,4163.54L2828.27,4163.4L2828.38,4163.25L2828.49,4163.1L2828.61,4162.96L2828.71,4162.82L2828.82,4162.67L2828.92,4162.53L2829.02,4162.39L2829.12,4162.25L2829.22,4162.11L2829.32,4161.97L2829.41,4161.83L2829.5,4161.69L2829.59,4161.55L2829.68,4161.42L2829.77,4161.28L2829.85,4161.15L2829.93,4161.01L2830.01,4160.88L2830.09,4160.75L2830.17,4160.62L2830.24,4160.49L2830.31,4160.36L2830.38,4160.23L2830.45,4160.11L2830.52,4159.98L2830.58,4159.86L2830.64,4159.73L2830.7,4159.61L2830.76,4159.49L2830.82,4159.37L2830.87,4159.25L2830.93,4159.14L2830.97,4159.02L2831.02,4158.91L2831.07,4158.8L2831.11,4158.68L2831.16,4158.57L2831.23,4158.38L2831.27,4158.29L2831.38,4157.99L2831.49,4157.69L2831.6,4157.39L2831.71,4157.08L2831.82,4156.77L2831.93,4156.45L2832.05,4156.12L2832.16,4155.79L2832.27,4155.46L2832.39,4155.12L2832.5,4154.78L2832.62,4154.43L2832.74,4154.08L2832.97,4153.36L2833.21,4152.62L2833.45,4151.87L2833.69,4151.11L2833.94,4150.32L2834.45,4148.71L2834.71,4147.88L2834.98,4147.04L2835.25,4146.19L2835.53,4145.32L2835.81,4144.44L2836.11,4143.55L2836.25,4143.1L2836.4,4142.64L2836.55,4142.19L2836.71,4141.73L2836.87,4141.27L2837.02,4140.8L2837.18,4140.34L2837.34,4139.86L2837.51,4139.39L2837.67,4138.92L2837.84,4138.44L2838.01,4137.96L2838.18,4137.48L2838.36,4137L2838.54,4136.51L2838.72,4136.02L2838.9,4135.53L2839.09,4135.04L2839.27,4134.54L2839.47,4134.05L2839.66,4133.55L2839.85,4133.05L2840.05,4132.54L2840.25,4132.04L2840.46,4131.53L2840.67,4131.03L2840.88,4130.52L2840.94,4130.37L2841.09,4130.01L2841.31,4129.49L2841.53,4128.98L2841.75,4128.46L2841.97,4127.95L2842.2,4127.43L2842.44,4126.91L2842.67,4126.39L2842.91,4125.86L2843.16,4125.34L2843.4,4124.82L2843.65,4124.29L2843.91,4123.77L2844.16,4123.24L2844.43,4122.71L2844.69,4122.18L2844.96,4121.65L2845.23,4121.12L2845.51,4120.59L2845.79,4120.06L2845.93,4119.79L2846.08,4119.52L2846.22,4119.25L2846.36,4118.98L2846.51,4118.72L2846.66,4118.45L2846.8,4118.18L2846.95,4117.92L2847.1,4117.65L2847.26,4117.38L2847.41,4117.11L2847.56,4116.85L2847.72,4116.58L2847.87,4116.31L2848.03,4116.04L2848.19,4115.77L2848.35,4115.5L2848.51,4115.23L2848.67,4114.97L2848.83,4114.7L2848.99,4114.43L2849.16,4114.16L2849.32,4113.89L2849.49,4113.62L2849.66,4113.36L2849.83,4113.09L2850,4112.82L2850.17,4112.55L2850.34,4112.28L2850.38,4112.22L2850.24,4112.26L2849.97,4112.32L2849.71,4112.38L2849.44,4112.44L2849.17,4112.5L2848.91,4112.56L2848.64,4112.62L2848.37,4112.67L2848.1,4112.73L2847.84,4112.78L2847.57,4112.84L2847.3,4112.89L2847.03,4112.94L2846.76,4113L2846.49,4113.05L2846.22,4113.1L2845.95,4113.14L2845.68,4113.19L2845.41,4113.24L2845.14,4113.28L2844.88,4113.33L2844.84,4113.34L2844.6,4113.38L2844.07,4113.47L2843.53,4113.56L2842.99,4113.64L2842.45,4113.73L2841.91,4113.81L2841.37,4113.88L2840.83,4113.95L2840.29,4114.03L2839.75,4114.1L2839.21,4114.16L2838.67,4114.22L2838.13,4114.28L2837.6,4114.34L2837.06,4114.4L2836.52,4114.45L2835.99,4114.51L2835.46,4114.56L2834.93,4114.6L2834.39,4114.65L2833.87,4114.69L2833.34,4114.74L2832.81,4114.78L2832.29,4114.82L2831.76,4114.86L2831.24,4114.89L2830.72,4114.93L2830.21,4114.96L2829.69,4114.99L2829.18,4115.02L2828.67,4115.05L2828.53,4115.06L2828.16,4115.08L2827.66,4115.11L2827.15,4115.13L2826.16,4115.18L2825.18,4115.22L2824.2,4115.26L2823.25,4115.31L2822.3,4115.35L2820.47,4115.42L2819.58,4115.46L2818.7,4115.5L2817.85,4115.54L2817.01,4115.58L2816.61,4115.61L2816.2,4115.63L2815.81,4115.65L2815.42,4115.68L2815.03,4115.7L2814.65,4115.73L2814.28,4115.76L2813.91,4115.78L2813.56,4115.81L2813.2,4115.84L2812.86,4115.87L2812.52,4115.9L2812.19,4115.94L2811.87,4115.97L2811.56,4116.01L2811.25,4116.04L2810.96,4116.08L2810.67,4116.12L2810.39,4116.16L2810.12,4116.2L2809.86,4116.24L2809.61,4116.29L2809.49,4116.31L2809.38,4116.33L2809.26,4116.35L2809.15,4116.38L2809.04,4116.4L2808.93,4116.42L2808.83,4116.44L2808.73,4116.47L2808.63,4116.49L2808.53,4116.51L2808.44,4116.54L2808.36,4116.56L2808.27,4116.58L2808.19,4116.61L2808.1,4116.63L2808.02,4116.66L2807.94,4116.68L2807.86,4116.71L2807.78,4116.73L2807.7,4116.76L2807.62,4116.79L2807.54,4116.82L2807.47,4116.84L2807.39,4116.87L2807.31,4116.9L2807.24,4116.93L2807.16,4116.96L2807.09,4116.99L2807.01,4117.02L2806.94,4117.05L2806.87,4117.08L2806.8,4117.12L2806.72,4117.15L2806.65,4117.18L2806.58,4117.22L2806.51,4117.25L2806.44,4117.29L2806.37,4117.32L2806.3,4117.36L2806.3,4117.36L2806.23,4117.39L2806.15,4117.42L2806.08,4117.45L2806.01,4117.48L2805.94,4117.51L2805.87,4117.55L2805.8,4117.58L2805.72,4117.61L2805.65,4117.65L2805.58,4117.68L2805.51,4117.72L2805.44,4117.76L2805.37,4117.79L2805.3,4117.83L2805.23,4117.87L2805.16,4117.91L2805.09,4117.95L2805.01,4117.99L2804.94,4118.03L2804.87,4118.07L2804.8,4118.11L2804.73,4118.16L2804.66,4118.2L2804.59,4118.24L2804.53,4118.28L2804.38,4118.38L2804.23,4118.48L2804.09,4118.57L2803.95,4118.67L2803.8,4118.77L2803.66,4118.88L2803.51,4118.99L2803.37,4119.1L2803.22,4119.21L2803.07,4119.33L2802.92,4119.45L2802.78,4119.57L2802.63,4119.69L2802.48,4119.82L2802.33,4119.95L2802.18,4120.08L2802.03,4120.22L2801.87,4120.36L2801.72,4120.5L2801.57,4120.65L2801.41,4120.79L2801.25,4120.94L2801.1,4121.09L2800.94,4121.25L2800.78,4121.4L2800.62,4121.56L2800.46,4121.73L2800.3,4121.89L2800.14,4122.06L2799.98,4122.23L2799.81,4122.4L2799.65,4122.57L2799.32,4122.93L2798.98,4123.29L2798.64,4123.66L2798.29,4124.04L2797.94,4124.42L2797.84,4124.54L2797.22,4125.21L2796.84,4125.61L2796.46,4126.01L2796.08,4126.43L2795.69,4126.84L2795.49,4127.05L2795.29,4127.26L2795.08,4127.47L2794.88,4127.68L2794.67,4127.89L2794.46,4128.1L2794.25,4128.32L2794.04,4128.53L2793.82,4128.74L2793.6,4128.95L2793.38,4129.17L2793.16,4129.38L2792.93,4129.6L2792.7,4129.81L2792.47,4130.02L2792.23,4130.24L2791.99,4130.45L2791.75,4130.66L2791.51,4130.88L2791.26,4131.09L2791.01,4131.3L2790.76,4131.51L2790.5,4131.72L2790.24,4131.93L2789.98,4132.13L2789.72,4132.34L2789.45,4132.55L2789.17,4132.75L2788.89,4132.95L2788.62,4133.15L2788.33,4133.35L2788.04,4133.55L2787.75,4133.74L2787.46,4133.93L2787.17,4134.12L2787.01,4134.22L2786.86,4134.31L2786.7,4134.41L2786.55,4134.5L2786.39,4134.59L2786.24,4134.68L2786.08,4134.77L2785.93,4134.86L2785.77,4134.95L2785.61,4135.04L2785.45,4135.13L2785.29,4135.22L2785.12,4135.3L2784.96,4135.39L2784.8,4135.47L2784.63,4135.56L2784.47,4135.64L2784.3,4135.72L2784.13,4135.81L2783.96,4135.89L2783.79,4135.97L2783.62,4136.05L2783.45,4136.12L2783.27,4136.2L2783.1,4136.28L2782.92,4136.36L2782.78,4136.41L2782.64,4136.47L2782.5,4136.53L2782.36,4136.59L2782.22,4136.64L2782.07,4136.69L2781.93,4136.75L2781.79,4136.8L2781.65,4136.85L2781.5,4136.89L2781.36,4136.94L2781.21,4136.99L2780.93,4137.07L2780.65,4137.15L2780.37,4137.23L2780.08,4137.3L2779.8,4137.37L2779.52,4137.43L2779.24,4137.48L2778.95,4137.54L2778.68,4137.59L2778.39,4137.63L2778.12,4137.67L2777.84,4137.71L2777.56,4137.74L2777.29,4137.77L2777.01,4137.79L2776.74,4137.82L2776.47,4137.84L2776.2,4137.85L2775.93,4137.86L2775.66,4137.87L2775.39,4137.88L2775.13,4137.89L2774.86,4137.89L2774.6,4137.89L2774.34,4137.89L2774.07,4137.88L2773.81,4137.87L2773.62,4137.87L2773.55,4137.86L2773.29,4137.85L2773.03,4137.84L2772.78,4137.82L2772.52,4137.81L2772.26,4137.79L2772.01,4137.77L2771.75,4137.75L2771.5,4137.73L2771.24,4137.7L2770.99,4137.68L2770.74,4137.65L2770.49,4137.62L2770.24,4137.59L2769.99,4137.57L2769.74,4137.53L2769.49,4137.5L2768.99,4137.44L2768.5,4137.37L2768,4137.3L2767.51,4137.23L2767.01,4137.16L2766.04,4137.01L2765.06,4136.86L2764.57,4136.79L2764.08,4136.71L2763.59,4136.64L2763.1,4136.57L2762.61,4136.5L2762.12,4136.43L2761.63,4136.37L2761.39,4136.34L2761.14,4136.31L2760.9,4136.28L2760.65,4136.25L2760.41,4136.22L2760.16,4136.19L2759.92,4136.16L2759.67,4136.14L2759.43,4136.11L2759.18,4136.09L2758.93,4136.07L2758.69,4136.05L2758.44,4136.02L2758.2,4136.01L2757.95,4135.99L2757.7,4135.97L2757.46,4135.95L2757.21,4135.94L2756.96,4135.93L2756.71,4135.91L2756.47,4135.9L2756.22,4135.89L2755.97,4135.89L2755.72,4135.88L2755.47,4135.87L2755.22,4135.87L2754.97,4135.87L2754.72,4135.87L2754.47,4135.87L2754.22,4135.87L2753.97,4135.88L2753.72,4135.88L2753.47,4135.89L2753.22,4135.9L2752.97,4135.91L2752.71,4135.93L2752.46,4135.94L2752.28,4135.95L2752.21,4135.96L2751.95,4135.98L2751.7,4136L2751.44,4136.02L2751.18,4136.04L2750.93,4136.07L2750.67,4136.1L2750.41,4136.13L2750.17,4136.16L2750.09,4136.17L2750.21,4136.15L2750.14,4136.16L2750.07,4136.17L2750.18,4136.14L2750.11,4136.16L2750.04,4136.17L2750.14,4136.15L2750.07,4136.16L2750.04,4136.17L2750.01,4136.18L2749.97,4136.18L2749.93,4136.19L2749.89,4136.2L2749.84,4136.22L2749.79,4136.24L2749.74,4136.25L2749.68,4136.27L2749.62,4136.3L2749.56,4136.32L2749.49,4136.35L2749.42,4136.38L2749.35,4136.41L2749.27,4136.45L2749.19,4136.48L2749.11,4136.52L2749.03,4136.57L2748.94,4136.61L2748.85,4136.66L2748.76,4136.71L2748.67,4136.76L2748.57,4136.82L2748.47,4136.87L2748.37,4136.93L2748.27,4136.99L2748.16,4137.06L2748.06,4137.13L2747.95,4137.2L2747.84,4137.27L2747.72,4137.34L2747.61,4137.42L2747.49,4137.5L2747.38,4137.58L2747.26,4137.66L2747.13,4137.75L2747.01,4137.84L2746.89,4137.93L2746.76,4138.02L2746.63,4138.11L2746.5,4138.21L2746.37,4138.31L2746.24,4138.41L2746.1,4138.52L2745.97,4138.62L2745.84,4138.72L2745.55,4138.95L2745.27,4139.17L2745.16,4139.26L2744.97,4139.4L2744.67,4139.62L2744.35,4139.85L2744.03,4140.09L2743.71,4140.33L2743.38,4140.58L2743.05,4140.84L2742.71,4141.1L2742.37,4141.36L2742.02,4141.63L2741.67,4141.91L2741.32,4142.19L2740.59,4142.77L2739.86,4143.36L2739.1,4143.96L2738.33,4144.57L2737.55,4145.2L2737.15,4145.52L2736.75,4145.83L2736.34,4146.15L2735.93,4146.47L2735.52,4146.8L2735.11,4147.12L2734.68,4147.44L2734.26,4147.77L2733.83,4148.1L2733.4,4148.42L2732.97,4148.75L2732.53,4149.07L2732.09,4149.4L2731.65,4149.72L2731.2,4150.05L2730.74,4150.37L2730.29,4150.69L2730.06,4150.85L2729.83,4151.01L2729.6,4151.17L2729.37,4151.33L2729.14,4151.49L2728.9,4151.65L2728.67,4151.81L2728.43,4151.96L2728.2,4152.12L2727.96,4152.28L2727.72,4152.43L2727.48,4152.59L2727.24,4152.74L2727,4152.89L2726.76,4153.05L2726.52,4153.2L2726.28,4153.35L2726.03,4153.5L2725.79,4153.65L2725.54,4153.8L2725.3,4153.95L2725.05,4154.09L2724.8,4154.24L2724.55,4154.38L2724.3,4154.53L2724.05,4154.67L2723.8,4154.81L2723.55,4154.95L2723.29,4155.09L2723.04,4155.23L2722.78,4155.37L2722.72,4155.4L2722.52,4155.51L2722.27,4155.64L2722.01,4155.77L2721.75,4155.9L2721.49,4156.03L2721.22,4156.16L2720.96,4156.29L2720.7,4156.41L2720.43,4156.54L2720.17,4156.66L2719.9,4156.78L2719.64,4156.9L2719.37,4157.02L2719.1,4157.13L2718.83,4157.25L2718.56,4157.36L2718.29,4157.48L2718.02,4157.59L2717.74,4157.69L2717.47,4157.8L2717.2,4157.91L2716.92,4158.01L2716.65,4158.11L2716.37,4158.21L2716.09,4158.31L2715.81,4158.4L2715.53,4158.5L2715.25,4158.59L2714.97,4158.68L2714.69,4158.77L2714.41,4158.86L2714.13,4158.94L2713.84,4159.02L2713.56,4159.1L2713.27,4159.18L2712.99,4159.26L2712.7,4159.33L2712.41,4159.4L2712.12,4159.47L2711.83,4159.54L2711.54,4159.6L2711.25,4159.66L2710.96,4159.73L2710.67,4159.78L2710.38,4159.84L2710.08,4159.89L2709.79,4159.94L2709.49,4159.99L2709.2,4160.03L2708.9,4160.08L2708.61,4160.12L2708.31,4160.16L2708.01,4160.19L2707.71,4160.23L2707.41,4160.26L2707.11,4160.28L2706.81,4160.31L2706.51,4160.33L2706.21,4160.35L2705.91,4160.36L2705.6,4160.38L2705.3,4160.39L2705,4160.4L2704.69,4160.4L2704.39,4160.4L2704.08,4160.4L2703.77,4160.4L2703.47,4160.39L2703.16,4160.38L2702.85,4160.37L2702.55,4160.36L2702.24,4160.34L2701.93,4160.32L2701.62,4160.29L2701.31,4160.26L2701,4160.23L2700.69,4160.2L2700.38,4160.16L2700.06,4160.12L2699.75,4160.08L2699.44,4160.03L2699.13,4159.98L2698.81,4159.93L2698.5,4159.87L2698.19,4159.81L2697.87,4159.75L2697.56,4159.69L2697.24,4159.61L2696.93,4159.54L2696.74,4159.5L2696.61,4159.47L2696.3,4159.39L2696.29,4159.39L2695.22,4158.64L2694.91,4157.46L2694.92,4157.44L2695.59,4156.41L2696.85,4156.06L2697.16,4156.08L2697.28,4156.09L2697.45,4156.1L2697.74,4156.12L2698.02,4156.13L2698.31,4156.14L2698.6,4156.15L2698.88,4156.15L2699.16,4156.15L2699.44,4156.15L2699.72,4156.15L2700,4156.14L2700.27,4156.13L2700.55,4156.12L2700.82,4156.1L2701.09,4156.08L2701.36,4156.06L2701.63,4156.04L2701.9,4156.02L2702.17,4155.99L2702.43,4155.96L2702.7,4155.92L2702.96,4155.89L2703.22,4155.85L2703.48,4155.81L2703.74,4155.77L2704,4155.73L2704.26,4155.68L2704.51,4155.63L2704.76,4155.58L2705.02,4155.52L2705.27,4155.47L2705.52,4155.41L2705.77,4155.35L2706.02,4155.29L2706.26,4155.22L2706.51,4155.15L2706.76,4155.09L2707,4155.02L2707.24,4154.94L2707.48,4154.87L2707.72,4154.79L2707.96,4154.71L2708.2,4154.63L2708.44,4154.55L2708.68,4154.46L2708.91,4154.38L2709.15,4154.29L2709.38,4154.2L2709.61,4154.11L2709.85,4154.01L2710.08,4153.92L2710.31,4153.82L2710.53,4153.72L2710.76,4153.62L2710.99,4153.52L2711.22,4153.41L2711.44,4153.31L2711.67,4153.2L2711.89,4153.09L2712.11,4152.98L2712.33,4152.86L2712.55,4152.75L2712.78,4152.63L2712.99,4152.52L2713.21,4152.4L2713.43,4152.28L2713.65,4152.15L2713.86,4152.03L2714.08,4151.9L2714.29,4151.78L2714.51,4151.65L2714.72,4151.52L2714.93,4151.39L2715.14,4151.26L2715.36,4151.12L2715.57,4150.99L2715.78,4150.85L2715.98,4150.72L2716.19,4150.58L2716.4,4150.44L2716.61,4150.29L2716.81,4150.15L2717.01,4150.01L2717.22,4149.86L2717.42,4149.72L2717.63,4149.57L2717.83,4149.42L2718.03,4149.27L2718.23,4149.12L2718.43,4148.97L2718.58,4148.85L2718.63,4148.81L2718.83,4148.66L2719.03,4148.51L2719.23,4148.35L2719.43,4148.2L2719.62,4148.04L2719.82,4147.88L2720.02,4147.73L2720.21,4147.57L2720.41,4147.41L2720.6,4147.24L2720.8,4147.08L2720.99,4146.92L2721.18,4146.76L2721.37,4146.59L2721.56,4146.43L2721.75,4146.26L2721.94,4146.09L2722.13,4145.93L2722.32,4145.76L2722.51,4145.59L2722.7,4145.42L2722.89,4145.25L2723.07,4145.08L2723.26,4144.9L2723.44,4144.73L2723.63,4144.56L2723.81,4144.39L2724,4144.21L2724.18,4144.04L2724.36,4143.86L2724.54,4143.69L2724.91,4143.33L2725.27,4142.98L2725.63,4142.62L2725.98,4142.26L2726.34,4141.9L2726.69,4141.55L2727.04,4141.18L2727.39,4140.82L2727.73,4140.46L2728.08,4140.1L2728.42,4139.73L2728.76,4139.37L2729.1,4139.01L2729.44,4138.64L2729.78,4138.28L2730.11,4137.92L2730.44,4137.56L2731.1,4136.83L2731.76,4136.11L2732.41,4135.4L2733.05,4134.7L2733.7,4134L2734.02,4133.65L2734.34,4133.31L2734.65,4132.97L2734.97,4132.63L2735.29,4132.29L2735.61,4131.96L2735.92,4131.63L2736.24,4131.3L2736.56,4130.98L2736.88,4130.65L2737.19,4130.34L2737.39,4130.14L2737.52,4130.03L2737.85,4129.74L2738.18,4129.45L2738.36,4129.31L2738.52,4129.16L2738.69,4129.02L2738.86,4128.88L2739.03,4128.74L2739.2,4128.61L2739.37,4128.47L2739.54,4128.33L2739.71,4128.2L2739.88,4128.06L2740.05,4127.93L2740.22,4127.8L2740.4,4127.67L2740.57,4127.54L2740.75,4127.41L2740.92,4127.29L2741.1,4127.16L2741.27,4127.04L2741.45,4126.91L2741.63,4126.79L2741.81,4126.67L2741.99,4126.56L2742.17,4126.44L2742.36,4126.32L2742.54,4126.21L2742.72,4126.1L2742.91,4125.98L2743.1,4125.87L2743.29,4125.77L2743.48,4125.66L2743.68,4125.56L2743.87,4125.45L2744.07,4125.35L2744.27,4125.26L2744.47,4125.16L2744.67,4125.06L2744.88,4124.97L2745.09,4124.88L2745.3,4124.79L2745.51,4124.71L2745.72,4124.63L2745.94,4124.55L2746.16,4124.47L2746.38,4124.4L2746.61,4124.33L2746.84,4124.26L2747.07,4124.2L2747.3,4124.14L2747.54,4124.08L2747.78,4124.03L2748.02,4123.98L2748.25,4123.94L2748.62,4123.88L2748.98,4123.82L2749.33,4123.77L2749.69,4123.72L2750.04,4123.67L2750.39,4123.62L2750.74,4123.58L2751.09,4123.54L2751.19,4123.53L2751.43,4123.51L2751.78,4123.48L2752.12,4123.45L2752.46,4123.42L2752.8,4123.4L2753.14,4123.38L2753.48,4123.36L2753.81,4123.34L2754.15,4123.33L2754.48,4123.32L2754.81,4123.31L2755.14,4123.3L2755.47,4123.29L2755.79,4123.29L2756.12,4123.29L2756.44,4123.29L2756.76,4123.29L2757.08,4123.29L2757.39,4123.3L2757.71,4123.31L2758.02,4123.32L2758.34,4123.33L2758.65,4123.34L2758.95,4123.35L2759.26,4123.37L2759.57,4123.38L2759.87,4123.4L2760.17,4123.42L2760.47,4123.44L2760.76,4123.46L2761.06,4123.48L2761.35,4123.51L2761.64,4123.53L2761.93,4123.55L2762.22,4123.58L2762.51,4123.61L2762.79,4123.63L2763.08,4123.66L2763.63,4123.72L2764.18,4123.77L2764.72,4123.83L2765.25,4123.9L2765.78,4123.96L2766.29,4124.02L2766.8,4124.08L2767.78,4124.2L2768.74,4124.31L2769.2,4124.37L2769.65,4124.42L2770.09,4124.47L2770.53,4124.51L2770.95,4124.56L2771.15,4124.57L2771.36,4124.59L2771.56,4124.61L2771.76,4124.63L2771.95,4124.64L2772.15,4124.66L2772.34,4124.67L2772.53,4124.68L2772.71,4124.69L2772.89,4124.7L2773.07,4124.71L2773.25,4124.72L2773.42,4124.72L2773.59,4124.73L2773.76,4124.73L2773.92,4124.73L2773.97,4124.73L2774.08,4124.73L2774.24,4124.73L2774.39,4124.73L2774.54,4124.73L2774.69,4124.73L2774.84,4124.72L2774.98,4124.72L2775.11,4124.71L2775.25,4124.7L2775.38,4124.69L2775.51,4124.68L2775.63,4124.67L2775.75,4124.65L2775.87,4124.64L2775.98,4124.62L2776.09,4124.61L2776.2,4124.59L2776.3,4124.57L2776.4,4124.55L2776.5,4124.53L2776.6,4124.51L2776.69,4124.49L2776.78,4124.47L2776.86,4124.44L2776.94,4124.42L2777.02,4124.4L2777.1,4124.37L2777.18,4124.34L2777.21,4124.33L2777.24,4124.32L2777.28,4124.31L2777.31,4124.29L2777.35,4124.28L2777.38,4124.27L2777.41,4124.25L2777.45,4124.24L2777.48,4124.22L2777.51,4124.21L2777.54,4124.2L2777.57,4124.18L2777.66,4124.14L2777.76,4124.09L2777.85,4124.05L2777.95,4124L2778.04,4123.96L2778.13,4123.91L2778.22,4123.86L2778.32,4123.81L2778.41,4123.77L2778.5,4123.72L2778.59,4123.67L2778.68,4123.62L2778.77,4123.57L2778.86,4123.52L2778.95,4123.47L2779.03,4123.41L2779.12,4123.36L2779.21,4123.31L2779.3,4123.26L2779.39,4123.2L2779.47,4123.15L2779.56,4123.09L2779.65,4123.04L2779.74,4122.98L2779.82,4122.92L2779.9,4122.87L2780.08,4122.75L2780.25,4122.63L2780.42,4122.51L2780.59,4122.39L2780.76,4122.27L2780.92,4122.14L2781.09,4122.01L2781.26,4121.88L2781.42,4121.75L2781.59,4121.61L2781.76,4121.47L2781.92,4121.33L2782.09,4121.19L2782.25,4121.05L2782.41,4120.9L2782.58,4120.75L2782.74,4120.6L2782.91,4120.45L2783.07,4120.3L2783.24,4120.14L2783.4,4119.98L2783.56,4119.82L2783.73,4119.66L2783.89,4119.49L2784.05,4119.33L2784.22,4119.16L2784.38,4118.99L2784.55,4118.82L2784.71,4118.64L2784.88,4118.47L2785.04,4118.29L2785.21,4118.11L2785.38,4117.93L2785.54,4117.75L2785.71,4117.57L2786.05,4117.19L2786.39,4116.81L2786.73,4116.43L2787.07,4116.03L2787.67,4115.36L2787.77,4115.24L2788.13,4114.84L2788.49,4114.43L2788.86,4114.02L2789.24,4113.61L2789.62,4113.2L2789.81,4112.99L2790.01,4112.78L2790.2,4112.57L2790.4,4112.37L2790.6,4112.16L2790.8,4111.95L2791.01,4111.74L2791.22,4111.53L2791.42,4111.32L2791.64,4111.11L2791.85,4110.9L2792.07,4110.69L2792.28,4110.48L2792.51,4110.27L2792.73,4110.06L2792.96,4109.85L2793.19,4109.65L2793.42,4109.44L2793.66,4109.23L2793.89,4109.03L2794.14,4108.82L2794.38,4108.62L2794.63,4108.42L2794.88,4108.22L2795.14,4108.02L2795.4,4107.82L2795.66,4107.63L2795.93,4107.43L2796.2,4107.24L2796.47,4107.05L2796.75,4106.86L2797.02,4106.68L2797.17,4106.58L2797.32,4106.49L2797.46,4106.4L2797.61,4106.31L2797.75,4106.22L2797.9,4106.13L2798.05,4106.05L2798.2,4105.96L2798.35,4105.87L2798.5,4105.79L2798.65,4105.7L2798.81,4105.62L2798.96,4105.53L2799.12,4105.45L2799.27,4105.37L2799.43,4105.29L2799.59,4105.21L2799.75,4105.13L2799.91,4105.05L2800.07,4104.98L2800.23,4104.9L2800.4,4104.82L2800.56,4104.75L2800.73,4104.68L2800.89,4104.61L2800.89,4104.6L2801.06,4104.54L2801.24,4104.48L2801.41,4104.41L2801.58,4104.35L2801.75,4104.29L2801.93,4104.23L2802.1,4104.17L2802.28,4104.12L2802.46,4104.06L2802.64,4104.01L2802.81,4103.95L2802.99,4103.9L2803.18,4103.85L2803.36,4103.8L2803.54,4103.75L2803.72,4103.71L2803.91,4103.66L2804.09,4103.62L2804.28,4103.58L2804.46,4103.53L2804.65,4103.49L2804.84,4103.46L2805.02,4103.42L2805.21,4103.38L2805.4,4103.35L2805.59,4103.32L2805.78,4103.29L2805.97,4103.26L2806.16,4103.23L2806.34,4103.2L2806.53,4103.18L2806.71,4103.16L2806.9,4103.13L2807.08,4103.11L2807.27,4103.09L2807.46,4103.07L2807.64,4103.06L2807.83,4103.04L2808.03,4103.02L2808.4,4102.99L2808.78,4102.97L2809.16,4102.94L2809.54,4102.93L2809.93,4102.91L2810.32,4102.9L2810.71,4102.89L2811.11,4102.88L2811.5,4102.87L2811.9,4102.87L2812.31,4102.87L2812.71,4102.87L2813.12,4102.87L2813.53,4102.88L2813.95,4102.88L2814.36,4102.89L2814.78,4102.9L2815.21,4102.91L2815.63,4102.92L2816.06,4102.94L2816.49,4102.95L2816.93,4102.97L2817.8,4103L2818.69,4103.04L2819.59,4103.08L2820.5,4103.12L2822.35,4103.21L2823.28,4103.26L2824.23,4103.3L2825.18,4103.35L2826.14,4103.39L2827.1,4103.43L2827.59,4103.45L2828.07,4103.47L2828.43,4103.48L2828.56,4103.49L2829.05,4103.51L2829.54,4103.53L2830.03,4103.54L2830.52,4103.56L2831.01,4103.57L2831.5,4103.59L2832,4103.6L2832.49,4103.61L2832.99,4103.62L2833.48,4103.63L2833.98,4103.64L2834.47,4103.64L2834.97,4103.65L2835.47,4103.65L2835.96,4103.65L2836.46,4103.65L2836.95,4103.65L2837.45,4103.64L2837.94,4103.63L2838.44,4103.62L2838.93,4103.61L2839.43,4103.6L2839.92,4103.58L2840.41,4103.56L2840.9,4103.54L2841.39,4103.52L2841.88,4103.49L2842.37,4103.46L2842.86,4103.43L2843.35,4103.39L2843.56,4103.38L2843.59,4103.38L2843.83,4103.35L2844.07,4103.33L2844.31,4103.31L2844.55,4103.28L2844.79,4103.26L2845.03,4103.23L2845.27,4103.21L2845.51,4103.18L2845.74,4103.15L2845.98,4103.12L2846.22,4103.09L2846.45,4103.06L2846.69,4103.03L2846.93,4103L2847.16,4102.97L2847.39,4102.94L2847.63,4102.9L2847.86,4102.87L2848.09,4102.83L2848.33,4102.79L2848.56,4102.76L2848.79,4102.72L2849.02,4102.68L2849.25,4102.64L2849.48,4102.6L2849.7,4102.56L2849.93,4102.51L2850.16,4102.47L2850.38,4102.43L2850.61,4102.38L2850.83,4102.33L2851.06,4102.29L2851.28,4102.24L2851.5,4102.19L2851.72,4102.14L2851.94,4102.09L2852.16,4102.04L2852.38,4101.98L2852.6,4101.93L2852.82,4101.88L2853.03,4101.82L2853.03,4101.82L2853.24,4101.76L2853.46,4101.69L2853.67,4101.62L2853.88,4101.56L2854.09,4101.49L2854.3,4101.42L2854.5,4101.35L2854.71,4101.28L2854.91,4101.21L2855.12,4101.13L2855.32,4101.06L2855.52,4100.98L2855.72,4100.91L2855.92,4100.83L2856.12,4100.75L2856.32,4100.68L2856.52,4100.6L2856.71,4100.52L2856.91,4100.43L2857.1,4100.35L2857.29,4100.27L2857.48,4100.18L2857.67,4100.1L2857.86,4100.01L2858.05,4099.92L2858.23,4099.83L2858.42,4099.74L2858.6,4099.65L2858.78,4099.56L2858.96,4099.47L2859.14,4099.37L2859.32,4099.28L2859.37,4099.25L2859.5,4099.18L2859.68,4099.08L2859.85,4098.98L2860.02,4098.88L2860.19,4098.78L2860.36,4098.68L2860.53,4098.58L2860.7,4098.47L2860.87,4098.37L2861.03,4098.26L2861.2,4098.15L2861.36,4098.04L2861.52,4097.93L2861.68,4097.82L2861.84,4097.71L2862.01,4097.59L2862.7,4097.18L2863.44,4096.9L2864.22,4096.75L2865.01,4096.74L2865.8,4096.86L2866.55,4097.12L2867.25,4097.5L2867.87,4098L2868.39,4098.6L2868.81,4099.28L2869.1,4100.02L2869.26,4100.8L2869.28,4101.59L2869.17,4102.38L2868.92,4103.13L2868.55,4103.84L2868.06,4104.46L2867.84,4104.71L2867.62,4104.94L2867.41,4105.18L2867.19,4105.42L2866.98,4105.65L2866.77,4105.89L2866.55,4106.13L2866.35,4106.37L2866.14,4106.61L2865.93,4106.85L2865.73,4107.09L2865.52,4107.32L2865.32,4107.57L2865.12,4107.81L2864.92,4108.05L2864.72,4108.28L2864.52,4108.53L2864.33,4108.77L2864.13,4109.01L2863.94,4109.25L2863.74,4109.49L2863.55,4109.73L2863.36,4109.97L2863.32,4110.03L2863.18,4110.22L2862.99,4110.46L2862.8,4110.7L2862.62,4110.94L2862.43,4111.19L2862.25,4111.43L2862.07,4111.67L2861.89,4111.92L2861.71,4112.16L2861.54,4112.4L2861.36,4112.65L2861.19,4112.89L2861.01,4113.14L2860.84,4113.38L2860.67,4113.63L2860.5,4113.87L2860.33,4114.12L2860.16,4114.36L2859.99,4114.61L2859.83,4114.85L2859.66,4115.1L2859.5,4115.34L2859.34,4115.59L2859.18,4115.83L2859.01,4116.08L2858.86,4116.32L2858.7,4116.57L2858.54,4116.81L2858.38,4117.06L2858.23,4117.31L2858.08,4117.55L2857.92,4117.8L2857.77,4118.04L2857.62,4118.29L2857.47,4118.53L2857.32,4118.78L2857.17,4119.03L2857.03,4119.27L2856.88,4119.52L2856.73,4119.77L2856.59,4120.01L2856.45,4120.26L2856.31,4120.5L2856.16,4120.75L2856.03,4121L2855.89,4121.24L2855.75,4121.49L2855.61,4121.73L2855.47,4121.98L2855.34,4122.23L2855.2,4122.47L2855.07,4122.72L2854.94,4122.96L2854.81,4123.21L2854.68,4123.45L2854.55,4123.7L2854.42,4123.95L2854.29,4124.19L2854.16,4124.43L2853.91,4124.93L2853.66,4125.42L2853.42,4125.91L2853.18,4126.4L2852.94,4126.89L2852.71,4127.37L2852.47,4127.86L2852.25,4128.35L2852.02,4128.84L2851.8,4129.32L2851.58,4129.81L2851.37,4130.29L2851.15,4130.78L2850.94,4131.26L2850.74,4131.74L2850.53,4132.22L2850.33,4132.7L2850.13,4133.18L2849.94,4133.66L2849.8,4134.01L2849.74,4134.14L2849.55,4134.62L2849.37,4135.09L2849.18,4135.57L2849,4136.04L2848.82,4136.51L2848.64,4136.98L2848.47,4137.45L2848.29,4137.92L2848.12,4138.39L2847.95,4138.86L2847.79,4139.32L2847.62,4139.78L2847.46,4140.24L2847.3,4140.7L2847.14,4141.16L2846.99,4141.62L2846.83,4142.07L2846.68,4142.53L2846.53,4142.98L2846.38,4143.43L2846.23,4143.88L2846.09,4144.32L2845.94,4144.77L2845.8,4145.21L2845.66,4145.65L2845.52,4146.09L2845.38,4146.53L2845.11,4147.4L2844.85,4148.26L2844.58,4149.11L2844.33,4149.95L2844.07,4150.78L2843.82,4151.61L2843.33,4153.23L2843.09,4154.03L2842.85,4154.81L2842.61,4155.59L2842.38,4156.35L2842.14,4157.11L2842.02,4157.48L2841.91,4157.85L2841.79,4158.22L2841.67,4158.58L2841.55,4158.95L2841.43,4159.31L2841.31,4159.66L2841.19,4160.02L2841.07,4160.37L2840.95,4160.72L2840.83,4161.06L2840.7,4161.41L2840.58,4161.75L2840.54,4161.86L2840.45,4162.09L2840.38,4162.29L2840.3,4162.5L2840.21,4162.71L2840.12,4162.92L2840.03,4163.13L2839.94,4163.33L2839.85,4163.54L2839.75,4163.74L2839.66,4163.95L2839.56,4164.15L2839.45,4164.36L2839.35,4164.56L2839.24,4164.77L2839.14,4164.97L2839.03,4165.17L2838.91,4165.37L2838.8,4165.57L2838.68,4165.77L2838.57,4165.97L2838.45,4166.17L2838.33,4166.37L2838.2,4166.57L2838.08,4166.77L2837.95,4166.97L2837.82,4167.17L2837.69,4167.36L2837.56,4167.56L2837.42,4167.76L2837.29,4167.95L2837.15,4168.15L2837.01,4168.35L2836.87,4168.54L2836.73,4168.74L2836.58,4168.93L2836.44,4169.13L2836.29,4169.32L2836.14,4169.52L2835.99,4169.71L2835.84,4169.9L2835.68,4170.1L2835.53,4170.29L2835.37,4170.48L2835.21,4170.67L2835.05,4170.86L2834.89,4171.06L2834.72,4171.25L2834.56,4171.44L2834.39,4171.63L2834.22,4171.82L2834.05,4172.01L2833.88,4172.2L2833.71,4172.39L2833.53,4172.58L2833.36,4172.77L2833.18,4172.96L2833,4173.14L2832.82,4173.33L2832.64,4173.52L2832.45,4173.71L2832.27,4173.9L2832.09,4174.08L2831.9,4174.27L2831.71,4174.45L2831.52,4174.64L2831.33,4174.83L2831.14,4175.01L2830.94,4175.2L2830.74,4175.38L2830.55,4175.57L2830.35,4175.75L2830.15,4175.93L2829.95,4176.11L2829.75,4176.3L2829.54,4176.48L2829.34,4176.66L2829.13,4176.85L2828.93,4177.03L2828.72,4177.21L2828.51,4177.39L2828.3,4177.57L2828.09,4177.75L2827.87,4177.93L2827.66,4178.11L2827.44,4178.28L2827.22,4178.46L2827.01,4178.64L2826.79,4178.82L2826.57,4179L2826.35,4179.17L2826.12,4179.35L2825.9,4179.52L2825.67,4179.7L2825.52,4179.82L2825.45,4179.87L2825.22,4180.04L2824.98,4180.21L2824.75,4180.38L2824.52,4180.55L2824.28,4180.72L2824.05,4180.89L2823.81,4181.06L2823.58,4181.22L2823.34,4181.39L2823.1,4181.55L2822.86,4181.72L2822.61,4181.88L2822.37,4182.05L2822.13,4182.21L2821.88,4182.37L2821.64,4182.53L2821.39,4182.7L2821.14,4182.86L2820.9,4183.02L2820.65,4183.18L2820.4,4183.34L2820.15,4183.5L2819.9,4183.65L2819.64,4183.81L2819.39,4183.97L2819.14,4184.12L2818.88,4184.28L2818.62,4184.43L2818.37,4184.59L2818.11,4184.74L2817.85,4184.89L2817.59,4185.05L2817.33,4185.2L2817.07,4185.35L2816.81,4185.5L2816.55,4185.65L2816.29,4185.79L2816.02,4185.94L2815.76,4186.09L2815.49,4186.23L2815.23,4186.38L2814.96,4186.52L2814.69,4186.67L2814.43,4186.81L2814.16,4186.95L2813.89,4187.09L2813.62,4187.23L2813.35,4187.37L2813.08,4187.51L2812.8,4187.65L2812.53,4187.79L2812.26,4187.92L2811.99,4188.06L2811.71,4188.19L2811.44,4188.33L2811.16,4188.46L2810.89,4188.59L2810.61,4188.72L2810.33,4188.85L2810.06,4188.98L2809.8,4189.1L2809.78,4189.11L2809.5,4189.24L2809.22,4189.36L2808.94,4189.49L2808.66,4189.61L2808.38,4189.73L2808.1,4189.85L2807.82,4189.97L2807.53,4190.09L2807.25,4190.21L2806.97,4190.33L2806.69,4190.44L2806.4,4190.56L2806.12,4190.67L2805.83,4190.79L2805.55,4190.9L2805.26,4191.01L2804.98,4191.12L2804.69,4191.23L2804.41,4191.34L2804.12,4191.44L2803.83,4191.55L2803.55,4191.65L2803.26,4191.76L2802.97,4191.86L2802.68,4191.96L2802.39,4192.06L2802.11,4192.16L2801.82,4192.26L2801.53,4192.35L2801.24,4192.45L2800.95,4192.54L2800.66,4192.63L2800.37,4192.73L2800.08,4192.82L2799.79,4192.91L2799.5,4192.99L2799.21,4193.08L2798.92,4193.17L2798.63,4193.25L2798.34,4193.33L2798.05,4193.42L2797.76,4193.5L2797.47,4193.58L2797.17,4193.65L2796.88,4193.73L2796.59,4193.81L2796.3,4193.88L2796.01,4193.95L2795.72,4194.02L2795.43,4194.09L2795.13,4194.16L2794.84,4194.23L2794.55,4194.3L2794.26,4194.36L2793.97,4194.42L2793.68,4194.48L2793.38,4194.55L2793.09,4194.6L2792.8,4194.66L2792.51,4194.72L2792.22,4194.77L2791.93,4194.82L2791.64,4194.88L2791.34,4194.93L2791.05,4194.97L2790.76,4195.02L2790.47,4195.07L2790.18,4195.11L2789.89,4195.15L2789.6,4195.19L2789.31,4195.23L2789.02,4195.27L2788.73,4195.31L2788.44,4195.34L2788.15,4195.37L2787.86,4195.4L2787.57,4195.44L2787.28,4195.46L2786.99,4195.49L2786.7,4195.51L2786.42,4195.54L2786.13,4195.56L2785.84,4195.58L2785.55,4195.6L2785.27,4195.61L2784.98,4195.63L2784.79,4195.64L2784.69,4195.64L2784.41,4195.65L2784.12,4195.66L2783.83,4195.67L2783.55,4195.67L2783.26,4195.68L2782.98,4195.68L2782.69,4195.68L2782.41,4195.68L2782.13,4195.68L2781.84,4195.67L2781.56,4195.66L2781.28,4195.65L2781,4195.64L2780.71,4195.63L2780.44,4195.62L2780.11,4195.6L2779.78,4195.58L2779.45,4195.56L2779.13,4195.53L2778.8,4195.51L2778.48,4195.48L2778.15,4195.46L2777.83,4195.43L2777.51,4195.4L2777.18,4195.37L2776.86,4195.34L2776.54,4195.31L2776.22,4195.28L2775.9,4195.24L2775.58,4195.21L2775.26,4195.18L2774.95,4195.14L2774.63,4195.1L2774.31,4195.06L2774,4195.02L2773.68,4194.98L2773.37,4194.94L2773.05,4194.9L2772.74,4194.85L2772.43,4194.81L2772.11,4194.76L2771.8,4194.72L2771.49,4194.67L2771.18,4194.62L2770.87,4194.57L2770.56,4194.52L2770.26,4194.47L2769.95,4194.42L2769.64,4194.37L2769.34,4194.32L2769.03,4194.26L2768.72,4194.21L2768.42,4194.15L2768.12,4194.09L2767.82,4194.03L2767.51,4193.98L2767.21,4193.92L2766.91,4193.86L2766.61,4193.8L2766.31,4193.74L2766.01,4193.67L2765.72,4193.61L2765.42,4193.55L2765.12,4193.48L2764.83,4193.42L2764.53,4193.35L2764.24,4193.28L2763.95,4193.22L2763.66,4193.15L2763.36,4193.08L2763.07,4193.01L2762.78,4192.94L2762.49,4192.87L2761.92,4192.73L2761.34,4192.58L2760.77,4192.43L2760.21,4192.28L2759.79,4192.17L2759.64,4192.13L2759.08,4191.98L2758.52,4191.82L2757.97,4191.67L2757.42,4191.51L2756.87,4191.35L2756.32,4191.19L2755.78,4191.02L2755.24,4190.86L2754.71,4190.69L2754.18,4190.52L2753.65,4190.35L2753.12,4190.18L2752.6,4190.01L2752.09,4189.83L2751.57,4189.66L2751.06,4189.48L2750.56,4189.3L2750.25,4189.19L2750.05,4189.12L2749.55,4188.95L2749.05,4188.77L2748.56,4188.6L2748.07,4188.42L2747.58,4188.24L2747.1,4188.06L2746.62,4187.88L2746.15,4187.7L2745.68,4187.52L2745.21,4187.34L2744.75,4187.15L2744.29,4186.97L2743.83,4186.79L2743.6,4186.7L2743.38,4186.61L2742.93,4186.44L2742.48,4186.28L2742.03,4186.11L2741.59,4185.94L2741.16,4185.77L2740.72,4185.6L2740.3,4185.43L2739.87,4185.27L2739.45,4185.1L2739.04,4184.93L2738.63,4184.76L2738.22,4184.59L2737.82,4184.43L2737.42,4184.26L2737.03,4184.1L2736.64,4183.93L2736.26,4183.77L2735.88,4183.61L2735.5,4183.44L2735.13,4183.28L2734.77,4183.12L2734.41,4182.97L2734.05,4182.81L2733.7,4182.65L2733.02,4182.34L2732.35,4182.04L2731.71,4181.75L2731.08,4181.46L2730.48,4181.18L2729.89,4180.91L2729.33,4180.64L2728.28,4180.15L2727.32,4179.69L2726.91,4179.5L2726.88,4179.48L2726.46,4179.29L2726.06,4179.11L2725.7,4178.95L2725.36,4178.8L2725.05,4178.67L2724.91,4178.61L2724.78,4178.56L2724.65,4178.51L2724.52,4178.45L2723.93,4178.12L2723.4,4177.7L2722.94,4177.2L2722.57,4176.64L2722.29,4176.01L2722.12,4175.36L2722.06,4174.68L2722.11,4174.01L2722.26,4173.34L2722.52,4172.72L2722.88,4172.14L2723.33,4171.63L2723.85,4171.2L2724.23,4170.92L2724.61,4170.63L2725,4170.35L2725.38,4170.07L2725.77,4169.8L2726.16,4169.52L2726.55,4169.26L2726.93,4168.99L2727.32,4168.73L2727.71,4168.47L2728.1,4168.22L2728.49,4167.97L2728.69,4167.84L2728.89,4167.72L2729.08,4167.6L2729.28,4167.48L2729.48,4167.36L2729.67,4167.24L2729.87,4167.12L2730.07,4167L2730.26,4166.88L2730.46,4166.77L2730.66,4166.65L2730.86,4166.54L2731.06,4166.42L2731.26,4166.31L2731.46,4166.2L2731.66,4166.09L2731.85,4165.98L2732.05,4165.87L2732.25,4165.76L2732.45,4165.65L2732.66,4165.55L2732.86,4165.44L2733.06,4165.33L2733.26,4165.23L2733.46,4165.12L2733.66,4165.02L2733.86,4164.92L2734.07,4164.82L2734.27,4164.72L2734.47,4164.62L2734.67,4164.52L2734.88,4164.42L2735.28,4164.23L2735.69,4164.04L2736.1,4163.85L2736.51,4163.67L2736.93,4163.49L2737.34,4163.31L2737.75,4163.14L2738.17,4162.97L2738.59,4162.8L2739,4162.63L2739.42,4162.47L2739.84,4162.31L2740.27,4162.16L2740.69,4162L2741.11,4161.85L2741.54,4161.7L2741.97,4161.56L2742.4,4161.42L2742.83,4161.28L2743.26,4161.15L2743.69,4161.01L2744.12,4160.88L2744.56,4160.76L2745,4160.63L2745.43,4160.51L2745.88,4160.39L2746.27,4160.28L2746.32,4160.27L2746.76,4160.16L2747.2,4160.05L2747.65,4159.94L2748.1,4159.83L2748.55,4159.72L2749,4159.62L2749.45,4159.52L2749.9,4159.43L2750.36,4159.33L2750.82,4159.24L2751.28,4159.15L2751.74,4159.06L2752.2,4158.97L2752.66,4158.89L2753.13,4158.81L2753.6,4158.73L2754.07,4158.65L2754.54,4158.58L2755.01,4158.51L2755.49,4158.43L2755.97,4158.36L2756.45,4158.3L2756.93,4158.23L2757.41,4158.17L2757.9,4158.11L2758.39,4158.05L2758.88,4157.99L2759.37,4157.94L2759.86,4157.88L2760.36,4157.83L2760.86,4157.78L2761.36,4157.73L2761.86,4157.68L2762.37,4157.64L2762.88,4157.59L2763.39,4157.55L2763.9,4157.51L2764.41,4157.47L2764.93,4157.43L2765.45,4157.39L2765.97,4157.36L2766.5,4157.32L2767.03,4157.29L2767.56,4157.26L2768.09,4157.23L2768.63,4157.2L2769.17,4157.17L2769.71,4157.14L2770.25,4157.11L2770.8,4157.09L2771.35,4157.07L2771.9,4157.04L2772.46,4157.02L2772.49,4157.02L2773.01,4157.01L2773.58,4156.99L2774.14,4156.98L2774.71,4156.96L2775.28,4156.95L2775.85,4156.94L2776.43,4156.93L2777.01,4156.92L2777.59,4156.91L2778.18,4156.9L2779.36,4156.89L2780.56,4156.88L2781.77,4156.87L2782.99,4156.86L2784.21,4156.86L2784.37,4156.86L2784.5,4156.85L2784.64,4156.85L2784.78,4156.84L2784.92,4156.83L2785.06,4156.82L2785.2,4156.8L2785.34,4156.79L2785.49,4156.77L2785.63,4156.76L2785.78,4156.74L2785.93,4156.72L2786.08,4156.7L2786.23,4156.67L2786.38,4156.65L2786.53,4156.62L2786.68,4156.59L2786.81,4156.57L2786.84,4156.57L2787,4156.56L2787.16,4156.54L2787.32,4156.53L2787.48,4156.51L2787.64,4156.49L2787.81,4156.48L2787.98,4156.45L2788.14,4156.43L2788.32,4156.41L2788.49,4156.38L2788.66,4156.35L2788.83,4156.32L2789.01,4156.29L2789.18,4156.26L2789.36,4156.23L2789.53,4156.19L2789.71,4156.15L2789.89,4156.12L2790.08,4156.07L2790.26,4156.03L2790.44,4155.99L2790.62,4155.94L2790.81,4155.9L2790.99,4155.85L2791.18,4155.8L2791.37,4155.74L2791.56,4155.69L2791.75,4155.64L2791.94,4155.58L2792.13,4155.52L2792.32,4155.46L2792.51,4155.4L2792.71,4155.34L2792.9,4155.27L2793.1,4155.21L2793.29,4155.14L2793.49,4155.07L2793.68,4155L2793.88,4154.93L2794.08,4154.85L2794.28,4154.78L2794.48,4154.7L2794.68,4154.62L2794.88,4154.55L2795.08,4154.47L2795.28,4154.38L2795.48,4154.3L2795.68,4154.22L2795.89,4154.13L2796.09,4154.04L2796.29,4153.95L2796.49,4153.86L2796.7,4153.77L2796.9,4153.68L2797.11,4153.58L2797.31,4153.49L2797.52,4153.39L2797.72,4153.29L2797.93,4153.19L2798.13,4153.09L2798.34,4152.99L2798.55,4152.89L2798.75,4152.79L2798.96,4152.68L2799.16,4152.57L2799.37,4152.47L2799.58,4152.36L2799.6,4152.35L2799.79,4152.25L2800,4152.14L2800.2,4152.04L2800.41,4151.93L2800.62,4151.82L2800.83,4151.7L2801.04,4151.59L2801.25,4151.48L2801.46,4151.36L2801.67,4151.25L2801.88,4151.13L2802.09,4151.01L2802.3,4150.9L2802.5,4150.77L2802.71,4150.65L2802.92,4150.53L2803.13,4150.41L2803.34,4150.29L2803.55,4150.16L2803.75,4150.04L2803.96,4149.91L2804.17,4149.79L2804.38,4149.66L2804.58,4149.53L2804.79,4149.4L2804.99,4149.27L2805.2,4149.14L2805.41,4149.01L2805.61,4148.88L2805.82,4148.75L2806.02,4148.62L2806.43,4148.35L2806.84,4148.08L2807.24,4147.8L2807.64,4147.53L2808.05,4147.25L2808.44,4146.97L2808.84,4146.69L2809.24,4146.41L2809.63,4146.12L2810.02,4145.84L2810.41,4145.55L2810.79,4145.26L2811.02,4145.09L2811.18,4144.98L2811.58,4144.71L2811.97,4144.44L2812.36,4144.17L2812.75,4143.89L2813.14,4143.62L2813.52,4143.34L2813.9,4143.07L2814.28,4142.79L2814.65,4142.52L2815.02,4142.24L2815.38,4141.96L2815.74,4141.69L2816.1,4141.41L2816.45,4141.13L2816.8,4140.86L2817.14,4140.58L2817.48,4140.31L2817.82,4140.03L2818.15,4139.76L2818.47,4139.49L2818.79,4139.22L2819.11,4138.95L2819.42,4138.68L2819.72,4138.41L2820.02,4138.15L2820.32,4137.88L2820.61,4137.62L2820.89,4137.36L2821.17,4137.1L2821.44,4136.85L2821.71,4136.6L2821.97,4136.35L2822.22,4136.1L2822.47,4135.85L2822.71,4135.61L2822.95,4135.37L2823.17,4135.14L2823.39,4134.9L2823.61,4134.67L2823.82,4134.45L2824.02,4134.23L2824.21,4134.01L2824.4,4133.8L2824.58,4133.59L2824.66,4133.48L2824.75,4133.38L2824.83,4133.28L2824.91,4133.18L2824.99,4133.09L2825.07,4132.99L2825.15,4132.89L2825.22,4132.8L2825.29,4132.71L2825.36,4132.62L2825.43,4132.53L2825.49,4132.44L2825.56,4132.35L2825.62,4132.27L2825.68,4132.18L2825.74,4132.1L2825.79,4132.02L2825.84,4131.94L2825.89,4131.86L2825.94,4131.79L2825.99,4131.71L2826.04,4131.64L2826.08,4131.57L2826.12,4131.51L2826.16,4131.43L2826.15,4131.45L2826.2,4131.37Z" style="fill:white;"/>
    </g>
</svg>
