<?xml version="1.0" standalone="no"?>
<!DOCTYPE svg PUBLIC "-//W3C//DTD SVG 20010904//EN"
 "http://www.w3.org/TR/2001/REC-SVG-20010904/DTD/svg10.dtd">
<svg version="1.0" xmlns="http://www.w3.org/2000/svg"
 width="888.000000pt" height="888.000000pt" viewBox="0 0 888.000000 888.000000"
 preserveAspectRatio="xMidYMid meet">
<metadata>
Created by potrace 1.11, written by Peter Selinger 2001-2013
</metadata>
<g transform="translate(0.000000,888.000000) scale(0.100000,-0.100000)"
fill="#000000" stroke="none">
<path d="M5178 8185 c-2 -2 -21 -5 -43 -9 -81 -11 -233 -53 -249 -68 -6 -4
-16 -8 -23 -8 -8 0 -25 -8 -40 -17 -14 -10 -31 -18 -38 -19 -17 -3 -154 -92
-210 -137 -131 -106 -307 -309 -405 -467 -19 -30 -37 -57 -40 -60 -7 -7 -29
-42 -37 -60 -4 -8 -16 -31 -28 -50 -12 -19 -55 -98 -95 -175 -74 -143 -154
-279 -177 -303 -7 -7 -13 -17 -13 -21 0 -9 -94 -169 -110 -188 -5 -7 -10 -14
-10 -17 0 -4 -128 -230 -151 -266 -5 -8 -15 -26 -21 -40 -7 -14 -18 -31 -25
-38 -7 -7 -13 -19 -13 -25 0 -7 -9 -23 -19 -35 -15 -21 -25 -24 -77 -22 -325
8 -878 0 -1094 -15 -212 -15 -416 -34 -440 -40 -8 -2 -42 -7 -75 -10 -33 -3
-72 -8 -85 -10 -14 -3 -42 -8 -63 -11 -47 -7 -72 -12 -72 -14 0 -1 -12 -3 -28
-5 -45 -6 -137 -25 -222 -47 -44 -11 -87 -22 -95 -23 -8 -2 -16 -4 -17 -5 -2
-2 -6 -3 -10 -4 -68 -18 -282 -94 -393 -139 -14 -6 -27 -11 -30 -11 -16 -4
-147 -73 -158 -83 -6 -6 -21 -15 -32 -18 -11 -3 -20 -11 -20 -16 0 -5 -5 -9
-11 -9 -6 0 -17 -6 -24 -12 -8 -7 -40 -35 -73 -63 -32 -27 -76 -72 -98 -100
-42 -52 -114 -167 -118 -188 -1 -7 -10 -28 -18 -49 -21 -47 -81 -248 -79 -265
0 -2 -5 -17 -10 -35 -5 -18 -12 -53 -15 -78 -3 -25 -8 -54 -11 -65 -2 -11 -6
-87 -9 -170 -4 -164 7 -287 37 -400 6 -22 12 -47 14 -55 9 -44 65 -160 77
-160 4 0 8 -6 8 -12 0 -37 194 -246 286 -308 27 -19 51 -37 54 -41 6 -8 194
-99 212 -103 7 -2 20 -6 28 -9 22 -9 129 -35 180 -43 59 -10 280 -11 350 -1
57 7 95 14 95 17 0 1 9 3 20 4 27 4 130 34 185 54 25 9 47 17 50 18 5 0 66 28
165 75 22 10 67 35 100 54 33 20 70 41 83 47 12 6 22 15 22 20 0 4 5 8 10 8 9
0 147 95 185 128 6 4 42 35 80 67 108 91 240 218 308 296 22 24 73 80 115 125
183 192 346 400 539 689 112 167 363 572 363 586 0 5 5 9 12 9 6 0 9 3 5 6 -3
4 7 26 23 49 l29 43 68 -4 c176 -8 386 -23 573 -39 25 -2 66 -5 93 -6 26 -1
47 -7 47 -11 0 -5 -31 -53 -68 -106 -38 -53 -77 -112 -87 -129 -11 -18 -23
-33 -27 -33 -4 0 -8 -4 -8 -10 0 -5 -26 -49 -57 -97 -209 -325 -359 -639 -396
-835 -3 -15 -8 -31 -10 -35 -5 -9 -18 -113 -21 -176 -2 -37 16 -190 27 -232
21 -76 64 -167 102 -214 29 -36 119 -121 128 -121 4 0 25 -11 47 -25 22 -14
40 -23 40 -20 0 3 9 1 21 -5 32 -18 59 -23 129 -24 83 -2 208 27 250 58 8 6
30 20 49 30 77 43 210 175 343 341 53 66 105 129 115 141 10 11 37 46 61 77
50 65 91 99 222 188 52 35 97 66 100 69 20 23 269 152 364 190 91 37 217 76
272 84 20 4 39 8 43 11 17 10 121 14 121 5 0 -10 -27 -64 -50 -100 -27 -44
-171 -312 -296 -555 -34 -66 -167 -329 -295 -585 -128 -256 -246 -487 -261
-513 -15 -26 -28 -54 -28 -62 0 -8 -4 -15 -10 -15 -5 0 -10 -9 -10 -19 0 -11
-3 -21 -7 -23 -5 -1 -21 -30 -38 -63 -26 -53 -101 -192 -220 -410 -21 -38 -41
-72 -44 -75 -3 -3 -14 -21 -24 -40 -21 -41 -26 -49 -95 -160 -29 -47 -59 -94
-65 -105 -58 -94 -232 -335 -295 -407 -67 -77 -163 -169 -231 -220 -71 -54
-211 -135 -211 -122 0 4 -7 1 -15 -6 -8 -7 -15 -10 -15 -7 0 3 -21 -1 -47 -9
-61 -19 -141 -18 -200 2 -50 17 -147 75 -173 103 -25 27 -62 47 -115 60 -27 7
-57 15 -65 19 -8 3 -18 5 -21 4 -4 -1 -38 -4 -75 -7 -82 -8 -173 -50 -224
-104 -68 -72 -82 -93 -104 -163 -52 -158 -6 -319 121 -425 34 -29 68 -53 76
-53 7 0 17 -4 22 -9 18 -18 206 -64 310 -77 117 -14 221 -9 368 20 114 21 275
94 394 176 63 44 196 162 252 225 20 21 45 49 56 60 34 36 139 166 185 230 24
33 48 65 52 70 4 6 18 24 31 40 13 17 46 64 73 105 27 41 51 77 54 80 3 3 13
19 23 35 10 17 59 100 111 185 51 85 112 191 136 235 23 44 46 85 50 90 4 6
33 60 65 120 32 61 62 116 68 123 5 6 6 12 1 12 -5 0 -4 4 1 8 12 8 2 -10 277
532 116 228 215 421 220 428 6 6 7 12 2 12 -5 0 -4 4 1 8 6 4 39 63 74 132
128 252 238 456 378 700 90 155 251 419 263 430 3 3 16 22 29 43 23 37 25 38
65 32 67 -11 197 -48 261 -75 97 -41 190 -89 249 -130 179 -124 292 -273 333
-440 21 -84 -7 -217 -60 -288 -106 -140 -433 -347 -722 -455 -75 -29 -236 -72
-299 -82 -21 -3 -41 -7 -45 -9 -3 -2 -31 -7 -61 -11 -68 -8 -180 -47 -223 -76
-151 -105 -190 -275 -143 -614 3 -16 8 -52 11 -80 4 -27 9 -59 10 -70 2 -11 6
-38 10 -60 3 -22 7 -49 9 -60 2 -11 7 -45 11 -75 4 -30 9 -64 11 -75 3 -11 7
-40 10 -65 3 -25 7 -54 9 -65 2 -11 6 -42 10 -70 3 -27 11 -70 17 -95 19 -86
21 -95 22 -112 0 -10 5 -18 10 -18 5 0 7 -2 4 -5 -14 -14 82 -270 143 -383 37
-68 103 -171 141 -218 47 -58 195 -197 253 -235 88 -59 218 -122 309 -150 41
-12 236 -16 321 -7 72 9 205 44 291 78 82 33 257 122 274 140 3 3 17 13 31 22
119 76 367 314 448 431 8 12 26 33 38 47 13 14 23 28 23 33 0 4 9 18 21 30 31
33 77 118 82 152 3 17 8 47 12 67 6 33 -12 84 -51 147 -2 1 -33 11 -71 21
l-68 18 -75 -38 c-41 -21 -87 -51 -101 -66 -58 -63 -230 -199 -319 -251 -238
-140 -442 -193 -605 -155 -33 7 -78 17 -100 22 -72 15 -90 20 -120 32 -96 38
-229 163 -291 273 -9 17 -20 32 -23 35 -9 7 -73 141 -104 215 -43 106 -80 233
-92 315 -4 32 -11 66 -34 187 -11 54 -23 121 -26 148 -4 28 -9 59 -12 70 -2
11 -6 45 -9 76 l-6 56 63 12 c69 13 94 19 94 21 0 1 11 3 24 6 76 14 276 81
346 117 22 11 40 19 40 17 0 -8 210 102 300 158 28 17 63 39 79 48 25 14 130
86 161 111 6 5 23 17 39 27 45 29 181 162 212 209 16 23 31 44 34 47 13 12 69
128 65 132 -3 3 1 11 10 18 8 7 15 23 15 36 0 12 5 35 10 49 18 48 30 221 16
243 -4 7 -5 16 -2 20 2 4 -1 34 -9 67 -12 59 -15 70 -31 110 -4 11 -8 22 -9
25 -1 3 -8 19 -15 35 -7 17 -13 33 -12 37 1 3 -5 12 -13 18 -8 7 -15 19 -15
26 0 8 -4 14 -10 14 -5 0 -10 6 -10 13 0 37 -189 246 -290 321 -30 22 -57 44
-60 47 -11 13 -190 114 -265 149 -75 35 -215 89 -242 94 -7 1 -16 5 -20 9 -7
8 90 105 198 197 35 30 66 58 69 61 3 4 24 19 46 35 134 93 164 114 167 114 2
0 41 23 87 50 66 40 93 64 131 115 59 81 85 176 73 263 -4 31 -7 61 -6 65 3
11 -26 73 -60 126 -40 64 -139 134 -218 155 -76 20 -67 19 -151 13 -61 -5
-149 -38 -157 -59 -2 -4 -10 -8 -17 -8 -18 0 -115 -98 -115 -116 0 -2 -6 -12
-12 -20 -7 -8 -18 -20 -23 -27 -12 -14 -87 -129 -133 -202 -17 -27 -36 -55
-42 -62 -5 -7 -10 -15 -10 -18 0 -3 -26 -48 -57 -100 -73 -120 -81 -134 -129
-225 -21 -41 -45 -81 -51 -88 -7 -7 -13 -19 -13 -27 0 -7 -3 -15 -7 -17 -5 -1
-25 -34 -45 -73 l-37 -70 -68 -2 c-143 -4 -298 -16 -356 -29 -16 -3 -38 -7
-50 -9 -164 -25 -392 -108 -607 -222 -91 -48 -276 -158 -290 -173 -10 -10
-152 -105 -183 -122 -55 -30 -206 -99 -213 -98 -4 1 -10 -2 -13 -7 -6 -8 -156
-83 -166 -83 -10 0 11 147 30 213 8 26 12 47 10 47 -2 0 2 18 10 40 8 22 14
42 15 45 0 3 0 6 1 8 0 1 2 10 4 19 2 9 18 63 36 120 18 57 33 105 34 108 1 3
5 12 8 20 3 8 19 53 35 100 16 47 45 126 64 175 39 101 50 129 49 132 -2 7 74
138 81 141 5 2 5 8 2 14 -5 7 14 8 57 3 35 -4 82 -9 104 -11 22 -2 54 -6 70
-9 17 -3 48 -7 70 -9 22 -3 60 -7 85 -10 126 -15 147 -15 208 2 61 17 63 19
100 82 l37 65 -19 71 c-18 64 -24 74 -55 90 -20 10 -43 24 -52 31 -19 16 -36
20 -116 27 -84 8 -192 18 -236 21 -21 2 -41 6 -44 9 -3 3 4 20 15 38 11 18 34
59 51 91 50 91 92 169 119 217 13 25 63 119 110 210 71 140 130 239 152 260 3
3 21 30 40 60 19 30 37 57 40 60 28 27 145 269 173 361 36 117 49 241 32 317
-3 12 -7 32 -10 43 -41 187 -181 338 -390 419 -25 10 -249 22 -257 15z m7
-700 l8 -40 -21 26 c-11 14 -19 34 -17 45 2 10 4 24 5 29 2 19 18 -20 25 -60z
m-6 -64 c10 -1 12 -15 7 -68 -3 -38 -8 -79 -10 -93 -3 -14 -7 -41 -10 -60 -9
-56 -16 -94 -22 -112 -3 -10 -7 -30 -10 -45 -7 -43 -37 -123 -46 -123 -4 0 -7
-3 -6 -7 2 -11 -45 -107 -54 -111 -5 -2 -8 -10 -8 -17 0 -8 -13 -36 -28 -62
-15 -26 -34 -63 -41 -80 -7 -18 -17 -33 -22 -33 -5 0 -9 -6 -9 -13 0 -8 -26
-60 -58 -118 -32 -57 -80 -144 -107 -194 -26 -49 -59 -107 -71 -127 l-24 -37
-92 5 c-177 9 -284 13 -488 19 -113 4 -206 8 -207 9 -2 2 157 273 185 316 9
14 17 27 17 30 1 5 44 74 77 122 10 15 18 29 18 32 0 9 72 111 113 159 119
141 277 303 380 389 78 64 196 144 255 170 64 29 169 55 212 52 19 -1 41 -3
49 -3z m-1949 -1581 c0 -18 -346 -568 -371 -590 -3 -3 -21 -27 -39 -55 -41
-60 -168 -228 -204 -270 -14 -16 -36 -41 -47 -55 -112 -130 -171 -189 -295
-289 -93 -75 -452 -281 -491 -281 -6 0 -13 -4 -15 -10 -1 -5 -12 -11 -23 -13
-11 -1 -24 -5 -30 -8 -9 -5 -80 -31 -95 -34 -3 -1 -25 -7 -50 -14 -25 -7 -54
-15 -65 -17 -11 -2 -31 -6 -45 -9 -76 -16 -206 -21 -270 -10 -145 25 -243 95
-299 212 -17 37 -39 82 -48 98 -48 90 -75 157 -71 175 1 3 -3 14 -9 25 -20 37
-28 119 -28 295 l0 175 33 67 c54 111 223 258 347 303 28 10 55 22 60 26 26
18 375 120 465 135 27 5 59 11 100 20 44 9 134 25 170 30 19 2 46 7 60 9 14 3
46 7 71 10 25 3 56 8 70 10 13 3 56 8 94 10 39 3 81 8 95 11 14 3 54 7 90 10
36 2 88 6 115 8 100 9 242 17 358 21 65 2 120 5 122 7 6 6 245 4 245 -2z
m1157 -1344 c3 -3 0 -6 -8 -7 -8 0 -21 -2 -29 -5 -60 -16 -72 -16 -68 -3 7 22
87 34 105 15z m147 -102 c8 -22 8 -24 -6 -24 -6 0 -8 3 -5 7 4 3 2 12 -4 20
-7 8 -8 13 -1 13 5 0 13 -7 16 -16z"/>
</g>
</svg>
