<?xml version="1.0" encoding="UTF-8" standalone="no"?>
<!DOCTYPE svg PUBLIC "-//W3C//DTD SVG 1.1//EN" "http://www.w3.org/Graphics/SVG/1.1/DTD/svg11.dtd">
<svg width="100%" height="100%" viewBox="0 0 111 94" version="1.1" xmlns="http://www.w3.org/2000/svg" xmlns:xlink="http://www.w3.org/1999/xlink" xml:space="preserve" xmlns:serif="http://www.serif.com/" style="fill-rule:evenodd;clip-rule:evenodd;stroke-linejoin:round;stroke-miterlimit:1.41421;">
    <g id="logo" transform="matrix(0.540946,0,0,2.45938,-609.27,-1758.07)">
        <g transform="matrix(0.687036,0,0,0.151115,384.313,224.201)">
            <path d="M1295.68,3344.62L1296.2,3344.63L1296.71,3344.65L1297.23,3344.66L1297.74,3344.68L1298.25,3344.7L1298.76,3344.73L1299.26,3344.76L1299.77,3344.79L1300.27,3344.83L1300.77,3344.87L1301.27,3344.91L1301.77,3344.96L1302.26,3345.01L1302.76,3345.06L1303.25,3345.12L1303.74,3345.17L1304.23,3345.24L1304.71,3345.3L1305.2,3345.37L1305.68,3345.44L1306.16,3345.52L1306.64,3345.6L1307.12,3345.68L1307.6,3345.76L1308.07,3345.85L1308.54,3345.94L1309.01,3346.03L1309.48,3346.13L1309.94,3346.23L1310.4,3346.33L1310.86,3346.44L1311.32,3346.55L1311.78,3346.66L1312.24,3346.77L1312.69,3346.89L1313.14,3347.01L1313.59,3347.13L1314.03,3347.26L1314.48,3347.39L1314.92,3347.52L1315.36,3347.65L1315.8,3347.79L1316.23,3347.93L1316.66,3348.07L1317.09,3348.21L1317.52,3348.36L1317.95,3348.51L1318.37,3348.66L1318.79,3348.82L1319.21,3348.98L1319.63,3349.14L1320.04,3349.3L1320.45,3349.47L1320.87,3349.64L1321.27,3349.81L1321.68,3349.98L1322.08,3350.15L1322.48,3350.33L1322.88,3350.51L1323.27,3350.7L1323.66,3350.88L1324.06,3351.07L1324.44,3351.26L1324.83,3351.45L1325.21,3351.64L1325.59,3351.84L1325.97,3352.04L1326.34,3352.24L1326.71,3352.45L1327.08,3352.65L1327.18,3352.71L1327.45,3352.85L1327.82,3353.06L1328.19,3353.26L1328.55,3353.47L1328.91,3353.68L1329.27,3353.89L1329.62,3354.11L1329.98,3354.33L1330.33,3354.55L1330.67,3354.77L1331.02,3354.99L1331.36,3355.22L1331.7,3355.44L1332.04,3355.67L1332.37,3355.91L1332.7,3356.14L1333.03,3356.38L1333.36,3356.62L1333.68,3356.86L1334,3357.1L1334.32,3357.34L1334.63,3357.59L1334.94,3357.84L1335.25,3358.09L1335.56,3358.34L1335.86,3358.59L1336.16,3358.85L1336.45,3359.11L1336.75,3359.37L1337.04,3359.63L1337.33,3359.9L1337.61,3360.16L1337.89,3360.43L1338.17,3360.7L1338.45,3360.97L1338.72,3361.24L1338.99,3361.52L1339.26,3361.8L1339.52,3362.08L1339.78,3362.36L1340.03,3362.64L1340.29,3362.93L1340.54,3363.21L1340.78,3363.5L1341.03,3363.79L1341.27,3364.08L1341.5,3364.38L1341.74,3364.67L1341.97,3364.97L1342.19,3365.27L1342.42,3365.57L1342.64,3365.87L1342.85,3366.17L1343.07,3366.48L1343.28,3366.79L1343.48,3367.1L1343.68,3367.41L1343.88,3367.72L1344.08,3368.03L1344.27,3368.35L1344.45,3368.67L1344.64,3368.99L1344.82,3369.31L1344.99,3369.63L1345.16,3369.95L1345.33,3370.28L1345.5,3370.6L1345.65,3370.93L1345.81,3371.26L1345.96,3371.59L1346.11,3371.93L1346.26,3372.26L1346.39,3372.6L1346.53,3372.93L1346.66,3373.27L1346.79,3373.61L1346.91,3373.95L1347.03,3374.3L1347.14,3374.64L1347.25,3374.98L1347.36,3375.33L1347.46,3375.68L1347.55,3376.03L1347.64,3376.38L1347.73,3376.73L1347.81,3377.08L1347.89,3377.43L1347.96,3377.79L1348.03,3378.15L1348.09,3378.5L1348.15,3378.86L1348.2,3379.22L1348.25,3379.58L1348.3,3379.94L1348.33,3380.3L1348.37,3380.66L1348.39,3381.02L1348.42,3381.39L1348.43,3381.75L1348.45,3382.12L1348.45,3382.48L1348.45,3382.84L1348.45,3383.21L1348.44,3383.58L1348.43,3383.94L1348.41,3384.31L1348.38,3384.67L1348.35,3385.04L1348.31,3385.41L1348.27,3385.77L1348.22,3386.14L1348.17,3386.5L1348.11,3386.87L1348.05,3387.23L1347.98,3387.6L1347.9,3387.96L1347.82,3388.33L1347.73,3388.69L1347.64,3389.05L1347.54,3389.41L1347.43,3389.77L1347.33,3390.13L1347.21,3390.49L1347.09,3390.85L1346.96,3391.2L1346.83,3391.56L1346.69,3391.91L1346.55,3392.27L1346.4,3392.62L1346.24,3392.97L1346.08,3393.32L1345.92,3393.66L1345.75,3394.01L1345.57,3394.35L1345.39,3394.7L1345.2,3395.04L1345.01,3395.37L1344.81,3395.71L1344.6,3396.05L1344.39,3396.38L1344.18,3396.71L1343.96,3397.04L1343.73,3397.37L1343.5,3397.69L1343.27,3398.01L1343.03,3398.34L1342.78,3398.65L1342.53,3398.97L1342.27,3399.28L1342.01,3399.6L1341.74,3399.91L1341.47,3400.21L1341.2,3400.52L1340.91,3400.82L1340.63,3401.12L1340.34,3401.42L1340.04,3401.72L1339.74,3402.01L1339.43,3402.3L1339.12,3402.59L1338.8,3402.88L1338.48,3403.16L1338.15,3403.44L1337.82,3403.72L1337.49,3404L1337.15,3404.27L1336.8,3404.55L1336.45,3404.82L1336.1,3405.08L1335.74,3405.34L1335.23,3405.71L1334.74,3406.07L1334.24,3406.42L1333.75,3406.77L1333.26,3407.11L1332.77,3407.45L1332.29,3407.78L1331.81,3408.1L1331.33,3408.43L1330.86,3408.74L1330.39,3409.05L1329.92,3409.36L1329.45,3409.66L1328.99,3409.95L1328.53,3410.24L1328.07,3410.53L1327.62,3410.81L1327.17,3411.09L1326.72,3411.36L1326.27,3411.63L1325.83,3411.89L1325.39,3412.15L1325.25,3412.23L1324.95,3412.4L1324.52,3412.65L1324.09,3412.9L1323.66,3413.14L1323.23,3413.38L1322.81,3413.61L1322.39,3413.84L1321.98,3414.07L1321.56,3414.29L1321.15,3414.5L1320.74,3414.72L1320.33,3414.92L1319.93,3415.13L1319.53,3415.33L1319.13,3415.53L1318.74,3415.72L1318.35,3415.91L1317.95,3416.1L1317.19,3416.45L1316.43,3416.8L1315.68,3417.12L1314.94,3417.44L1314.22,3417.74L1313.5,3418.03L1312.8,3418.31L1312.11,3418.57L1311.43,3418.83L1310.76,3419.07L1310.1,3419.3L1309.45,3419.51L1308.82,3419.72L1308.2,3419.92L1307.59,3420.11L1306.99,3420.29L1306.4,3420.46L1305.83,3420.62L1305.27,3420.77L1304.72,3420.91L1304.19,3421.05L1303.67,3421.18L1303.16,3421.31L1302.66,3421.42L1302.18,3421.53L1301.71,3421.64L1300.83,3421.83L1300.01,3422.01L1299.25,3422.17L1298.55,3422.32L1297.92,3422.47L1297.64,3422.53L1297.56,3422.55L1297.58,3422.83L1297.59,3423.14L1297.62,3423.48L1297.65,3423.84L1297.69,3424.23L1297.73,3424.64L1297.78,3425.08L1297.84,3425.55L1297.9,3426.04L1297.97,3426.55L1298.05,3427.09L1298.14,3427.65L1298.23,3428.24L1298.33,3428.85L1298.43,3429.49L1298.55,3430.15L1298.67,3430.84L1298.79,3431.55L1298.92,3432.29L1299.21,3433.85L1299.52,3435.51L1299.85,3437.27L1300.21,3439.14L1300.99,3443.22L1301.09,3443.72L1301.19,3444.21L1301.19,3444.21L1301.33,3444.69L1301.46,3445.16L1301.61,3445.62L1301.75,3446.09L1301.89,3446.54L1302.04,3447L1302.18,3447.44L1302.33,3447.89L1302.48,3448.33L1302.63,3448.76L1302.79,3449.18L1302.94,3449.61L1303.1,3450.03L1303.26,3450.44L1303.41,3450.85L1303.57,3451.25L1303.73,3451.65L1303.9,3452.05L1304.06,3452.43L1304.23,3452.82L1304.39,3453.2L1304.56,3453.57L1304.73,3453.94L1304.9,3454.31L1305.07,3454.67L1305.24,3455.02L1305.41,3455.37L1305.59,3455.72L1305.76,3456.06L1305.93,3456.39L1306.11,3456.73L1306.29,3457.05L1306.47,3457.37L1306.64,3457.69L1306.83,3458L1307.01,3458.31L1307.19,3458.61L1307.37,3458.91L1307.55,3459.2L1307.73,3459.49L1307.92,3459.78L1308.1,3460.06L1308.28,3460.33L1308.47,3460.6L1308.65,3460.87L1308.84,3461.13L1309.03,3461.38L1309.21,3461.63L1309.4,3461.88L1309.59,3462.12L1309.77,3462.36L1309.96,3462.59L1310.15,3462.82L1310.33,3463.05L1310.52,3463.27L1310.71,3463.48L1310.9,3463.69L1311.09,3463.9L1311.27,3464.1L1311.46,3464.3L1311.65,3464.49L1311.84,3464.68L1312.02,3464.87L1312.21,3465.05L1312.4,3465.23L1312.58,3465.4L1312.77,3465.57L1312.95,3465.74L1313.14,3465.9L1313.33,3466.05L1313.51,3466.21L1313.69,3466.36L1313.88,3466.5L1314.06,3466.64L1314.25,3466.78L1314.43,3466.91L1314.61,3467.05L1314.79,3467.17L1314.97,3467.3L1315.15,3467.41L1315.33,3467.53L1315.51,3467.64L1315.69,3467.75L1315.87,3467.86L1316.05,3467.96L1316.22,3468.06L1316.4,3468.16L1316.58,3468.25L1316.75,3468.34L1316.93,3468.43L1317.1,3468.51L1317.28,3468.59L1317.45,3468.67L1317.62,3468.74L1317.79,3468.82L1317.96,3468.88L1318.13,3468.95L1318.31,3469.01L1318.48,3469.08L1318.64,3469.13L1318.81,3469.19L1318.98,3469.24L1319.15,3469.29L1319.32,3469.34L1319.49,3469.39L1319.65,3469.43L1319.82,3469.47L1319.99,3469.51L1320.15,3469.55L1320.32,3469.58L1320.49,3469.61L1320.65,3469.64L1320.82,3469.67L1320.98,3469.7L1321.15,3469.72L1321.31,3469.74L1321.48,3469.76L1321.64,3469.78L1321.81,3469.79L1321.98,3469.81L1322.14,3469.82L1322.31,3469.83L1322.41,3469.83L1322.47,3469.86L1322.63,3469.92L1322.79,3469.99L1322.94,3470.05L1323.11,3470.11L1323.27,3470.16L1323.43,3470.22L1323.6,3470.27L1323.77,3470.33L1323.94,3470.38L1324.11,3470.43L1324.29,3470.47L1324.46,3470.52L1324.64,3470.56L1324.82,3470.6L1325.01,3470.64L1325.19,3470.68L1325.38,3470.72L1325.57,3470.75L1325.76,3470.78L1325.95,3470.81L1326.15,3470.84L1326.34,3470.86L1326.54,3470.88L1326.75,3470.9L1326.95,3470.92L1327.16,3470.94L1327.37,3470.95L1327.58,3470.96L1327.79,3470.97L1328,3470.97L1328.22,3470.98L1328.44,3470.98L1328.66,3470.98L1328.88,3470.97L1329.11,3470.97L1329.34,3470.96L1329.57,3470.95L1329.8,3470.93L1330.03,3470.92L1330.27,3470.9L1330.51,3470.88L1330.75,3470.85L1330.99,3470.82L1331.23,3470.79L1331.48,3470.76L1331.73,3470.72L1331.98,3470.68L1332.23,3470.64L1332.48,3470.59L1332.74,3470.55L1333,3470.49L1333.26,3470.44L1333.52,3470.38L1333.78,3470.32L1334.05,3470.26L1334.31,3470.19L1334.58,3470.12L1334.85,3470.05L1335.12,3469.97L1335.4,3469.89L1335.67,3469.81L1335.95,3469.73L1336.23,3469.64L1336.51,3469.55L1336.79,3469.45L1337.07,3469.35L1337.36,3469.25L1337.64,3469.15L1337.93,3469.04L1338.22,3468.93L1338.51,3468.81L1338.8,3468.69L1339.09,3468.57L1339.39,3468.45L1339.68,3468.32L1339.98,3468.19L1340.28,3468.05L1340.58,3467.91L1340.88,3467.77L1341.18,3467.63L1341.48,3467.48L1341.79,3467.33L1342.09,3467.17L1342.39,3467.01L1342.7,3466.85L1343.01,3466.68L1343.32,3466.51L1343.63,3466.34L1343.94,3466.17L1344.25,3465.99L1344.56,3465.8L1344.88,3465.62L1345.19,3465.43L1345.51,3465.24L1345.82,3465.04L1346.14,3464.84L1346.45,3464.63L1346.77,3464.43L1347.09,3464.22L1347.41,3464L1347.73,3463.78L1348.05,3463.56L1348.37,3463.34L1348.69,3463.11L1349.02,3462.88L1349.34,3462.64L1349.66,3462.4L1349.99,3462.16L1350.31,3461.91L1350.63,3461.67L1350.96,3461.41L1351.28,3461.16L1351.61,3460.9L1351.93,3460.63L1352.26,3460.37L1352.59,3460.1L1352.91,3459.82L1353.24,3459.55L1353.57,3459.26L1353.9,3458.98L1354.22,3458.69L1354.55,3458.4L1354.88,3458.11L1355.21,3457.81L1355.54,3457.5L1355.87,3457.2L1356.19,3456.89L1356.52,3456.58L1356.85,3456.26L1357.18,3455.94L1357.52,3455.61L1357.54,3455.59L1362.08,3453.41L1366.54,3454.55L1366.58,3454.59L1368.68,3458.7L1367.54,3463.6L1367.52,3463.62L1367.25,3464.05L1366.96,3464.49L1366.67,3464.93L1366.38,3465.37L1366.08,3465.8L1365.79,3466.23L1365.49,3466.66L1365.2,3467.08L1364.9,3467.5L1364.6,3467.92L1364.3,3468.34L1363.99,3468.75L1363.69,3469.16L1363.38,3469.57L1363.07,3469.97L1362.76,3470.37L1362.45,3470.77L1362.14,3471.16L1361.83,3471.56L1361.51,3471.95L1361.19,3472.33L1360.87,3472.72L1360.55,3473.1L1360.23,3473.47L1359.91,3473.85L1359.59,3474.22L1359.26,3474.59L1358.93,3474.95L1358.6,3475.32L1358.27,3475.68L1357.94,3476.03L1357.61,3476.39L1357.27,3476.74L1356.94,3477.08L1356.6,3477.43L1356.26,3477.77L1355.92,3478.1L1355.58,3478.44L1355.23,3478.77L1354.89,3479.1L1354.54,3479.42L1354.2,3479.75L1353.85,3480.06L1353.5,3480.38L1353.14,3480.69L1352.79,3481L1352.44,3481.31L1352.08,3481.61L1351.72,3481.91L1351.36,3482.21L1351,3482.5L1350.64,3482.79L1350.28,3483.08L1349.91,3483.36L1349.55,3483.64L1349.18,3483.91L1348.81,3484.19L1348.44,3484.46L1348.07,3484.72L1347.69,3484.99L1347.32,3485.25L1346.94,3485.5L1346.56,3485.75L1346.18,3486L1345.8,3486.25L1345.42,3486.49L1345.04,3486.73L1344.65,3486.96L1344.27,3487.2L1343.88,3487.42L1343.49,3487.65L1343.1,3487.87L1342.7,3488.08L1342.31,3488.3L1341.91,3488.51L1341.52,3488.71L1341.12,3488.91L1340.72,3489.11L1340.32,3489.3L1339.92,3489.49L1339.51,3489.68L1339.11,3489.86L1338.7,3490.04L1338.3,3490.22L1337.88,3490.39L1337.48,3490.55L1337.06,3490.72L1336.65,3490.87L1336.23,3491.03L1335.82,3491.18L1335.4,3491.32L1334.98,3491.46L1334.56,3491.6L1334.14,3491.73L1333.72,3491.86L1333.29,3491.99L1332.87,3492.11L1332.44,3492.22L1332.01,3492.33L1331.58,3492.44L1331.15,3492.54L1330.72,3492.64L1330.29,3492.73L1329.86,3492.82L1329.42,3492.9L1328.98,3492.98L1328.55,3493.05L1328.11,3493.12L1327.67,3493.19L1327.23,3493.25L1326.79,3493.3L1326.35,3493.35L1325.9,3493.39L1325.46,3493.43L1325.02,3493.47L1324.57,3493.49L1324.12,3493.52L1323.68,3493.54L1323.23,3493.55L1322.78,3493.56L1322.33,3493.56L1321.88,3493.56L1321.43,3493.55L1320.99,3493.54L1320.54,3493.52L1320.09,3493.49L1319.63,3493.47L1319.18,3493.43L1318.73,3493.39L1318.28,3493.34L1317.83,3493.29L1317.65,3493.27L1317.39,3493.2L1316.95,3493.08L1316.51,3492.95L1316.08,3492.82L1315.65,3492.68L1315.22,3492.54L1314.79,3492.39L1314.36,3492.24L1313.93,3492.08L1313.51,3491.91L1313.09,3491.74L1312.67,3491.57L1312.26,3491.39L1311.84,3491.21L1311.43,3491.02L1311.02,3490.82L1310.61,3490.62L1310.21,3490.42L1309.81,3490.21L1309.41,3489.99L1309.01,3489.77L1308.62,3489.55L1308.22,3489.32L1307.84,3489.09L1307.45,3488.85L1307.07,3488.6L1306.69,3488.36L1306.31,3488.1L1305.93,3487.84L1305.56,3487.58L1305.19,3487.32L1304.83,3487.04L1304.47,3486.77L1304.11,3486.49L1303.75,3486.2L1303.4,3485.91L1303.05,3485.62L1302.71,3485.32L1302.36,3485.02L1302.02,3484.71L1301.69,3484.4L1301.36,3484.09L1301.03,3483.77L1300.7,3483.45L1300.38,3483.12L1300.06,3482.79L1299.74,3482.45L1299.43,3482.12L1299.12,3481.77L1298.82,3481.43L1298.52,3481.08L1298.22,3480.72L1297.92,3480.37L1297.63,3480L1297.34,3479.64L1297.06,3479.27L1296.78,3478.9L1296.5,3478.52L1296.23,3478.14L1295.96,3477.76L1295.69,3477.37L1295.43,3476.98L1295.17,3476.59L1294.91,3476.19L1294.66,3475.79L1294.41,3475.39L1294.16,3474.98L1293.92,3474.57L1293.68,3474.16L1293.44,3473.74L1293.21,3473.32L1292.98,3472.9L1292.75,3472.47L1292.53,3472.04L1292.31,3471.61L1292.1,3471.17L1291.88,3470.73L1291.68,3470.29L1291.47,3469.84L1291.27,3469.39L1291.07,3468.94L1290.87,3468.48L1290.68,3468.03L1290.49,3467.56L1290.31,3467.1L1290.13,3466.63L1289.95,3466.16L1289.77,3465.68L1289.6,3465.21L1289.43,3464.73L1289.26,3464.24L1289.1,3463.76L1288.94,3463.26L1288.79,3462.77L1288.63,3462.28L1288.48,3461.78L1288.34,3461.27L1288.19,3460.77L1288.05,3460.26L1287.92,3459.75L1287.78,3459.23L1287.65,3458.71L1287.53,3458.19L1287.4,3457.67L1287.28,3457.14L1287.16,3456.61L1287.05,3456.08L1286.94,3455.54L1286.83,3455L1286.72,3454.45L1286.62,3453.91L1286.52,3453.36L1286.43,3452.81L1286.34,3452.25L1286.25,3451.69L1286.16,3451.13L1286.08,3450.56L1286,3449.99L1285.92,3449.42L1285.85,3448.85L1285.78,3448.27L1285.71,3447.69L1285.65,3447.11L1285.65,3447.1L1285.55,3446.52L1285.46,3445.95L1284.82,3441.81L1284.52,3439.9L1284.25,3438.09L1283.99,3436.37L1283.75,3434.74L1283.64,3433.96L1283.53,3433.19L1283.43,3432.45L1283.34,3431.73L1283.25,3431.03L1283.16,3430.34L1283.08,3429.67L1283.01,3429.02L1282.94,3428.39L1282.87,3427.77L1282.82,3427.16L1282.76,3426.57L1282.72,3425.99L1282.68,3425.42L1282.65,3424.86L1282.62,3424.32L1282.6,3423.78L1282.59,3423.24L1282.59,3422.72L1282.59,3422.19L1282.61,3421.68L1282.63,3421.16L1282.67,3420.66L1282.69,3420.39L1282.72,3420.13L1282.75,3419.87L1282.78,3419.61L1282.82,3419.35L1282.86,3419.09L1282.9,3418.82L1282.95,3418.56L1283.01,3418.3L1283.07,3418.03L1283.13,3417.76L1283.2,3417.5L1283.28,3417.23L1283.37,3416.96L1283.45,3416.69L1283.55,3416.41L1283.65,3416.14L1283.76,3415.87L1283.88,3415.6L1284.01,3415.33L1284.14,3415.06L1284.28,3414.79L1284.43,3414.52L1284.58,3414.26L1284.75,3413.99L1284.92,3413.74L1285.1,3413.48L1285.28,3413.23L1285.48,3412.99L1285.68,3412.75L1285.88,3412.52L1286.09,3412.29L1286.31,3412.08L1286.53,3411.87L1286.75,3411.66L1286.97,3411.47L1287.2,3411.28L1287.43,3411.1L1287.66,3410.93L1287.9,3410.77L1288.13,3410.61L1288.36,3410.46L1288.6,3410.32L1288.83,3410.19L1289.06,3410.06L1289.29,3409.94L1289.51,3409.83L1289.74,3409.72L1289.96,3409.62L1290.21,3409.51L1290.62,3409.35L1291.04,3409.19L1291.46,3409.05L1291.87,3408.92L1292.28,3408.8L1292.67,3408.69L1293.06,3408.6L1293.45,3408.5L1293.83,3408.42L1294.21,3408.34L1294.58,3408.26L1294.96,3408.19L1295.7,3408.05L1296.45,3407.92L1297.22,3407.78L1298,3407.64L1298.8,3407.5L1299.2,3407.42L1299.62,3407.34L1300.04,3407.26L1300.46,3407.17L1300.9,3407.08L1301.34,3406.98L1301.79,3406.88L1302.25,3406.77L1302.71,3406.66L1303.19,3406.54L1303.68,3406.41L1304.17,3406.28L1304.68,3406.14L1305.19,3405.99L1305.72,3405.84L1306.25,3405.67L1306.8,3405.49L1307.36,3405.31L1307.93,3405.12L1308.51,3404.91L1309.1,3404.7L1309.7,3404.47L1310.32,3404.23L1310.95,3403.98L1311.59,3403.72L1312.25,3403.44L1312.57,3403.3L1312.9,3403.15L1313.24,3403L1313.58,3402.85L1313.93,3402.69L1314.27,3402.53L1314.62,3402.37L1314.98,3402.2L1315.33,3402.03L1315.69,3401.86L1316.06,3401.68L1316.42,3401.49L1316.79,3401.31L1317.17,3401.12L1317.54,3400.92L1317.92,3400.72L1318.31,3400.52L1318.57,3400.38L1318.69,3400.31L1319.08,3400.1L1319.47,3399.88L1319.87,3399.65L1320.27,3399.43L1320.67,3399.2L1321.08,3398.96L1321.49,3398.72L1321.9,3398.47L1322.32,3398.22L1322.74,3397.97L1323.16,3397.71L1323.59,3397.44L1324.02,3397.18L1324.45,3396.9L1324.89,3396.62L1325.33,3396.34L1325.78,3396.05L1326.23,3395.75L1326.68,3395.45L1327.13,3395.14L1327.59,3394.83L1328.05,3394.52L1328.31,3394.35L1328.55,3394.17L1328.79,3394L1329.02,3393.83L1329.25,3393.65L1329.48,3393.48L1329.7,3393.3L1329.91,3393.13L1330.12,3392.95L1330.33,3392.78L1330.53,3392.6L1330.73,3392.42L1330.92,3392.25L1331.11,3392.07L1331.29,3391.9L1331.47,3391.72L1331.64,3391.55L1331.81,3391.37L1331.98,3391.19L1332.13,3391.02L1332.29,3390.84L1332.44,3390.67L1332.59,3390.49L1332.74,3390.32L1332.88,3390.14L1333.01,3389.97L1333.14,3389.79L1333.27,3389.62L1333.4,3389.44L1333.52,3389.27L1333.63,3389.09L1333.75,3388.92L1333.86,3388.75L1333.96,3388.57L1334.07,3388.4L1334.17,3388.23L1334.26,3388.05L1334.36,3387.88L1334.44,3387.71L1334.53,3387.54L1334.61,3387.36L1334.69,3387.19L1334.77,3387.02L1334.84,3386.85L1334.91,3386.68L1334.98,3386.5L1335.05,3386.33L1335.11,3386.16L1335.16,3385.99L1335.22,3385.82L1335.27,3385.64L1335.32,3385.47L1335.37,3385.3L1335.42,3385.12L1335.46,3384.95L1335.5,3384.78L1335.53,3384.61L1335.57,3384.43L1335.6,3384.26L1335.63,3384.08L1335.65,3383.91L1335.68,3383.73L1335.7,3383.56L1335.71,3383.38L1335.73,3383.2L1335.74,3383.02L1335.75,3382.85L1335.76,3382.67L1335.77,3382.49L1335.77,3382.31L1335.77,3382.13L1335.77,3381.95L1335.76,3381.76L1335.75,3381.58L1335.74,3381.4L1335.73,3381.21L1335.71,3381.03L1335.69,3380.84L1335.67,3380.66L1335.65,3380.47L1335.62,3380.28L1335.59,3380.1L1335.56,3379.91L1335.52,3379.72L1335.48,3379.53L1335.44,3379.33L1335.4,3379.14L1335.35,3378.95L1335.3,3378.76L1335.25,3378.56L1335.19,3378.37L1335.14,3378.17L1335.08,3377.98L1335.01,3377.78L1334.94,3377.58L1334.88,3377.38L1334.8,3377.19L1334.73,3376.99L1334.65,3376.79L1334.57,3376.59L1334.48,3376.39L1334.39,3376.19L1334.3,3375.99L1334.21,3375.78L1334.11,3375.58L1334.01,3375.38L1333.91,3375.18L1333.8,3374.97L1333.69,3374.77L1333.58,3374.57L1333.46,3374.36L1333.35,3374.16L1333.23,3373.95L1333.1,3373.75L1332.97,3373.54L1332.84,3373.34L1332.71,3373.13L1332.57,3372.93L1332.43,3372.72L1332.29,3372.52L1332.14,3372.31L1331.99,3372.11L1331.84,3371.91L1331.69,3371.7L1331.53,3371.5L1331.37,3371.29L1331.2,3371.09L1331.04,3370.89L1330.87,3370.68L1330.69,3370.48L1330.52,3370.28L1330.34,3370.08L1330.15,3369.87L1329.97,3369.67L1329.78,3369.47L1329.59,3369.27L1329.39,3369.07L1329.19,3368.87L1329,3368.68L1328.79,3368.48L1328.59,3368.28L1328.38,3368.08L1328.16,3367.89L1327.95,3367.69L1327.73,3367.5L1327.51,3367.3L1327.29,3367.11L1327.06,3366.92L1326.83,3366.73L1326.6,3366.54L1326.36,3366.35L1326.12,3366.16L1325.88,3365.97L1325.64,3365.79L1325.39,3365.6L1325.14,3365.42L1324.89,3365.24L1324.64,3365.05L1324.38,3364.87L1324.12,3364.69L1323.86,3364.52L1323.59,3364.34L1323.32,3364.16L1323.05,3363.99L1322.78,3363.82L1322.5,3363.64L1322.22,3363.47L1321.94,3363.3L1321.65,3363.14L1321.45,3363.01L1321.37,3362.97L1321.07,3362.81L1320.78,3362.66L1320.48,3362.5L1320.18,3362.35L1319.88,3362.2L1319.57,3362.05L1319.26,3361.9L1318.95,3361.75L1318.64,3361.61L1318.32,3361.46L1318.01,3361.32L1317.69,3361.18L1317.37,3361.05L1317.04,3360.91L1316.71,3360.78L1316.38,3360.64L1316.05,3360.51L1315.72,3360.38L1315.38,3360.26L1315.05,3360.13L1314.7,3360.01L1314.36,3359.89L1314.02,3359.77L1313.67,3359.65L1313.32,3359.54L1312.97,3359.43L1312.62,3359.32L1312.26,3359.21L1311.9,3359.1L1311.55,3359L1311.18,3358.9L1310.82,3358.8L1310.45,3358.7L1310.09,3358.6L1309.72,3358.51L1309.34,3358.42L1308.97,3358.33L1308.6,3358.25L1308.22,3358.16L1307.84,3358.08L1307.45,3358L1307.07,3357.93L1306.69,3357.85L1306.3,3357.78L1305.91,3357.71L1305.52,3357.64L1305.12,3357.58L1304.73,3357.52L1304.33,3357.46L1303.93,3357.4L1303.53,3357.35L1303.13,3357.3L1302.73,3357.25L1302.32,3357.2L1301.91,3357.16L1301.51,3357.12L1301.09,3357.08L1300.68,3357.05L1300.27,3357.01L1299.85,3356.98L1299.43,3356.96L1299.01,3356.93L1298.59,3356.91L1298.17,3356.89L1297.75,3356.88L1297.32,3356.86L1296.89,3356.85L1296.46,3356.85L1296.03,3356.84L1295.6,3356.84L1295.17,3356.84L1294.73,3356.85L1294.29,3356.86L1293.86,3356.87L1293.41,3356.88L1292.97,3356.9L1292.53,3356.92L1292.09,3356.94L1291.64,3356.97L1291.19,3357L1290.74,3357.03L1290.29,3357.07L1289.84,3357.11L1289.39,3357.15L1288.93,3357.19L1288.48,3357.24L1288.09,3357.29L1287.71,3357.34L1287.32,3357.39L1286.94,3357.44L1286.55,3357.5L1286.17,3357.56L1285.79,3357.62L1285.41,3357.69L1285.03,3357.76L1284.65,3357.83L1284.55,3357.85L1284.28,3357.9L1283.9,3357.98L1283.53,3358.06L1283.15,3358.15L1282.78,3358.24L1282.41,3358.33L1282.04,3358.42L1281.67,3358.52L1281.3,3358.62L1280.93,3358.72L1280.56,3358.82L1280.2,3358.93L1279.83,3359.04L1279.47,3359.15L1279.11,3359.26L1278.74,3359.38L1278.38,3359.5L1278.02,3359.62L1277.66,3359.74L1277.3,3359.87L1276.94,3360L1276.59,3360.13L1276.23,3360.26L1275.88,3360.4L1275.52,3360.53L1275.17,3360.67L1274.82,3360.82L1274.47,3360.96L1274.12,3361.11L1273.77,3361.26L1273.42,3361.41L1273.07,3361.56L1272.72,3361.71L1272.38,3361.87L1272.03,3362.03L1271.69,3362.19L1271.35,3362.35L1271,3362.52L1270.66,3362.68L1270.32,3362.85L1269.98,3363.02L1269.65,3363.19L1269.31,3363.37L1268.97,3363.54L1268.64,3363.72L1268.31,3363.89L1267.64,3364.26L1266.97,3364.62L1266.32,3365L1265.66,3365.38L1265.01,3365.76L1264.36,3366.15L1263.72,3366.55L1263.08,3366.95L1262.45,3367.35L1261.82,3367.76L1261.19,3368.17L1260.57,3368.58L1259.95,3369L1259.34,3369.43L1258.73,3369.85L1258.12,3370.28L1257.52,3370.71L1256.92,3371.14L1256.33,3371.57L1255.74,3372.01L1255.15,3372.45L1254.57,3372.89L1253.99,3373.32L1253.75,3373.51L1253.48,3373.84L1253.01,3374.4L1252.54,3374.97L1252.08,3375.53L1251.62,3376.09L1250.71,3377.21L1249.82,3378.32L1248.94,3379.41L1248.08,3380.49L1246.38,3382.61L1245.55,3383.65L1244.71,3384.66L1243.89,3385.66L1243.48,3386.15L1243.06,3386.64L1242.65,3387.12L1242.23,3387.59L1241.81,3388.06L1241.39,3388.53L1240.97,3388.98L1240.55,3389.44L1240.12,3389.88L1239.68,3390.33L1239.24,3390.76L1238.8,3391.19L1238.34,3391.62L1237.88,3392.03L1237.4,3392.45L1236.92,3392.85L1236.42,3393.25L1235.91,3393.64L1235.4,3394.01L1235.11,3394.22L1234.83,3394.4L1234.55,3394.59L1234.26,3394.77L1233.96,3394.95L1233.66,3395.13L1233.35,3395.31L1233.04,3395.48L1232.71,3395.65L1232.38,3395.82L1232.05,3395.98L1231.7,3396.14L1231.34,3396.3L1230.97,3396.45L1230.6,3396.59L1230.21,3396.73L1229.81,3396.86L1229.4,3396.99L1228.98,3397.11L1228.55,3397.22L1228.1,3397.32L1227.64,3397.41L1227.17,3397.5L1226.69,3397.57L1226.2,3397.63L1225.69,3397.67L1225.18,3397.7L1224.65,3397.72L1224.11,3397.71L1223.56,3397.69L1223,3397.66L1222.44,3397.6L1222.32,3397.58L1221.87,3397.49L1221.31,3397.34L1220.75,3397.18L1220.18,3397L1219.63,3396.79L1219.07,3396.57L1218.53,3396.33L1217.99,3396.07L1217.46,3395.78L1216.94,3395.49L1216.44,3395.17L1215.95,3394.84L1215.47,3394.5L1215.02,3394.15L1214.57,3393.78L1214.15,3393.4L1213.75,3393.02L1213.36,3392.63L1212.99,3392.23L1212.64,3391.83L1212.3,3391.42L1211.99,3391.01L1211.68,3390.6L1211.4,3390.19L1211.13,3389.78L1210.88,3389.36L1210.64,3388.95L1210.41,3388.54L1210.2,3388.13L1210,3387.72L1209.81,3387.32L1209.63,3386.91L1209.47,3386.51L1209.31,3386.1L1209.16,3385.7L1209.03,3385.3L1208.89,3384.9L1208.77,3384.51L1208.67,3384.16L1208.58,3383.82L1208.49,3383.48L1208.4,3383.14L1208.32,3382.8L1208.25,3382.47L1208.18,3382.13L1208.11,3381.79L1208.06,3381.45L1208,3381.12L1207.95,3380.79L1207.9,3380.45L1207.86,3380.12L1207.83,3379.79L1207.79,3379.46L1207.77,3379.13L1207.74,3378.8L1207.72,3378.48L1207.7,3378.15L1207.69,3377.83L1207.68,3377.51L1207.68,3377.15L1207.68,3376.54L1207.69,3375.91L1207.72,3375.28L1207.76,3374.65L1207.81,3374.03L1207.87,3373.41L1207.95,3372.8L1208.03,3372.19L1208.12,3371.58L1208.23,3370.97L1208.34,3370.38L1208.46,3369.78L1208.59,3369.18L1208.73,3368.59L1208.88,3368L1209.03,3367.41L1209.19,3366.83L1209.36,3366.24L1209.54,3365.66L1209.72,3365.08L1209.91,3364.5L1210.11,3363.92L1210.31,3363.34L1210.52,3362.77L1210.74,3362.19L1210.96,3361.61L1211.19,3361.04L1211.42,3360.46L1211.66,3359.89L1211.91,3359.32L1212.16,3358.74L1212.41,3358.17L1212.67,3357.59L1212.94,3357.02L1213.21,3356.45L1213.48,3355.87L1213.77,3355.3L1214.05,3354.72L1214.34,3354.14L1214.63,3353.57L1214.93,3352.99L1215.24,3352.41L1215.54,3351.84L1215.86,3351.26L1216.17,3350.68L1216.49,3350.1L1216.82,3349.52L1217.14,3348.94L1217.48,3348.36L1217.81,3347.78L1218.15,3347.19L1218.49,3346.61L1218.84,3346.03L1219.19,3345.44L1219.54,3344.86L1219.9,3344.27L1220.26,3343.69L1220.62,3343.1L1220.99,3342.51L1221.73,3341.33L1222.48,3340.15L1223.24,3338.97L1224.02,3337.79L1224.8,3336.6L1225.59,3335.41L1226.39,3334.23L1227.2,3333.04L1228.01,3331.84L1228.84,3330.65L1229.66,3329.46L1230.5,3328.26L1230.63,3328.07L1230.32,3328.04L1228.82,3327.91L1228.79,3327.91L1227.23,3327.78L1225.65,3327.65L1224.04,3327.52L1222.41,3327.4L1220.77,3327.28L1219.1,3327.16L1217.41,3327.04L1215.71,3326.93L1213.99,3326.82L1212.25,3326.71L1210.5,3326.61L1208.73,3326.51L1206.94,3326.41L1205.15,3326.32L1203.96,3326.26L1203.44,3327.14L1202.72,3328.36L1202,3329.59L1201.27,3330.82L1200.54,3332.05L1199.8,3333.28L1199.06,3334.51L1198.36,3335.65L1198.32,3335.73L1197.57,3336.96L1196.82,3338.19L1196.07,3339.41L1195.31,3340.64L1194.55,3341.86L1193.79,3343.08L1193.01,3344.29L1192.24,3345.5L1191.46,3346.7L1190.67,3347.91L1189.88,3349.1L1189.08,3350.29L1188.28,3351.47L1187.88,3352.07L1187.47,3352.66L1187.06,3353.24L1186.65,3353.83L1186.25,3354.41L1185.83,3355L1185.42,3355.58L1185.01,3356.16L1184.59,3356.73L1184.17,3357.31L1183.75,3357.88L1183.33,3358.45L1182.91,3359.02L1182.49,3359.59L1182.06,3360.15L1181.63,3360.71L1181.2,3361.27L1180.77,3361.83L1180.34,3362.38L1180.15,3362.63L1179.9,3362.94L1179.47,3363.49L1179.03,3364.04L1178.59,3364.59L1178.15,3365.13L1177.71,3365.67L1177.27,3366.21L1176.82,3366.75L1176.37,3367.28L1175.92,3367.81L1175.47,3368.34L1175.01,3368.86L1174.56,3369.38L1174.1,3369.9L1173.64,3370.42L1173.17,3370.93L1172.71,3371.44L1172.24,3371.95L1171.77,3372.45L1171.3,3372.95L1170.82,3373.44L1170.34,3373.94L1169.86,3374.43L1169.38,3374.91L1169.09,3375.2L1168.91,3375.41L1168.46,3375.93L1168.01,3376.44L1167.55,3376.95L1167.09,3377.46L1166.63,3377.96L1166.17,3378.46L1165.7,3378.95L1165.23,3379.45L1164.75,3379.94L1164.27,3380.42L1163.79,3380.9L1163.3,3381.38L1162.81,3381.85L1162.32,3382.32L1161.83,3382.79L1161.33,3383.25L1160.84,3383.7L1160.35,3384.15L1159.86,3384.6L1159.36,3385.04L1158.87,3385.47L1158.38,3385.9L1157.89,3386.32L1157.39,3386.74L1156.9,3387.15L1156.41,3387.56L1155.92,3387.97L1155.43,3388.36L1154.94,3388.76L1154.45,3389.14L1153.95,3389.53L1153.46,3389.9L1152.97,3390.28L1152.48,3390.64L1151.99,3391.01L1151.5,3391.36L1151.01,3391.72L1150.52,3392.06L1150.03,3392.41L1149.54,3392.74L1149.05,3393.08L1148.56,3393.4L1148.07,3393.72L1147.58,3394.04L1147.09,3394.36L1146.6,3394.66L1146.11,3394.97L1145.62,3395.26L1145.13,3395.56L1144.64,3395.84L1144.16,3396.12L1143.67,3396.4L1143.18,3396.68L1142.69,3396.94L1142.2,3397.21L1141.71,3397.46L1141.22,3397.72L1140.73,3397.96L1140.25,3398.21L1139.76,3398.45L1139.27,3398.68L1138.78,3398.91L1138.29,3399.13L1137.8,3399.35L1137.32,3399.56L1136.83,3399.77L1136.34,3399.97L1135.85,3400.17L1135.36,3400.36L1134.88,3400.55L1134.39,3400.73L1133.9,3400.91L1133.41,3401.09L1132.93,3401.25L1132.44,3401.41L1132.42,3401.42L1131.95,3401.57L1131.46,3401.72L1130.98,3401.87L1130.49,3402.01L1130,3402.15L1129.52,3402.28L1129.03,3402.41L1128.54,3402.53L1128.06,3402.64L1127.57,3402.75L1127.08,3402.86L1126.6,3402.96L1126.11,3403.05L1125.63,3403.14L1125.14,3403.23L1124.65,3403.31L1124.17,3403.38L1123.69,3403.45L1123.2,3403.51L1122.72,3403.57L1122.24,3403.62L1121.75,3403.67L1121.27,3403.71L1120.79,3403.75L1120.31,3403.78L1119.82,3403.8L1119.34,3403.82L1118.86,3403.84L1118.38,3403.84L1117.9,3403.85L1117.43,3403.85L1116.95,3403.84L1116.47,3403.82L1116,3403.8L1115.52,3403.78L1115.05,3403.75L1114.57,3403.71L1114.1,3403.67L1113.63,3403.62L1113.16,3403.57L1112.69,3403.51L1112.22,3403.44L1111.75,3403.37L1111.29,3403.3L1110.82,3403.21L1110.36,3403.13L1109.9,3403.03L1109.44,3402.93L1108.98,3402.83L1108.52,3402.72L1108.07,3402.6L1107.61,3402.48L1107.16,3402.35L1106.71,3402.21L1106.26,3402.07L1105.82,3401.93L1105.37,3401.78L1104.93,3401.62L1104.49,3401.46L1104.05,3401.29L1103.62,3401.12L1103.18,3400.94L1102.75,3400.75L1102.33,3400.56L1101.9,3400.36L1101.48,3400.16L1101.06,3399.95L1100.64,3399.74L1100.23,3399.52L1099.82,3399.3L1099.41,3399.07L1099,3398.84L1098.6,3398.6L1098.2,3398.35L1097.8,3398.1L1097.41,3397.85L1097.02,3397.59L1096.63,3397.32L1096.25,3397.05L1095.87,3396.78L1095.5,3396.5L1095.12,3396.21L1094.76,3395.92L1094.39,3395.63L1094.03,3395.33L1093.67,3395.03L1093.32,3394.72L1092.97,3394.4L1092.62,3394.09L1092.28,3393.77L1091.94,3393.44L1091.61,3393.11L1091.28,3392.78L1090.95,3392.44L1090.63,3392.1L1090.31,3391.75L1089.99,3391.4L1089.68,3391.04L1089.38,3390.68L1089.08,3390.32L1088.78,3389.96L1088.49,3389.59L1088.19,3389.22L1087.91,3388.84L1087.63,3388.46L1087.35,3388.07L1087.08,3387.69L1086.81,3387.3L1086.55,3386.9L1086.29,3386.51L1086.03,3386.11L1085.78,3385.7L1085.54,3385.3L1085.29,3384.89L1085.06,3384.47L1084.82,3384.06L1084.59,3383.64L1084.38,3383.24L1084.37,3383.22L1084.21,3382.76L1084.06,3382.31L1083.91,3381.86L1083.76,3381.4L1083.62,3380.94L1083.49,3380.49L1083.36,3380.03L1083.24,3379.56L1083.12,3379.1L1083,3378.64L1082.89,3378.17L1082.79,3377.71L1082.69,3377.24L1082.59,3376.77L1082.5,3376.3L1082.42,3375.83L1082.34,3375.36L1082.26,3374.89L1082.19,3374.41L1082.12,3373.94L1082.06,3373.46L1082,3372.99L1081.95,3372.51L1081.9,3372.03L1081.86,3371.55L1081.82,3371.07L1081.78,3370.59L1081.75,3370.11L1081.73,3369.63L1081.7,3369.15L1081.69,3368.67L1081.68,3368.18L1081.67,3367.7L1081.66,3367.21L1081.66,3366.73L1081.67,3366.24L1081.68,3365.76L1081.69,3365.27L1081.71,3364.78L1081.73,3364.29L1081.76,3363.81L1081.79,3363.32L1081.83,3362.83L1081.87,3362.34L1081.91,3361.85L1081.96,3361.36L1082.01,3360.86L1082.07,3360.37L1082.12,3359.88L1082.19,3359.39L1082.26,3358.9L1082.33,3358.4L1082.41,3357.91L1082.49,3357.41L1082.58,3356.92L1082.66,3356.43L1082.76,3355.93L1082.86,3355.44L1082.96,3354.94L1083.06,3354.45L1083.17,3353.95L1083.29,3353.46L1083.4,3352.96L1083.53,3352.47L1083.65,3351.97L1083.78,3351.47L1083.91,3350.97L1084.05,3350.48L1084.19,3349.98L1084.34,3349.49L1084.49,3348.99L1084.64,3348.49L1084.8,3347.99L1084.96,3347.5L1085.13,3347L1085.3,3346.5L1085.48,3345.99L1085.6,3345.63L1085.73,3345.25L1085.86,3344.88L1086,3344.51L1086.15,3344.14L1086.3,3343.78L1086.45,3343.42L1086.61,3343.06L1086.78,3342.71L1086.94,3342.36L1087.12,3342.01L1087.29,3341.66L1087.47,3341.32L1087.66,3340.98L1087.85,3340.65L1088.05,3340.32L1088.24,3339.99L1088.44,3339.67L1088.65,3339.35L1088.86,3339.03L1089.07,3338.71L1089.29,3338.4L1089.51,3338.1L1089.74,3337.8L1089.96,3337.49L1090.19,3337.2L1090.43,3336.91L1090.67,3336.62L1090.91,3336.33L1091.15,3336.05L1091.4,3335.78L1091.65,3335.5L1091.9,3335.23L1092.15,3334.96L1092.41,3334.7L1092.67,3334.44L1092.94,3334.18L1093.2,3333.93L1093.47,3333.68L1093.74,3333.43L1094.02,3333.19L1094.29,3332.95L1094.57,3332.72L1094.85,3332.48L1095.14,3332.25L1095.42,3332.03L1095.71,3331.8L1096,3331.58L1096.29,3331.37L1096.58,3331.15L1096.88,3330.94L1097.18,3330.73L1097.48,3330.53L1097.78,3330.33L1098.08,3330.13L1098.39,3329.93L1098.69,3329.74L1099,3329.55L1099.31,3329.36L1099.62,3329.18L1099.94,3328.99L1100.26,3328.81L1100.57,3328.64L1100.89,3328.46L1101.21,3328.29L1101.54,3328.12L1101.86,3327.95L1102.19,3327.79L1102.51,3327.63L1102.84,3327.47L1103.17,3327.31L1103.51,3327.16L1103.84,3327L1104.18,3326.85L1104.51,3326.7L1104.85,3326.56L1105.19,3326.41L1105.53,3326.27L1105.88,3326.13L1106.22,3326L1106.57,3325.86L1106.92,3325.72L1107.61,3325.47L1108.32,3325.22L1109.03,3324.97L1109.75,3324.74L1109.96,3324.67L1110.45,3324.46L1111.15,3324.18L1111.87,3323.91L1112.58,3323.64L1113.3,3323.37L1114.03,3323.11L1114.77,3322.86L1115.51,3322.61L1116.26,3322.37L1117.01,3322.13L1117.77,3321.9L1118.54,3321.68L1119.31,3321.45L1120.09,3321.24L1120.87,3321.03L1121.66,3320.82L1122.45,3320.62L1123.25,3320.42L1124.06,3320.23L1124.87,3320.04L1125.68,3319.86L1126.5,3319.68L1127.33,3319.51L1128.16,3319.34L1129,3319.17L1129.84,3319.01L1130.68,3318.85L1131.53,3318.7L1132.39,3318.55L1133.25,3318.41L1134.11,3318.27L1134.98,3318.13L1135.85,3318L1136.73,3317.87L1137.61,3317.74L1138.49,3317.62L1139.38,3317.5L1140.27,3317.39L1141.17,3317.28L1142.07,3317.17L1142.97,3317.07L1143.87,3316.97L1144.78,3316.87L1145.7,3316.78L1146.61,3316.69L1147.53,3316.6L1148.45,3316.52L1149.38,3316.44L1150.31,3316.37L1151.06,3316.31L1151.24,3316.29L1152.17,3316.22L1153.11,3316.14L1154.04,3316.08L1154.98,3316.01L1155.92,3315.95L1156.87,3315.89L1157.82,3315.83L1158.76,3315.78L1159.71,3315.73L1160.66,3315.68L1161.62,3315.64L1162.57,3315.6L1163.53,3315.56L1164.49,3315.52L1165.45,3315.48L1166.41,3315.45L1167.37,3315.42L1168.33,3315.4L1169.29,3315.37L1170.26,3315.35L1171.22,3315.33L1172.19,3315.32L1173.15,3315.3L1174.12,3315.29L1175.08,3315.28L1176.05,3315.27L1177.01,3315.26L1177.98,3315.26L1178.94,3315.26L1179.91,3315.26L1180.88,3315.26L1182.8,3315.28L1184.73,3315.3L1186.65,3315.32L1188.57,3315.36L1190.48,3315.4L1192.38,3315.45L1194.28,3315.51L1194.55,3315.51L1194.9,3315.51L1195.53,3314.41L1196.91,3311.99L1198.29,3309.57L1199.67,3307.16L1201.05,3304.76L1201.74,3303.57L1202.42,3302.38L1203.11,3301.2L1203.8,3300.02L1204.49,3298.85L1205.18,3297.69L1205.87,3296.53L1206.56,3295.38L1207.25,3294.23L1207.94,3293.09L1208.63,3291.96L1209.33,3290.84L1210.02,3289.72L1210.72,3288.62L1211.17,3287.92L1211.37,3287.49L1211.95,3286.33L1212.54,3285.17L1213.13,3284.02L1213.72,3282.89L1214.02,3282.32L1214.32,3281.75L1214.62,3281.19L1214.92,3280.63L1215.23,3280.08L1215.53,3279.53L1215.84,3278.97L1216.14,3278.43L1216.45,3277.88L1216.77,3277.34L1217.08,3276.8L1217.39,3276.26L1217.71,3275.73L1218.03,3275.2L1218.35,3274.67L1218.67,3274.14L1219,3273.62L1219.32,3273.1L1219.65,3272.58L1219.98,3272.07L1220.32,3271.56L1220.65,3271.05L1220.99,3270.55L1221.33,3270.05L1221.67,3269.55L1222.02,3269.06L1222.36,3268.56L1222.71,3268.08L1223.07,3267.59L1223.42,3267.11L1223.78,3266.63L1224.14,3266.16L1224.51,3265.69L1224.88,3265.22L1225.25,3264.76L1225.62,3264.3L1226,3263.84L1226.38,3263.39L1226.77,3262.94L1227.15,3262.49L1227.55,3262.05L1227.94,3261.62L1228.34,3261.18L1228.75,3260.75L1229.15,3260.33L1229.57,3259.91L1229.98,3259.49L1230.41,3259.08L1230.83,3258.67L1231.26,3258.27L1231.7,3257.87L1232.14,3257.48L1232.58,3257.09L1233.03,3256.71L1233.49,3256.33L1233.95,3255.95L1234.41,3255.59L1234.88,3255.22L1235.36,3254.87L1235.84,3254.52L1236.33,3254.17L1236.82,3253.83L1237.32,3253.5L1237.82,3253.17L1238.34,3252.85L1238.85,3252.54L1239.37,3252.24L1239.9,3251.94L1240.44,3251.64L1240.98,3251.36L1241.53,3251.08L1242.08,3250.81L1242.64,3250.55L1243.2,3250.3L1243.77,3250.06L1244.35,3249.82L1244.93,3249.59L1245.52,3249.38L1246.12,3249.17L1246.71,3248.97L1247.32,3248.78L1247.93,3248.6L1248.55,3248.43L1249.17,3248.27L1249.8,3248.12L1250.43,3247.99L1251.06,3247.86L1251.7,3247.74L1252.35,3247.64L1253,3247.54L1253.65,3247.46L1254.3,3247.39L1254.96,3247.33L1255.6,3247.28L1255.97,3247.26L1256.32,3247.25L1256.66,3247.23L1257.01,3247.23L1257.36,3247.22L1257.7,3247.22L1258.05,3247.23L1258.4,3247.24L1258.75,3247.25L1259.1,3247.27L1259.46,3247.29L1259.81,3247.32L1260.16,3247.35L1260.52,3247.39L1260.88,3247.43L1261.24,3247.48L1261.6,3247.53L1261.96,3247.6L1262.32,3247.66L1262.44,3247.68L1262.67,3247.77L1263.02,3247.9L1263.37,3248.03L1263.71,3248.17L1264.06,3248.32L1264.41,3248.47L1264.75,3248.63L1265.1,3248.79L1265.44,3248.96L1265.78,3249.14L1266.12,3249.32L1266.46,3249.51L1266.79,3249.7L1267.13,3249.9L1267.46,3250.11L1267.79,3250.32L1268.11,3250.55L1268.44,3250.77L1268.76,3251.01L1269.07,3251.25L1269.38,3251.5L1269.69,3251.75L1269.99,3252.01L1270.29,3252.28L1270.27,3252.3L1270.58,3252.55L1270.87,3252.83L1271.15,3253.12L1271.43,3253.41L1271.7,3253.7L1271.96,3254L1272.21,3254.31L1272.46,3254.62L1272.7,3254.93L1272.94,3255.25L1273.17,3255.58L1273.38,3255.9L1273.6,3256.23L1273.8,3256.56L1274,3256.9L1274.18,3257.23L1274.36,3257.57L1274.34,3257.59L1274.53,3257.91L1274.69,3258.25L1274.85,3258.6L1275,3258.94L1275.14,3259.28L1275.27,3259.62L1275.39,3259.97L1275.51,3260.31L1275.62,3260.65L1275.72,3260.99L1275.81,3261.33L1275.9,3261.67L1275.98,3262.01L1276.05,3262.34L1276.12,3262.68L1276.18,3263.01L1276.23,3263.34L1276.28,3263.67L1276.32,3263.99L1276.36,3264.32L1276.39,3264.64L1276.41,3264.96L1276.43,3265.28L1276.45,3265.59L1276.46,3265.91L1276.47,3266.22L1276.47,3266.53L1276.47,3266.87L1276.44,3267.44L1276.41,3268.04L1276.36,3268.63L1276.29,3269.21L1276.22,3269.78L1276.13,3270.35L1276.02,3270.91L1275.91,3271.47L1275.79,3272.02L1275.65,3272.56L1275.51,3273.1L1275.35,3273.63L1275.19,3274.16L1275.02,3274.68L1274.84,3275.21L1274.66,3275.72L1274.46,3276.24L1274.26,3276.75L1274.05,3277.26L1273.84,3277.77L1273.61,3278.28L1273.38,3278.78L1273.15,3279.29L1272.9,3279.79L1272.66,3280.29L1272.4,3280.79L1272.14,3281.29L1271.88,3281.79L1271.6,3282.29L1271.33,3282.79L1271.04,3283.29L1270.76,3283.79L1270.46,3284.29L1270.16,3284.79L1269.86,3285.3L1269.55,3285.8L1269.23,3286.3L1268.91,3286.8L1268.59,3287.31L1268.26,3287.81L1267.93,3288.32L1267.59,3288.82L1267.25,3289.33L1266.9,3289.84L1266.55,3290.35L1266.19,3290.86L1265.83,3291.37L1265.47,3291.88L1265.1,3292.4L1264.73,3292.91L1264.35,3293.43L1264.2,3293.64L1264.03,3293.98L1263.48,3295.12L1262.91,3296.27L1262.32,3297.43L1261.73,3298.6L1261.12,3299.78L1260.51,3300.97L1259.88,3302.16L1259.25,3303.36L1258.6,3304.56L1257.95,3305.78L1257.29,3306.99L1256.62,3308.22L1255.95,3309.45L1255.27,3310.68L1254.58,3311.92L1253.89,3313.16L1252.5,3315.65L1251.3,3317.79L1253.07,3317.93L1254.96,3318.09L1256.69,3318.24L1258.25,3318.38L1259.62,3318.5L1260.8,3318.61L1260.81,3318.61L1261.78,3318.71L1263.13,3318.84L1263.62,3318.89L1267.86,3321.26L1269.17,3326.01L1269.16,3326.06L1266.74,3330.35L1262.05,3331.61L1262.02,3331.61L1261.59,3331.55L1260.3,3331.37L1259.37,3331.24L1259.35,3331.24L1258.21,3331.09L1256.88,3330.91L1255.37,3330.72L1253.68,3330.51L1251.83,3330.29L1249.82,3330.05L1247.65,3329.8L1245.34,3329.54L1244.76,3329.48L1244.76,3329.48L1244.07,3330.73L1243.38,3331.99L1242.69,3333.23L1242.34,3333.87L1242.09,3334.52L1241.57,3335.84L1241.05,3337.16L1240.55,3338.47L1240.05,3339.77L1239.56,3341.07L1239.08,3342.36L1238.6,3343.64L1238.14,3344.91L1237.69,3346.17L1237.25,3347.41L1236.82,3348.65L1236.4,3349.88L1236.2,3350.48L1236.01,3351.09L1235.81,3351.69L1235.62,3352.28L1235.43,3352.88L1235.24,3353.47L1235.06,3354.05L1234.88,3354.63L1234.71,3355.21L1234.54,3355.78L1234.38,3356.35L1234.21,3356.91L1234.06,3357.47L1233.9,3358.03L1233.76,3358.58L1233.61,3359.12L1233.47,3359.66L1233.34,3360.2L1233.21,3360.72L1233.08,3361.25L1232.96,3361.76L1232.85,3362.28L1232.73,3362.78L1232.63,3363.28L1232.53,3363.77L1232.43,3364.26L1232.34,3364.74L1232.25,3365.21L1232.17,3365.68L1232.1,3366.14L1232.03,3366.59L1231.96,3367.03L1231.9,3367.47L1231.85,3367.89L1231.8,3368.31L1231.76,3368.72L1231.72,3369.13L1231.69,3369.52L1231.68,3369.66L1232.57,3369.24L1233.7,3368.72L1234.86,3368.16L1237.3,3366.97L1238.58,3366.36L1239.88,3365.72L1241.22,3365.08L1242.58,3364.43L1243.28,3364.1L1243.98,3363.77L1244.69,3363.44L1245.4,3363.11L1245.81,3362.92L1246.09,3362.72L1246.72,3362.26L1247.36,3361.8L1248,3361.34L1248.66,3360.88L1249.32,3360.42L1249.98,3359.96L1250.66,3359.5L1251.34,3359.05L1252.03,3358.59L1252.72,3358.14L1253.42,3357.68L1254.13,3357.23L1254.85,3356.78L1255.57,3356.34L1256.3,3355.9L1257.03,3355.46L1257.78,3355.03L1258.53,3354.6L1259.28,3354.17L1260.05,3353.75L1260.82,3353.34L1261.6,3352.93L1262.38,3352.53L1262.78,3352.33L1263.17,3352.13L1263.57,3351.93L1263.97,3351.74L1264.38,3351.54L1264.78,3351.35L1265.19,3351.16L1265.59,3350.98L1266,3350.79L1266.41,3350.61L1266.83,3350.43L1267.24,3350.25L1267.66,3350.07L1268.08,3349.89L1268.5,3349.72L1268.92,3349.55L1269.34,3349.38L1269.77,3349.21L1270.19,3349.05L1270.62,3348.89L1271.06,3348.73L1271.49,3348.57L1271.92,3348.41L1272.36,3348.26L1272.8,3348.11L1273.24,3347.97L1273.68,3347.82L1274.12,3347.68L1274.56,3347.54L1275.01,3347.41L1275.46,3347.27L1275.91,3347.14L1276.36,3347.02L1276.81,3346.89L1277.27,3346.77L1277.73,3346.65L1278.18,3346.54L1278.64,3346.42L1279.11,3346.32L1279.57,3346.21L1280.04,3346.11L1280.5,3346.01L1280.97,3345.91L1281.44,3345.82L1281.92,3345.73L1282.26,3345.67L1282.39,3345.65L1282.87,3345.56L1283.34,3345.48L1283.82,3345.41L1284.3,3345.34L1284.78,3345.27L1285.27,3345.2L1285.75,3345.14L1286.24,3345.08L1286.73,3345.03L1287.21,3344.98L1287.76,3344.93L1288.3,3344.88L1288.83,3344.84L1289.37,3344.8L1289.9,3344.77L1290.43,3344.74L1290.97,3344.71L1291.5,3344.68L1292.03,3344.66L1292.55,3344.65L1293.08,3344.64L1293.6,3344.63L1294.12,3344.62L1294.65,3344.62L1295.17,3344.62L1295.68,3344.62ZM1296.17,3422.95L1296.08,3423.01L1296.19,3422.94L1296.11,3422.97L1295.97,3423.03L1296.17,3422.96L1295.94,3423.05L1296.1,3422.99L1296.05,3423.01L1296,3423.04L1296.11,3422.98L1296.01,3423.04L1296.13,3422.98L1296.02,3423.03L1296.15,3422.97L1296.05,3423.02L1296.17,3422.95ZM1296.19,3422.94L1296.11,3422.99L1296.2,3422.94L1296.19,3422.94ZM1296.21,3422.94L1296.15,3422.97L1296.21,3422.94L1296.21,3422.94ZM1296.1,3422.97L1296.21,3422.94L1296.21,3422.93L1296.21,3422.94L1296.21,3422.93L1296.22,3422.93L1296.1,3422.97ZM1296.22,3422.93L1296.2,3422.95L1296.22,3422.93L1296.22,3422.93ZM1296.22,3422.93L1296.21,3422.93L1296.22,3422.93L1296.22,3422.93L1296.22,3422.93ZM1296.23,3422.93L1296.23,3422.93L1296.23,3422.93L1296.23,3422.93L1296.23,3422.93ZM1188.55,3325.96L1186.67,3325.99L1184.79,3326.04L1182.91,3326.09L1181.03,3326.14L1180.09,3326.18L1179.15,3326.21L1178.21,3326.25L1177.27,3326.28L1176.33,3326.32L1175.39,3326.37L1174.45,3326.41L1173.51,3326.46L1172.57,3326.51L1171.64,3326.56L1170.7,3326.61L1169.77,3326.67L1168.84,3326.72L1167.9,3326.78L1166.98,3326.85L1166.05,3326.91L1165.12,3326.98L1164.2,3327.05L1163.28,3327.12L1162.36,3327.2L1161.44,3327.27L1160.53,3327.35L1159.61,3327.43L1158.7,3327.52L1157.8,3327.61L1156.89,3327.7L1155.99,3327.79L1155.09,3327.89L1154.2,3327.98L1153.31,3328.09L1152.42,3328.19L1152.26,3328.21L1151.54,3328.3L1150.66,3328.41L1149.78,3328.53L1148.91,3328.65L1148.04,3328.77L1147.18,3328.89L1146.32,3329.02L1145.46,3329.15L1144.61,3329.28L1143.77,3329.42L1142.93,3329.56L1142.09,3329.7L1141.26,3329.85L1140.44,3329.99L1139.62,3330.14L1138.8,3330.3L1138,3330.45L1137.19,3330.61L1136.4,3330.78L1135.61,3330.94L1134.82,3331.11L1134.04,3331.28L1133.27,3331.46L1132.51,3331.64L1131.75,3331.82L1131,3332.01L1130.25,3332.19L1129.51,3332.39L1128.78,3332.58L1128.06,3332.78L1127.34,3332.98L1126.63,3333.18L1125.93,3333.39L1125.24,3333.6L1124.56,3333.81L1123.88,3334.03L1123.22,3334.24L1122.56,3334.47L1121.91,3334.69L1121.27,3334.92L1120.63,3335.15L1120.01,3335.38L1119.39,3335.62L1118.79,3335.86L1118.19,3336.1L1117.61,3336.35L1117.03,3336.6L1116.47,3336.85L1115.91,3337.1L1115.53,3337.28L1115.37,3337.37L1114.87,3337.69L1114.37,3338.01L1113.88,3338.33L1113.4,3338.65L1113.18,3338.81L1112.95,3338.97L1112.72,3339.13L1112.5,3339.29L1112.28,3339.45L1112.07,3339.62L1111.85,3339.78L1111.64,3339.94L1111.43,3340.1L1111.23,3340.26L1111.03,3340.42L1110.83,3340.59L1110.64,3340.75L1110.45,3340.91L1110.26,3341.07L1110.08,3341.23L1109.89,3341.39L1109.72,3341.56L1109.54,3341.72L1109.37,3341.88L1109.2,3342.04L1109.04,3342.2L1108.88,3342.36L1108.72,3342.52L1108.56,3342.68L1108.41,3342.84L1108.27,3343L1108.12,3343.16L1107.98,3343.31L1107.84,3343.47L1107.71,3343.63L1107.58,3343.79L1107.45,3343.94L1107.32,3344.1L1107.2,3344.25L1107.09,3344.41L1106.97,3344.56L1106.86,3344.72L1106.75,3344.87L1106.65,3345.02L1106.55,3345.17L1106.45,3345.32L1106.35,3345.47L1106.26,3345.62L1106.17,3345.77L1106.09,3345.91L1106.01,3346.06L1105.93,3346.2L1105.85,3346.35L1105.78,3346.49L1105.71,3346.63L1105.64,3346.78L1105.57,3346.92L1105.51,3347.06L1105.45,3347.19L1105.4,3347.33L1105.35,3347.47L1105.29,3347.6L1105.25,3347.74L1105.2,3347.87L1105.16,3348.01L1105.12,3348.14L1105.08,3348.27L1105.04,3348.4L1105.01,3348.53L1104.98,3348.66L1104.95,3348.79L1104.92,3348.92L1104.9,3349.04L1104.88,3349.17L1104.86,3349.3L1104.84,3349.42L1104.82,3349.55L1104.81,3349.67L1104.8,3349.8L1104.79,3349.92L1104.78,3350.05L1104.77,3350.17L1104.77,3350.29L1104.76,3350.42L1104.76,3350.54L1104.76,3350.68L1104.73,3351.06L1104.69,3351.44L1104.66,3351.83L1104.63,3352.21L1104.61,3352.59L1104.58,3352.96L1104.57,3353.34L1104.55,3353.71L1104.54,3354.08L1104.53,3354.44L1104.52,3354.81L1104.51,3355.17L1104.51,3355.53L1104.51,3355.88L1104.52,3356.23L1104.52,3356.58L1104.53,3356.93L1104.54,3357.28L1104.56,3357.62L1104.57,3357.96L1104.59,3358.29L1104.61,3358.62L1104.64,3358.95L1104.67,3359.28L1104.7,3359.61L1104.73,3359.93L1104.76,3360.25L1104.8,3360.56L1104.84,3360.88L1104.88,3361.18L1104.92,3361.49L1104.97,3361.8L1105.02,3362.1L1105.07,3362.39L1105.12,3362.69L1105.18,3362.98L1105.24,3363.27L1105.3,3363.55L1105.36,3363.83L1105.42,3364.11L1105.49,3364.39L1105.55,3364.66L1105.62,3364.93L1105.69,3365.19L1105.77,3365.46L1105.84,3365.72L1105.92,3365.97L1106,3366.22L1106.08,3366.47L1106.16,3366.72L1106.24,3366.96L1106.33,3367.2L1106.41,3367.44L1106.5,3367.67L1106.59,3367.9L1106.68,3368.12L1106.78,3368.35L1106.87,3368.57L1106.97,3368.78L1107.06,3368.99L1107.16,3369.2L1107.26,3369.41L1107.36,3369.61L1107.46,3369.81L1107.56,3370L1107.67,3370.19L1107.77,3370.38L1107.88,3370.57L1107.98,3370.75L1108.09,3370.93L1108.2,3371.1L1108.31,3371.27L1108.41,3371.44L1108.53,3371.6L1108.64,3371.76L1108.75,3371.92L1108.86,3372.08L1108.87,3372.09L1108.91,3372.26L1108.97,3372.43L1109.02,3372.61L1109.08,3372.78L1109.14,3372.95L1109.19,3373.12L1109.26,3373.29L1109.32,3373.45L1109.38,3373.62L1109.44,3373.78L1109.51,3373.93L1109.57,3374.09L1109.64,3374.25L1109.71,3374.4L1109.78,3374.55L1109.85,3374.7L1109.92,3374.85L1109.99,3374.99L1110.06,3375.14L1110.14,3375.28L1110.22,3375.42L1110.29,3375.56L1110.37,3375.7L1110.45,3375.83L1110.53,3375.97L1110.61,3376.1L1110.7,3376.23L1110.78,3376.36L1110.87,3376.49L1110.95,3376.62L1111.04,3376.74L1111.13,3376.86L1111.22,3376.99L1111.31,3377.11L1111.41,3377.22L1111.5,3377.34L1111.6,3377.46L1111.69,3377.58L1111.79,3377.69L1111.89,3377.8L1112,3377.91L1112.1,3378.02L1112.2,3378.13L1112.31,3378.24L1112.42,3378.35L1112.53,3378.45L1112.64,3378.56L1112.76,3378.66L1112.87,3378.76L1112.99,3378.86L1113.11,3378.96L1113.23,3379.06L1113.35,3379.16L1113.48,3379.25L1113.6,3379.35L1113.73,3379.44L1113.86,3379.54L1114,3379.63L1114.13,3379.72L1114.27,3379.81L1114.41,3379.89L1114.56,3379.98L1114.7,3380.07L1114.85,3380.15L1115,3380.24L1115.15,3380.32L1115.31,3380.4L1115.47,3380.48L1115.63,3380.55L1115.79,3380.63L1115.96,3380.71L1116.13,3380.78L1116.3,3380.85L1116.48,3380.92L1116.66,3380.99L1116.84,3381.06L1117.02,3381.12L1117.21,3381.19L1117.4,3381.25L1117.6,3381.31L1117.79,3381.37L1118,3381.43L1118.2,3381.48L1118.41,3381.53L1118.62,3381.58L1118.83,3381.63L1119.05,3381.68L1119.27,3381.72L1119.49,3381.77L1119.72,3381.81L1119.95,3381.84L1120.18,3381.88L1120.42,3381.91L1120.66,3381.94L1120.91,3381.97L1121.16,3381.99L1121.41,3382.02L1121.66,3382.04L1121.92,3382.06L1122.18,3382.07L1122.45,3382.08L1122.72,3382.09L1122.99,3382.1L1123.27,3382.1L1123.55,3382.1L1123.83,3382.1L1124.12,3382.09L1124.41,3382.08L1124.7,3382.07L1125,3382.05L1125.3,3382.03L1125.6,3382.01L1125.91,3381.98L1126.22,3381.95L1126.53,3381.92L1126.85,3381.88L1127.17,3381.84L1127.49,3381.8L1127.5,3381.8L1127.83,3381.75L1128.16,3381.7L1128.49,3381.65L1128.83,3381.59L1129.17,3381.53L1129.52,3381.46L1129.87,3381.39L1130.22,3381.32L1130.58,3381.24L1130.93,3381.16L1131.3,3381.08L1131.66,3380.99L1132.03,3380.89L1132.4,3380.79L1132.77,3380.69L1133.15,3380.59L1133.53,3380.47L1133.92,3380.36L1134.3,3380.24L1134.69,3380.11L1135.09,3379.99L1135.48,3379.85L1135.88,3379.72L1136.28,3379.57L1136.69,3379.43L1137.1,3379.27L1137.51,3379.12L1137.92,3378.96L1138.34,3378.79L1138.76,3378.62L1139.18,3378.45L1139.61,3378.27L1140.04,3378.08L1140.47,3377.89L1140.9,3377.7L1141.34,3377.5L1141.78,3377.3L1142.22,3377.09L1142.66,3376.87L1143.11,3376.66L1143.56,3376.43L1144.01,3376.2L1144.47,3375.97L1144.93,3375.73L1145.39,3375.49L1145.85,3375.24L1146.32,3374.98L1146.79,3374.72L1147.26,3374.46L1147.73,3374.19L1148.21,3373.91L1148.68,3373.63L1149.16,3373.34L1149.65,3373.05L1150.13,3372.76L1150.62,3372.45L1151.11,3372.15L1151.6,3371.83L1152.1,3371.52L1152.6,3371.19L1153.09,3370.87L1153.57,3370.55L1154.04,3370.23L1154.51,3369.91L1154.99,3369.58L1155.46,3369.24L1155.93,3368.9L1156.4,3368.56L1156.87,3368.21L1157.34,3367.85L1157.81,3367.49L1158.28,3367.13L1158.74,3366.76L1159.21,3366.39L1159.68,3366.01L1159.86,3365.86L1160.12,3365.6L1160.55,3365.18L1160.98,3364.75L1161.4,3364.32L1161.82,3363.88L1162.25,3363.44L1162.67,3362.99L1163.09,3362.54L1163.51,3362.09L1163.93,3361.63L1164.34,3361.17L1164.76,3360.71L1165.17,3360.24L1165.59,3359.77L1166,3359.29L1166.41,3358.81L1166.82,3358.33L1167.23,3357.85L1167.64,3357.36L1168.05,3356.86L1168.45,3356.37L1168.86,3355.87L1169.27,3355.37L1169.67,3354.86L1169.89,3354.58L1170.07,3354.35L1170.47,3353.84L1170.87,3353.32L1171.26,3352.8L1171.66,3352.28L1172.05,3351.76L1172.45,3351.23L1172.84,3350.7L1173.23,3350.16L1173.62,3349.63L1174.01,3349.09L1174.4,3348.55L1174.79,3348L1175.17,3347.46L1175.56,3346.91L1175.94,3346.36L1176.33,3345.81L1176.71,3345.25L1177.09,3344.69L1177.47,3344.14L1178.23,3343.01L1178.99,3341.87L1179.74,3340.73L1180.49,3339.58L1181.23,3338.42L1181.97,3337.26L1182.71,3336.09L1183.45,3334.92L1184.18,3333.74L1184.91,3332.55L1185.63,3331.36L1186.36,3330.17L1187.08,3328.97L1187.13,3328.89L1187.8,3327.77L1188.51,3326.56L1188.86,3325.96L1188.55,3325.96ZM1232.71,3375.72L1232.74,3375.72L1232.8,3375.81L1232.72,3375.61L1232.78,3375.69L1232.83,3375.76L1232.74,3375.55L1232.79,3375.61L1232.84,3375.66L1232.73,3375.43L1232.77,3375.47L1232.82,3375.51L1232.68,3375.27L1232.72,3375.3L1232.76,3375.32L1232.6,3375.07L1232.63,3375.07L1232.66,3375.08L1232.48,3374.81L1232.59,3374.94L1232.4,3374.67L1232.51,3374.79L1232.3,3374.52L1232.42,3374.64L1232.19,3374.37L1232.31,3374.47L1232.07,3374.2L1232.19,3374.3L1231.94,3374.03L1232.06,3374.12L1231.79,3373.85L1231.91,3373.94L1231.76,3373.8L1231.78,3373.92L1231.82,3374.14L1231.86,3374.35L1231.91,3374.55L1231.96,3374.73L1232.01,3374.9L1232.07,3375.05L1232.12,3375.22L1232.15,3375.25L1232.18,3375.31L1232.21,3375.37L1232.24,3375.42L1232.27,3375.47L1232.29,3375.51L1232.32,3375.55L1232.35,3375.59L1232.38,3375.62L1232.4,3375.65L1232.43,3375.67L1232.46,3375.69L1232.49,3375.71L1232.51,3375.72L1232.53,3375.73L1232.56,3375.74L1232.6,3375.82L1232.56,3375.66L1232.6,3375.74L1232.65,3375.82L1232.59,3375.65L1232.64,3375.73L1232.69,3375.8L1232.63,3375.63L1232.67,3375.7L1232.71,3375.72ZM1226.65,3371.1L1226.24,3371.06L1226.37,3371.1L1225.97,3371.07L1226.1,3371.11L1225.71,3371.09L1225.85,3371.12L1225.47,3371.12L1225.61,3371.15L1225.24,3371.16L1225.38,3371.18L1225.03,3371.2L1225.17,3371.22L1224.83,3371.24L1224.98,3371.27L1224.65,3371.3L1224.8,3371.31L1224.48,3371.35L1224.63,3371.37L1224.33,3371.41L1224.49,3371.42L1224.19,3371.47L1224.21,3371.5L1224.23,3371.53L1223.96,3371.59L1224,3371.62L1224.04,3371.64L1223.79,3371.71L1223.84,3371.73L1223.89,3371.76L1223.67,3371.82L1223.74,3371.84L1223.81,3371.86L1223.61,3371.92L1223.69,3371.94L1223.77,3371.95L1223.59,3372.02L1223.68,3372.03L1223.78,3372.03L1223.61,3372.1L1223.72,3372.1L1223.76,3372.13L1223.8,3372.16L1223.86,3372.18L1223.92,3372.2L1223.99,3372.21L1224.07,3372.22L1224.13,3372.24L1224.36,3372.23L1224.59,3372.21L1224.84,3372.18L1225.12,3372.13L1225.42,3372.07L1225.75,3371.99L1226.09,3371.89L1226.45,3371.78L1226.84,3371.65L1227.24,3371.52L1227.65,3371.36L1227.81,3371.31L1227.7,3371.28L1227.83,3371.3L1227.83,3371.3L1227.4,3371.19L1227.54,3371.2L1227.1,3371.12L1227.14,3371.12L1226.81,3371.06L1226.94,3371.11L1226.52,3371.05L1226.65,3371.1ZM1252.11,3272.86L1251.88,3272.86L1251.65,3272.88L1251.42,3272.89L1251.18,3272.91L1250.94,3272.94L1250.7,3272.97L1250.46,3273L1250.21,3273.04L1249.95,3273.09L1249.7,3273.14L1249.44,3273.2L1249.17,3273.26L1248.91,3273.33L1248.64,3273.41L1248.36,3273.49L1248.09,3273.57L1247.81,3273.66L1247.52,3273.76L1247.23,3273.87L1246.94,3273.98L1246.65,3274.1L1246.35,3274.22L1246.05,3274.35L1245.75,3274.49L1245.44,3274.63L1245.13,3274.78L1244.82,3274.93L1244.5,3275.1L1244.18,3275.26L1243.86,3275.44L1243.54,3275.62L1243.21,3275.81L1242.88,3276L1242.55,3276.2L1242.21,3276.41L1241.88,3276.63L1241.54,3276.85L1241.2,3277.07L1240.85,3277.31L1240.51,3277.55L1240.16,3277.79L1239.81,3278.04L1239.46,3278.3L1239.11,3278.57L1238.75,3278.84L1238.4,3279.11L1238.04,3279.39L1237.68,3279.68L1237.32,3279.98L1236.96,3280.28L1236.59,3280.58L1236.23,3280.89L1235.86,3281.21L1235.49,3281.53L1235.12,3281.86L1234.75,3282.2L1234.38,3282.53L1234.01,3282.88L1233.64,3283.23L1233.26,3283.58L1232.88,3283.94L1232.51,3284.31L1232.13,3284.68L1231.75,3285.05L1231.37,3285.43L1230.99,3285.82L1230.61,3286.21L1230.22,3286.6L1229.84,3287L1229.46,3287.41L1229.07,3287.81L1228.68,3288.23L1228.3,3288.64L1227.91,3289.06L1227.52,3289.49L1227.13,3289.92L1226.74,3290.35L1226.35,3290.79L1225.96,3291.23L1225.18,3292.13L1224.39,3293.04L1223.6,3293.96L1222.81,3294.9L1222.52,3295.25L1222.09,3295.91L1221.42,3296.95L1220.75,3298.01L1220.07,3299.07L1219.4,3300.15L1218.72,3301.24L1218.05,3302.35L1217.37,3303.46L1216.69,3304.58L1216.01,3305.71L1215.33,3306.84L1214.64,3307.99L1213.96,3309.14L1213.27,3310.31L1212.59,3311.47L1211.2,3313.83L1210.13,3315.68L1210.94,3315.7L1212.73,3315.74L1214.5,3315.8L1216.25,3315.85L1217.99,3315.91L1219.7,3315.97L1221.4,3316.04L1223.08,3316.11L1224.73,3316.18L1226.37,3316.25L1227.98,3316.33L1229.57,3316.41L1229.6,3316.41L1231.13,3316.49L1232.66,3316.57L1234.17,3316.65L1235.66,3316.73L1236.84,3316.8L1239.62,3311.77L1241,3309.27L1242.36,3306.79L1243.03,3305.56L1243.69,3304.34L1244.35,3303.12L1245,3301.92L1245.65,3300.72L1246.28,3299.53L1246.91,3298.34L1247.52,3297.17L1248.13,3296.01L1248.72,3294.86L1249.3,3293.72L1249.87,3292.6L1250.42,3291.48L1250.97,3290.38L1251.5,3289.29L1252.01,3288.22L1252.16,3287.9L1252.22,3287.67L1252.36,3287.09L1252.49,3286.52L1252.63,3285.95L1252.76,3285.39L1252.88,3284.84L1253,3284.29L1253.12,3283.74L1253.23,3283.2L1253.34,3282.67L1253.44,3282.15L1253.55,3281.63L1253.64,3281.11L1253.73,3280.61L1253.82,3280.11L1253.9,3279.61L1253.98,3279.13L1254.05,3278.65L1254.12,3278.18L1254.18,3277.72L1254.24,3277.26L1254.29,3276.81L1254.34,3276.38L1254.38,3275.95L1254.42,3275.52L1254.45,3275.11L1254.48,3274.71L1254.51,3274.32L1254.52,3273.93L1254.53,3273.56L1254.54,3273.2L1254.54,3273.08L1254.44,3273.06L1254.24,3273.02L1254.03,3272.99L1253.83,3272.96L1253.62,3272.93L1253.41,3272.91L1253.2,3272.89L1252.98,3272.88L1252.77,3272.86L1252.55,3272.86L1252.33,3272.86L1252.11,3272.86ZM1255.88,3273.69L1255.82,3273.66L1255.8,3273.66L1255.72,3273.68L1255.78,3273.69L1255.77,3273.69L1255.96,3273.73L1255.88,3273.69ZM1255.57,3273.38L1255.52,3273.39L1255.72,3273.47L1255.66,3273.48L1255.6,3273.49L1255.8,3273.56L1255.74,3273.58L1255.67,3273.59L1255.87,3273.65L1255.82,3273.66L1255.99,3273.69L1255.9,3273.65L1255.9,3273.63L1255.9,3273.61L1255.89,3273.58L1255.87,3273.56L1255.84,3273.53L1255.81,3273.5L1255.78,3273.47L1255.73,3273.45L1255.68,3273.42L1255.63,3273.39L1255.59,3273.38L1255.57,3273.38ZM1253.55,3268.86L1253.51,3268.79L1253.47,3268.72L1253.49,3268.88L1253.45,3268.82L1253.41,3268.75L1253.44,3268.92L1253.4,3268.86L1253.36,3268.81L1253.39,3268.98L1253.35,3268.93L1253.31,3268.88L1253.35,3269.06L1253.31,3269.01L1253.27,3268.97L1253.32,3269.16L1253.28,3269.12L1253.24,3269.09L1253.3,3269.28L1253.26,3269.25L1253.22,3269.22L1253.29,3269.41L1253.25,3269.39L1253.22,3269.37L1253.3,3269.57L1253.26,3269.55L1253.22,3269.54L1253.31,3269.74L1253.28,3269.73L1253.24,3269.72L1253.34,3269.93L1253.31,3269.92L1253.27,3269.91L1253.38,3270.12L1253.35,3270.12L1253.32,3270.12L1253.44,3270.33L1253.41,3270.33L1253.38,3270.34L1253.52,3270.55L1253.42,3270.45L1253.56,3270.66L1253.46,3270.56L1253.61,3270.77L1253.51,3270.67L1253.66,3270.88L1253.55,3270.78L1253.71,3270.99L1253.61,3270.9L1253.77,3271.1L1253.66,3271.01L1253.83,3271.21L1253.72,3271.13L1253.89,3271.33L1253.78,3271.24L1253.95,3271.44L1253.84,3271.36L1254.02,3271.55L1253.91,3271.47L1254.09,3271.66L1253.98,3271.58L1254.17,3271.76L1254.05,3271.69L1254.24,3271.87L1254.12,3271.8L1254.32,3271.97L1254.2,3271.9L1254.39,3272.07L1254.27,3272L1254.47,3272.17L1254.45,3272.19L1254.43,3272.2L1254.53,3272.28L1254.53,3272.18L1254.51,3271.87L1254.49,3271.57L1254.46,3271.28L1254.43,3271L1254.4,3270.74L1254.36,3270.49L1254.32,3270.26L1254.27,3270.04L1254.21,3269.83L1254.16,3269.65L1254.1,3269.48L1254.04,3269.33L1253.97,3269.19L1253.9,3269.08L1253.84,3268.98L1253.77,3268.9L1253.7,3268.84L1253.63,3268.77L1253.6,3268.72L1253.61,3268.87L1253.57,3268.79L1253.53,3268.71L1253.55,3268.86Z" style="fill:rgb(1,65,85);"/>
        </g>
        <g transform="matrix(0.687036,0,0,0.151115,384.313,224.201)">
            <path d="M1333.25,3308.22L1337.46,3311.44L1337.5,3311.48L1340.11,3316.09L1340.74,3321.22L1339.42,3326.21L1336.19,3330.42L1336.17,3330.44L1335.93,3330.56L1335.81,3330.63L1335.48,3330.81L1335.14,3330.99L1334.82,3331.16L1334.13,3331.54L1333.45,3331.93L1332.77,3332.32L1332.09,3332.73L1331.41,3333.14L1330.72,3333.57L1330.03,3334L1329.34,3334.45L1328.65,3334.91L1327.95,3335.37L1327.26,3335.85L1326.56,3336.34L1325.86,3336.83L1325.16,3337.34L1324.45,3337.85L1324.13,3338.09L1323.77,3338.39L1323.1,3338.95L1322.42,3339.53L1321.75,3340.1L1321.08,3340.69L1320.4,3341.29L1319.73,3341.89L1319.06,3342.5L1318.38,3343.12L1317.71,3343.75L1317.03,3344.39L1316.36,3345.03L1315.68,3345.68L1315.11,3346.24L1315.01,3346.35L1314.37,3347.04L1313.73,3347.74L1313.1,3348.44L1312.46,3349.15L1311.82,3349.87L1311.18,3350.6L1310.88,3350.95L1310.56,3351.34L1309.97,3352.1L1309.37,3352.87L1308.77,3353.65L1308.18,3354.43L1307.58,3355.21L1307.16,3355.78L1307,3356.01L1306.44,3356.83L1305.88,3357.65L1305.32,3358.48L1304.77,3359.31L1304.21,3360.15L1303.66,3360.99L1303.11,3361.84L1302.56,3362.69L1302.01,3363.54L1301.46,3364.4L1300.91,3365.26L1300.36,3366.13L1300.25,3366.31L1299.83,3367.01L1299.29,3367.89L1298.76,3368.77L1298.23,3369.66L1297.7,3370.55L1297.17,3371.44L1296.64,3372.34L1296.11,3373.24L1295.59,3374.15L1295.06,3375.05L1294.54,3375.96L1294.02,3376.87L1293.49,3377.79L1292.97,3378.7L1292.45,3379.62L1292.25,3379.98L1291.94,3380.55L1290.92,3382.41L1289.9,3384.27L1288.89,3386.14L1287.88,3388.02L1286.87,3389.91L1285.87,3391.8L1284.87,3393.69L1283.88,3395.59L1283.71,3395.91L1282.89,3397.49L1281.91,3399.39L1280.94,3401.3L1279.97,3403.21L1278.03,3407.02L1276.09,3410.82L1274.95,3413.08L1274.18,3414.61L1272.28,3418.39L1271.33,3420.27L1270.39,3422.14L1269.44,3424L1268.5,3425.85L1267.55,3427.7L1266.61,3429.53L1266.13,3430.44L1265.67,3431.36L1264.73,3433.17L1263.8,3434.97L1262.86,3436.76L1261.93,3438.54L1261.46,3439.42L1260.99,3440.3L1260.52,3441.18L1260.05,3442.05L1259.58,3442.91L1259.11,3443.78L1258.64,3444.64L1258.17,3445.49L1257.69,3446.34L1257.38,3446.9L1257.23,3447.19L1256.76,3448.03L1256.29,3448.87L1255.82,3449.7L1255.35,3450.53L1254.88,3451.36L1254.41,3452.18L1253.94,3452.99L1253.47,3453.81L1253,3454.61L1252.52,3455.41L1252.05,3456.2L1251.57,3456.99L1251.09,3457.78L1250.61,3458.55L1250.13,3459.32L1249.65,3460.09L1249.17,3460.85L1248.83,3461.39L1248.69,3461.61L1248.21,3462.36L1247.74,3463.11L1247.26,3463.85L1246.78,3464.58L1246.29,3465.31L1245.81,3466.03L1245.32,3466.75L1244.84,3467.46L1244.35,3468.16L1243.85,3468.86L1243.36,3469.55L1242.86,3470.23L1242.37,3470.91L1241.87,3471.57L1241.36,3472.24L1240.86,3472.89L1240.85,3472.9L1240.37,3473.55L1239.88,3474.21L1239.39,3474.86L1238.89,3475.5L1238.39,3476.14L1237.89,3476.76L1237.38,3477.38L1236.87,3477.99L1236.36,3478.6L1235.84,3479.2L1235.51,3479.58L1235.33,3479.79L1234.82,3480.39L1234.31,3480.98L1233.8,3481.57L1233.28,3482.14L1232.76,3482.7L1232.48,3482.99L1232.22,3483.27L1231.95,3483.55L1231.68,3483.82L1231.41,3484.1L1231.14,3484.37L1230.86,3484.63L1230.59,3484.9L1230.31,3485.16L1230.03,3485.43L1229.75,3485.68L1229.47,3485.94L1229.19,3486.2L1228.95,3486.41L1228.9,3486.45L1228.62,3486.71L1228.34,3486.97L1228.06,3487.22L1227.78,3487.47L1227.49,3487.72L1227.2,3487.97L1226.91,3488.22L1226.62,3488.46L1226.32,3488.7L1226.02,3488.94L1225.73,3489.17L1225.42,3489.41L1225.12,3489.64L1224.82,3489.86L1224.51,3490.09L1224.2,3490.31L1223.88,3490.53L1223.57,3490.75L1223.26,3490.96L1222.94,3491.17L1222.62,3491.38L1222.29,3491.58L1221.97,3491.78L1221.64,3491.98L1221.31,3492.18L1220.98,3492.37L1220.64,3492.56L1220.3,3492.75L1219.96,3492.93L1219.62,3493.11L1219.28,3493.29L1218.93,3493.46L1218.58,3493.63L1218.23,3493.79L1217.87,3493.96L1217.52,3494.12L1217.16,3494.27L1216.8,3494.42L1216.43,3494.57L1216.07,3494.71L1215.7,3494.85L1215.33,3494.99L1214.96,3495.12L1214.58,3495.24L1214.21,3495.37L1213.83,3495.49L1213.44,3495.6L1213.06,3495.71L1212.67,3495.82L1212.29,3495.92L1211.9,3496.02L1211.51,3496.11L1211.11,3496.2L1210.72,3496.28L1210.63,3496.3L1210.32,3496.37L1209.92,3496.46L1209.52,3496.54L1209.12,3496.61L1208.71,3496.68L1208.31,3496.75L1207.9,3496.81L1207.49,3496.87L1207.07,3496.92L1206.66,3496.97L1206.25,3497.01L1205.83,3497.05L1205.41,3497.08L1204.99,3497.11L1204.57,3497.13L1204.15,3497.15L1203.72,3497.16L1203.3,3497.17L1202.87,3497.17L1202.44,3497.17L1202.01,3497.16L1201.59,3497.15L1201.15,3497.13L1200.72,3497.11L1200.29,3497.08L1199.86,3497.05L1199.42,3497.01L1198.99,3496.97L1198.55,3496.92L1198.12,3496.87L1197.68,3496.81L1197.25,3496.75L1196.81,3496.68L1196.37,3496.61L1195.93,3496.53L1195.49,3496.45L1195.05,3496.36L1194.61,3496.27L1194.17,3496.17L1193.73,3496.07L1193.29,3495.96L1192.85,3495.85L1192.41,3495.74L1191.97,3495.62L1191.53,3495.49L1191.09,3495.36L1190.65,3495.23L1190.2,3495.09L1189.76,3494.95L1189.32,3494.8L1188.88,3494.64L1188.44,3494.49L1188,3494.33L1187.55,3494.16L1187.11,3493.99L1186.72,3493.85L1186.7,3493.83L1182.69,3490.4L1180.36,3485.81L1179.91,3480.67L1181.51,3475.61L1181.52,3475.59L1181.53,3475.57L1184.97,3471.53L1189.56,3469.18L1194.69,3468.71L1199.73,3470.29L1199.75,3470.3L1199.98,3470.5L1200.15,3470.66L1200.32,3470.82L1200.48,3470.97L1200.65,3471.12L1200.82,3471.27L1200.98,3471.42L1201.15,3471.56L1201.31,3471.7L1201.47,3471.83L1201.63,3471.97L1201.8,3472.1L1201.95,3472.22L1202.11,3472.35L1202.27,3472.47L1202.43,3472.59L1202.58,3472.7L1202.74,3472.82L1202.89,3472.93L1203.05,3473.03L1203.2,3473.14L1203.35,3473.24L1203.5,3473.34L1203.65,3473.44L1203.8,3473.53L1203.95,3473.63L1204.1,3473.72L1204.25,3473.81L1204.4,3473.89L1204.54,3473.98L1204.69,3474.06L1204.84,3474.14L1204.99,3474.22L1205.13,3474.29L1205.28,3474.36L1205.43,3474.43L1205.57,3474.51L1205.72,3474.57L1205.87,3474.64L1206.01,3474.7L1206.16,3474.76L1206.31,3474.82L1206.46,3474.88L1206.61,3474.93L1206.76,3474.99L1206.91,3475.04L1207.06,3475.09L1207.21,3475.14L1207.36,3475.18L1207.51,3475.23L1207.67,3475.27L1207.82,3475.31L1207.98,3475.35L1208.13,3475.39L1208.29,3475.42L1208.42,3475.45L1208.45,3475.45L1208.61,3475.47L1208.77,3475.49L1208.93,3475.51L1209.09,3475.52L1209.26,3475.53L1209.42,3475.55L1209.59,3475.55L1209.75,3475.56L1209.92,3475.56L1210.09,3475.57L1210.26,3475.57L1210.43,3475.56L1210.61,3475.56L1210.78,3475.55L1210.96,3475.54L1211.14,3475.53L1211.32,3475.51L1211.5,3475.5L1211.68,3475.48L1211.86,3475.46L1212.05,3475.43L1212.24,3475.41L1212.42,3475.38L1212.62,3475.35L1212.81,3475.31L1213,3475.28L1213.2,3475.24L1213.39,3475.19L1213.59,3475.15L1213.79,3475.1L1213.99,3475.05L1214.19,3475L1214.4,3474.94L1214.61,3474.88L1214.81,3474.82L1215.02,3474.76L1215.23,3474.69L1215.44,3474.62L1215.66,3474.55L1215.87,3474.47L1216.09,3474.39L1216.31,3474.31L1216.53,3474.23L1216.75,3474.14L1216.97,3474.05L1217.19,3473.95L1217.42,3473.86L1217.64,3473.76L1217.87,3473.66L1218.1,3473.55L1218.33,3473.44L1218.56,3473.33L1218.79,3473.22L1219.02,3473.1L1219.06,3473.08L1219.25,3472.97L1219.48,3472.84L1219.71,3472.7L1219.94,3472.57L1220.17,3472.43L1220.4,3472.28L1220.64,3472.13L1220.87,3471.98L1221.11,3471.83L1221.34,3471.68L1221.58,3471.52L1221.81,3471.36L1222.05,3471.19L1222.28,3471.03L1222.77,3470.68L1223.26,3470.33L1223.74,3469.96L1224.23,3469.58L1224.72,3469.2L1224.89,3469.05L1225.2,3468.78L1225.68,3468.36L1226.15,3467.92L1226.63,3467.47L1227.11,3467.01L1227.6,3466.53L1228.08,3466.06L1228.57,3465.56L1229.05,3465.06L1229.54,3464.55L1230.02,3464.04L1230.03,3464.03L1230.5,3463.49L1230.97,3462.93L1231.44,3462.37L1231.91,3461.79L1232.38,3461.21L1232.85,3460.62L1233.33,3460.02L1233.8,3459.41L1234.27,3458.79L1234.75,3458.16L1235.22,3457.53L1235.7,3456.89L1236.17,3456.24L1236.65,3455.58L1237.12,3454.91L1237.6,3454.24L1237.74,3454.04L1238.07,3453.55L1238.54,3452.86L1239.01,3452.16L1239.48,3451.45L1239.95,3450.73L1240.42,3450.01L1240.89,3449.28L1241.36,3448.54L1241.83,3447.8L1242.3,3447.05L1242.77,3446.3L1243.24,3445.53L1243.71,3444.76L1244.19,3443.99L1244.66,3443.21L1245.13,3442.42L1245.6,3441.63L1246.08,3440.83L1246.23,3440.56L1246.54,3440.02L1247.01,3439.21L1247.48,3438.39L1247.95,3437.57L1248.41,3436.74L1248.88,3435.9L1249.35,3435.07L1249.82,3434.22L1250.29,3433.37L1250.76,3432.52L1251.7,3430.8L1252.64,3429.06L1253.58,3427.31L1254.52,3425.54L1255,3424.65L1255.46,3423.75L1256.4,3421.95L1257.34,3420.13L1258.28,3418.3L1259.22,3416.46L1260.17,3414.6L1261.12,3412.74L1263.02,3408.99L1263.79,3407.46L1264.92,3405.2L1266.83,3401.38L1268.75,3397.54L1269.71,3395.61L1270.68,3393.69L1271.66,3391.76L1272.47,3390.15L1272.63,3389.83L1273.61,3387.89L1274.58,3385.96L1275.56,3384.02L1276.55,3382.09L1277.54,3380.16L1278.54,3378.24L1279.54,3376.32L1280.55,3374.4L1280.86,3373.81L1281.05,3373.44L1281.55,3372.48L1282.06,3371.53L1282.56,3370.57L1283.07,3369.62L1283.57,3368.67L1284.08,3367.72L1284.59,3366.77L1285.11,3365.83L1285.62,3364.88L1286.13,3363.94L1286.65,3363L1287.17,3362.07L1287.69,3361.14L1288.22,3360.21L1288.63,3359.47L1288.74,3359.28L1289.26,3358.35L1289.78,3357.42L1290.3,3356.49L1290.82,3355.57L1291.35,3354.65L1291.87,3353.74L1292.4,3352.83L1292.94,3351.92L1293.47,3351.01L1294.01,3350.11L1294.55,3349.21L1295.09,3348.32L1295.24,3348.06L1295.61,3347.41L1296.12,3346.51L1296.64,3345.6L1297.16,3344.7L1297.68,3343.81L1298.2,3342.91L1298.48,3342.45L1298.71,3342.01L1299.21,3341.1L1299.7,3340.2L1300.2,3339.3L1300.71,3338.4L1301.22,3337.51L1301.73,3336.62L1301.81,3336.47L1302.21,3335.71L1302.7,3334.8L1303.18,3333.9L1303.68,3333.01L1304.17,3332.11L1304.68,3331.22L1305.18,3330.34L1305.69,3329.46L1306.21,3328.59L1306.73,3327.72L1307.26,3326.85L1307.79,3325.99L1308.33,3325.14L1308.62,3324.67L1308.85,3324.27L1309.37,3323.4L1309.89,3322.53L1310.41,3321.66L1310.95,3320.81L1311.49,3319.95L1312.04,3319.1L1312.59,3318.26L1313.15,3317.42L1313.72,3316.59L1314.29,3315.76L1314.87,3314.94L1315.46,3314.13L1316.06,3313.32L1316.66,3312.51L1317.27,3311.73L1317.59,3311.32L1317.9,3310.93L1318.21,3310.53L1318.31,3310.41L1318.5,3310.16L1318.52,3310.14L1323.13,3307.52L1328.26,3306.89L1333.25,3308.22Z" style="fill:rgb(1,65,85);"/>
        </g>
    </g>
</svg>
